<svg width="150" height="150" viewBox="0 0 150 150" fill="none" xmlns="http://www.w3.org/2000/svg">
<g clip-path="url(#clip0_1122_7220)">
<path d="M9.02481 41.6814C6.93204 42.2793 5.03168 43.4134 3.51175 44.9713C1.99183 46.5292 0.905029 48.4569 0.358893 50.5638C-0.187244 52.6707 -0.173788 54.8837 0.397928 56.9838C0.969644 59.0839 2.07981 60.9983 3.61856 62.5376L24.9436 83.8376V125H66.1498L87.6186 146.438C88.7709 147.6 90.1415 148.523 91.6517 149.153C93.162 149.784 94.782 150.11 96.4186 150.113C97.4942 150.111 98.5653 149.972 99.6061 149.7C101.712 149.17 103.641 148.094 105.199 146.581C106.757 145.068 107.889 143.171 108.481 141.081L149.944 0.131348L9.02481 41.6814ZM12.4998 53.7001L118.925 22.3251L37.4561 103.663V78.6626L12.4998 53.7001ZM96.4998 137.6L71.3311 112.5H46.3311L127.787 31.1126L96.4998 137.6Z" fill="#F4E724"/>
</g>
<defs>
<clipPath id="clip0_1122_7220">
<rect width="150" height="150" fill="white"/>
</clipPath>
</defs>
</svg>
