<svg width="18" height="18" viewBox="0 0 18 18" fill="none" xmlns="http://www.w3.org/2000/svg">
<g clip-path="url(#clip0_1121_6208)">
<path d="M16.875 15.75H4.125C3.62772 15.75 3.15081 15.5525 2.79917 15.2008C2.44754 14.8492 2.25 14.3723 2.25 13.875V1.125C2.25 0.826631 2.13147 0.540483 1.9205 0.329505C1.70952 0.118526 1.42337 0 1.125 0C0.826631 0 0.540483 0.118526 0.329505 0.329505C0.118526 0.540483 0 0.826631 0 1.125L0 13.875C0.00119113 14.9687 0.436171 16.0172 1.2095 16.7905C1.98283 17.5638 3.03135 17.9988 4.125 18H16.875C17.1734 18 17.4595 17.8815 17.6705 17.6705C17.8815 17.4595 18 17.1734 18 16.875C18 16.5766 17.8815 16.2905 17.6705 16.0795C17.4595 15.8685 17.1734 15.75 16.875 15.75Z" fill="#F4E724"/>
<path d="M16.8763 2.98193H14.5618C14.4134 2.98197 14.2685 3.02597 14.1452 3.10838C14.0219 3.1908 13.9258 3.30792 13.869 3.44494C13.8123 3.58197 13.7974 3.73274 13.8263 3.87821C13.8553 4.02367 13.9267 4.15729 14.0315 4.26218L14.5813 4.81118L11.891 7.49993C11.8562 7.53486 11.8148 7.56256 11.7692 7.58147C11.7237 7.60037 11.6748 7.6101 11.6255 7.6101C11.5762 7.6101 11.5273 7.60037 11.4818 7.58147C11.4362 7.56256 11.3948 7.53486 11.36 7.49993L11.2325 7.37243C10.7325 6.89481 10.0677 6.62829 9.37626 6.62829C8.68482 6.62829 8.01998 6.89481 7.52001 7.37243L4.44501 10.4474C4.33756 10.5512 4.25186 10.6753 4.1929 10.8126C4.13394 10.9499 4.1029 11.0975 4.1016 11.2469C4.10031 11.3962 4.12877 11.5444 4.18534 11.6826C4.2419 11.8209 4.32544 11.9465 4.43107 12.0521C4.5367 12.1578 4.6623 12.2413 4.80056 12.2979C4.93882 12.3544 5.08696 12.3829 5.23634 12.3816C5.38571 12.3803 5.53334 12.3493 5.67059 12.2903C5.80785 12.2313 5.93198 12.1456 6.03576 12.0382L9.11076 8.96318C9.1456 8.92826 9.18698 8.90055 9.23254 8.88165C9.2781 8.86274 9.32694 8.85301 9.37626 8.85301C9.42559 8.85301 9.47443 8.86274 9.51999 8.88165C9.56555 8.90055 9.60693 8.92826 9.64176 8.96318L9.76926 9.09068C10.2694 9.56797 10.9342 9.83426 11.6255 9.83426C12.3168 9.83426 12.9816 9.56797 13.4818 9.09068L16.1713 6.40193L16.7203 6.95168C16.8251 7.0568 16.9588 7.12843 17.1044 7.1575C17.25 7.18658 17.4009 7.17179 17.5381 7.115C17.6753 7.05822 17.7925 6.962 17.875 6.83853C17.9574 6.71506 18.0014 6.5699 18.0013 6.42143V4.10693C18.0013 3.80856 17.8827 3.52242 17.6718 3.31144C17.4608 3.10046 17.1746 2.98193 16.8763 2.98193Z" fill="#F4E724"/>
</g>
<defs>
<clipPath id="clip0_1121_6208">
<rect width="18" height="18" fill="white"/>
</clipPath>
</defs>
</svg>
