<svg width="24" height="24" viewBox="0 0 24 24" fill="none" xmlns="http://www.w3.org/2000/svg">
<path d="M11.9991 10C13.0991 10 13.9991 10.9 13.9991 12C13.9991 13.1 13.0991 14 11.9991 14C10.8991 14 9.99906 13.1 9.99906 12C9.99906 10.9 10.8991 10 11.9991 10ZM20.4891 20.49C25.1691 15.81 25.1691 8.20004 20.4891 3.52004C20.0991 3.13004 19.4691 3.13004 19.0791 3.52004C18.6891 3.91004 18.6891 4.54004 19.0791 4.93004C22.9791 8.83004 22.9791 15.17 19.0791 19.07C18.6891 19.46 18.6891 20.09 19.0791 20.48C19.2791 20.68 19.5291 20.77 19.7891 20.77C20.0491 20.77 20.2991 20.67 20.4991 20.48L20.4891 20.49ZM16.9491 16.95C18.2691 15.63 18.9991 13.87 18.9991 12C18.9991 10.13 18.2691 8.37004 16.9491 7.05004C16.5591 6.66004 15.9291 6.66004 15.5391 7.05004C15.1491 7.44004 15.1491 8.07004 15.5391 8.46004C16.4791 9.40004 16.9991 10.66 16.9991 12C16.9991 13.34 16.4791 14.59 15.5391 15.54C15.1491 15.93 15.1491 16.56 15.5391 16.95C15.7391 17.15 15.9891 17.24 16.2491 17.24C16.5091 17.24 16.7591 17.14 16.9591 16.95H16.9491ZM4.92906 20.49C5.31906 20.1 5.31906 19.47 4.92906 19.08C1.02906 15.18 1.02906 8.84004 4.92906 4.94004C5.31906 4.55004 5.31906 3.92004 4.92906 3.53004C4.53906 3.14004 3.90906 3.14004 3.51906 3.53004C-1.16094 8.19004 -1.16094 15.81 3.50906 20.49C3.70906 20.69 3.95906 20.78 4.21906 20.78C4.47906 20.78 4.72906 20.68 4.92906 20.49ZM8.46906 16.95C8.85906 16.56 8.85906 15.93 8.46906 15.54C6.51906 13.59 6.51906 10.42 8.46906 8.47004C8.85906 8.08004 8.85906 7.45004 8.46906 7.06004C8.07906 6.67004 7.44906 6.67004 7.05906 7.06004C4.32906 9.79004 4.32906 14.23 7.05906 16.96C7.25906 17.16 7.50906 17.25 7.76906 17.25C8.02906 17.25 8.27906 17.15 8.47906 16.96L8.46906 16.95Z" fill="black"/>
</svg>
