<svg width="20" height="20" viewBox="0 0 20 20" fill="none" xmlns="http://www.w3.org/2000/svg">
<path d="M12.2557 0H3.74984C2.60067 0 1.6665 0.935 1.6665 2.08333V20H18.3332V6.0775L12.2557 0ZM12.4998 1.4225L16.9107 5.83333H12.4998V1.4225ZM2.49984 19.1667V2.08333C2.49984 1.39417 3.06067 0.833333 3.74984 0.833333H11.6665V6.66667H17.4998V19.1667H2.49984ZM13.2532 12.9325L13.8423 13.5217L11.1732 16.1908C10.8532 16.5108 10.4323 16.6708 10.0115 16.6708C9.59067 16.6708 9.16984 16.5108 8.84984 16.1908L6.1815 13.5217L6.77067 12.9325L9.439 15.6017C9.4865 15.6492 9.539 15.69 9.59484 15.7233V9.16667H10.4282V15.7233C10.4832 15.69 10.5357 15.65 10.584 15.6017L13.2532 12.9325Z" fill="black"/>
</svg>
