<svg width="20" height="20" viewBox="0 0 20 20" fill="none" xmlns="http://www.w3.org/2000/svg">
<g clip-path="url(#clip0_1334_385)">
<path d="M14.6876 13.229C14.7693 13.3107 14.8759 13.3507 14.9826 13.3507C15.0893 13.3507 15.1959 13.3098 15.2776 13.229C15.4401 13.0665 15.4401 12.8023 15.2776 12.6398L12.9676 10.3298C12.7776 10.1398 12.5251 10.0473 12.2651 10.0107C12.2101 9.98401 12.1501 9.96484 12.0843 9.96484C12.0184 9.96484 11.9584 9.98318 11.9034 10.0107C11.6434 10.0473 11.3909 10.1398 11.2009 10.3298L8.89092 12.6398C8.72842 12.8023 8.72842 13.0665 8.89092 13.229C9.05342 13.3915 9.31759 13.3915 9.48009 13.229L11.6676 11.0407V19.5832C11.6676 19.8132 11.8543 19.9998 12.0843 19.9998C12.3143 19.9998 12.5009 19.8132 12.5009 19.5832V11.0407L14.6876 13.229Z" fill="black"/>
<path d="M15.4252 6.17332C15.0602 6.05248 14.781 5.77248 14.6594 5.40415C13.6302 2.29332 10.5202 0.406649 7.25602 0.918315C4.61519 1.33332 2.44019 3.35748 1.84435 5.95582C1.55102 7.23332 1.62602 8.54332 2.05935 9.74498C2.22435 10.2025 2.06352 10.7208 1.64852 11.0666C0.504355 12.0208 -0.105645 13.4792 0.0160216 14.9683C0.208522 17.3225 2.29602 19.1667 4.76852 19.1667H9.58352C9.81352 19.1667 10.0002 18.98 10.0002 18.75C10.0002 18.52 9.81352 18.3333 9.58352 18.3333H4.76852C2.72686 18.3333 1.00435 16.825 0.846855 14.9C0.745188 13.6633 1.23185 12.4983 2.18269 11.7058C2.86935 11.1325 3.12935 10.2525 2.84269 9.46165C2.46352 8.41082 2.39935 7.26332 2.65602 6.14165C3.17685 3.87248 5.07685 2.10415 7.38519 1.74248C10.2394 1.29165 12.9669 2.94415 13.8685 5.66748C14.0735 6.28832 14.546 6.76082 15.1644 6.96582C17.5585 7.75582 19.1677 9.98082 19.1677 12.5016C19.1677 15.265 17.2052 17.6692 14.501 18.2175C14.2752 18.2633 14.1302 18.4833 14.1752 18.7092C14.221 18.935 14.4394 19.0825 14.6669 19.035C17.7569 18.4075 20.0002 15.66 20.0002 12.5016C20.0002 9.62082 18.161 7.07832 15.4252 6.17498V6.17332Z" fill="black"/>
</g>
<defs>
<clipPath id="clip0_1334_385">
<rect width="20" height="20" fill="white"/>
</clipPath>
</defs>
</svg>
