<svg width="20" height="20" viewBox="0 0 20 20" fill="none" xmlns="http://www.w3.org/2000/svg">
<g clip-path="url(#clip0_1121_6206)">
<path d="M15.8345 20H14.1679C13.7079 20 13.3345 19.6267 13.3345 19.1667C13.3345 18.7067 13.7079 18.3333 14.1679 18.3333H15.8345C16.2945 18.3333 16.6679 18.7067 16.6679 19.1667C16.6679 19.6267 16.2945 20 15.8345 20ZM10.8345 20H9.16787C8.70787 20 8.33453 19.6267 8.33453 19.1667C8.33453 18.7067 8.70787 18.3333 9.16787 18.3333H10.8345C11.2945 18.3333 11.6679 18.7067 11.6679 19.1667C11.6679 19.6267 11.2945 20 10.8345 20ZM18.7037 18.6608C18.5487 18.6608 18.3929 18.6183 18.2529 18.5275C17.8662 18.2783 17.7545 17.7625 18.0045 17.3758C18.2204 17.0417 18.3345 16.6517 18.3345 16.25C18.3345 15.79 18.7079 15.4167 19.1679 15.4167C19.6287 15.4167 20.0012 15.79 20.0012 16.25C20.0012 16.9733 19.7945 17.6742 19.4054 18.2783C19.2462 18.525 18.9779 18.66 18.7045 18.66L18.7037 18.6608ZM17.4629 14.43C17.347 14.43 17.2287 14.4058 17.1162 14.3542C16.8445 14.23 16.5529 14.1667 16.2495 14.1667H15.8337C15.3737 14.1667 15.0004 13.7933 15.0004 13.3333C15.0004 12.8733 15.3737 12.5 15.8337 12.5H16.2504C16.7945 12.5 17.3187 12.6142 17.8095 12.8392C18.2279 13.03 18.412 13.525 18.2204 13.9433C18.0804 14.2492 17.7779 14.43 17.462 14.43H17.4629ZM12.5012 14.1667C11.7562 14.1667 11.0245 13.9133 10.4404 13.4533C10.0787 13.1683 10.0162 12.6442 10.3012 12.2833C10.5862 11.9217 11.1112 11.8592 11.4712 12.1442C11.767 12.3767 12.1229 12.5 12.5004 12.5C12.9604 12.5 13.3337 12.8733 13.3337 13.3333C13.3337 13.7933 12.9612 14.1667 12.5004 14.1667H12.5012ZM10.2262 10.6283C10.1104 10.6283 9.99287 10.6042 9.88037 10.5525C9.46203 10.3617 9.27703 9.86667 9.4687 9.44833C9.64537 9.06167 9.89203 8.71583 10.2012 8.42083C10.5329 8.10417 11.062 8.11583 11.3795 8.44917C11.697 8.78167 11.6845 9.30917 11.3512 9.6275C11.1962 9.775 11.0737 9.94833 10.9854 10.1417C10.8454 10.4483 10.5429 10.6292 10.227 10.6292L10.2262 10.6283ZM18.7812 1.22C17.9937 0.433333 16.947 0 15.8345 0C14.722 0 13.6754 0.433333 12.8879 1.22C11.2637 2.845 11.2637 5.48833 12.8945 7.11917L14.3954 8.58667C14.792 8.975 15.3137 9.16917 15.8345 9.16917C16.3554 9.16917 16.877 8.975 17.2737 8.58667L18.7812 7.1125C20.4054 5.4875 20.4054 2.84417 18.7812 1.22ZM15.8345 5.41667C15.1445 5.41667 14.5845 4.85667 14.5845 4.16667C14.5845 3.47667 15.1445 2.91667 15.8345 2.91667C16.5245 2.91667 17.0845 3.47667 17.0845 4.16667C17.0845 4.85667 16.5245 5.41667 15.8345 5.41667ZM7.1137 12.0533C6.32703 11.2667 5.28037 10.8333 4.16787 10.8333C3.05537 10.8333 2.0087 11.2667 1.2212 12.0533C-0.402967 13.6783 -0.402967 16.3217 1.22787 17.9525L2.7287 19.42C3.12537 19.8083 3.64703 20.0025 4.16787 20.0025C4.6887 20.0025 5.21037 19.8083 5.60703 19.42L7.1137 17.9458C8.7387 16.3208 8.7387 13.6775 7.1137 12.0533ZM4.16787 16.25C3.47787 16.25 2.91787 15.69 2.91787 15C2.91787 14.31 3.47787 13.75 4.16787 13.75C4.85787 13.75 5.41787 14.31 5.41787 15C5.41787 15.69 4.85787 16.25 4.16787 16.25Z" fill="#F4E724"/>
</g>
<defs>
<clipPath id="clip0_1121_6206">
<rect width="20" height="20" fill="white"/>
</clipPath>
</defs>
</svg>
