<svg width="20" height="20" viewBox="0 0 20 20" fill="none" xmlns="http://www.w3.org/2000/svg">
<g clip-path="url(#clip0_1343_453)">
<path d="M2.08333 15C0.935 15 0 15.935 0 17.0834C0 18.2317 0.935 19.1667 2.08333 19.1667C3.23167 19.1667 4.16667 18.2317 4.16667 17.0834C4.16667 15.935 3.23167 15 2.08333 15ZM2.08333 18.3334C1.39417 18.3334 0.833333 17.7725 0.833333 17.0834C0.833333 16.3942 1.39417 15.8334 2.08333 15.8334C2.7725 15.8334 3.33333 16.3942 3.33333 17.0834C3.33333 17.7725 2.7725 18.3334 2.08333 18.3334ZM17.9167 5.00003C19.065 5.00003 20 4.06503 20 2.91669C20 1.76836 19.065 0.833359 17.9167 0.833359C16.7683 0.833359 15.8333 1.76836 15.8333 2.91669C15.8333 4.06503 16.7683 5.00003 17.9167 5.00003ZM17.9167 1.66669C18.6058 1.66669 19.1667 2.22753 19.1667 2.91669C19.1667 3.60586 18.6058 4.16669 17.9167 4.16669C17.2275 4.16669 16.6667 3.60586 16.6667 2.91669C16.6667 2.22753 17.2275 1.66669 17.9167 1.66669ZM15 10H3.75C1.6825 10 0 8.31753 0 6.25003C0 4.18253 1.6825 2.50003 3.75 2.50003H12.9992L11.0942 0.595026L11.6833 0.00585938L13.8867 2.20919C14.2917 2.61419 14.2917 3.27419 13.8867 3.67919L11.6833 5.88253L11.0942 5.29336L13.0533 3.33419H3.75C2.14167 3.33419 0.833333 4.64253 0.833333 6.25086C0.833333 7.85919 2.14167 9.16753 3.75 9.16753H15C16.8383 9.16753 18.3333 10.6625 18.3333 12.5009V13.3342H17.5V12.5009C17.5 11.1225 16.3783 10.0009 15 10.0009V10ZM17.9167 15C16.7683 15 15.8333 15.935 15.8333 17.0834C15.8333 18.2317 16.7683 19.1667 17.9167 19.1667C19.065 19.1667 20 18.2317 20 17.0834C20 15.935 19.065 15 17.9167 15ZM17.9167 18.3334C17.2275 18.3334 16.6667 17.7725 16.6667 17.0834C16.6667 16.3942 17.2275 15.8334 17.9167 15.8334C18.6058 15.8334 19.1667 16.3942 19.1667 17.0834C19.1667 17.7725 18.6058 18.3334 17.9167 18.3334ZM13.8867 16.375C14.2917 16.78 14.2917 17.44 13.8867 17.845L11.6833 20.0484L11.0942 19.4592L13.0533 17.5H5.83333V16.6667H12.9992L11.0942 14.7617L11.6833 14.1725L13.8867 16.375Z" fill="black"/>
</g>
<defs>
<clipPath id="clip0_1343_453">
<rect width="20" height="20" fill="white"/>
</clipPath>
</defs>
</svg>
