<svg width="20" height="20" viewBox="0 0 20 20" fill="none" xmlns="http://www.w3.org/2000/svg">
<g clip-path="url(#clip0_1334_413)">
<path d="M16.25 3.33333H14.9575C14.7475 1.46333 13.175 0 11.25 0H8.75C6.825 0 5.2525 1.46333 5.0425 3.33333H3.75C1.6825 3.33333 0 5.01583 0 7.08333V16.25C0 18.3175 1.6825 20 3.75 20H16.25C18.3175 20 20 18.3175 20 16.25V7.08333C20 5.01583 18.3175 3.33333 16.25 3.33333ZM8.75 0.833333H11.25C12.715 0.833333 13.92 1.92333 14.1242 3.33333H5.87583C6.08 1.92333 7.285 0.833333 8.75 0.833333ZM3.75 4.16667H16.25C17.8583 4.16667 19.1667 5.475 19.1667 7.08333V10H0.833333V7.08333C0.833333 5.475 2.14167 4.16667 3.75 4.16667ZM16.25 19.1667H3.75C2.14167 19.1667 0.833333 17.8583 0.833333 16.25V10.8333H9.58333V12.0833C9.58333 12.3133 9.77 12.5 10 12.5C10.23 12.5 10.4167 12.3133 10.4167 12.0833V10.8333H19.1667V16.25C19.1667 17.8583 17.8583 19.1667 16.25 19.1667Z" fill="black"/>
</g>
<defs>
<clipPath id="clip0_1334_413">
<rect width="20" height="20" fill="white"/>
</clipPath>
</defs>
</svg>
