<svg width="24" height="24" viewBox="0 0 24 24" fill="none" xmlns="http://www.w3.org/2000/svg">
<g clip-path="url(#clip0_1121_6451)">
<path d="M24 10V19C24 21.76 21.76 24 19 24H5C2.24 24 0 21.76 0 19V8C0 5.24 2.24 3 5 3H13C13.55 3 14 3.45 14 4C14 4.55 13.55 5 13 5H5C3.85 5 2.86 5.65 2.35 6.59L9.88 14.12C11.05 15.29 12.95 15.29 14.12 14.12L17.94 10.3C18.33 9.91 18.96 9.91 19.35 10.3C19.74 10.69 19.74 11.32 19.35 11.71L15.53 15.53C14.56 16.5 13.27 16.99 11.99 16.99C10.71 16.99 9.43 16.5 8.45 15.53L2 9.07V19C2 20.65 3.35 22 5 22H19C20.65 22 22 20.65 22 19V10C22 9.45 22.45 9 23 9C23.55 9 24 9.45 24 10ZM16 4C16 1.79 17.79 0 20 0C22.21 0 24 1.79 24 4C24 6.21 22.21 8 20 8C17.79 8 16 6.21 16 4ZM18 4C18 5.1 18.9 6 20 6C21.1 6 22 5.1 22 4C22 2.9 21.1 2 20 2C18.9 2 18 2.9 18 4Z" fill="black"/>
</g>
<defs>
<clipPath id="clip0_1121_6451">
<rect width="24" height="24" fill="white"/>
</clipPath>
</defs>
</svg>
