<svg width="24" height="24" viewBox="0 0 24 24" fill="none" xmlns="http://www.w3.org/2000/svg">
<path d="M14.414 0H5C4.20435 0 3.44129 0.31607 2.87868 0.87868C2.31607 1.44129 2 2.20435 2 3V24H22V7.586L14.414 0ZM15 3.414L18.586 7H15V3.414ZM4 22V3C4 2.73478 4.10536 2.48043 4.29289 2.29289C4.48043 2.10536 4.73478 2 5 2H13V9H20V22H4ZM15.293 13.122L16.707 14.536L13.121 18.121C12.8424 18.3996 12.5117 18.6207 12.1477 18.7715C11.7837 18.9222 11.3935 18.9999 10.9995 18.9999C10.6055 18.9999 10.2153 18.9222 9.85133 18.7715C9.48732 18.6207 9.15658 18.3996 8.878 18.121L7.293 16.536L8.707 15.122L10.293 16.707C10.4834 16.889 10.7366 16.9906 11 16.9906C11.2634 16.9906 11.5166 16.889 11.707 16.707L15.293 13.122Z" fill="black"/>
</svg>
