<svg width="20" height="20" viewBox="0 0 20 20" fill="none" xmlns="http://www.w3.org/2000/svg">
<g clip-path="url(#clip0_1343_443)">
<path d="M2.91649 5C2.35982 5 1.83649 4.78333 1.44316 4.39L0.138989 3.2275C-0.0335108 3.07416 -0.0485108 2.81083 0.104823 2.63916C0.258156 2.46666 0.521489 2.4525 0.693156 2.605L2.01482 3.78333C2.52149 4.2875 3.32816 4.27166 3.79982 3.8L6.79566 0.947498C6.96149 0.789998 7.22482 0.794998 7.38482 0.962498C7.54316 1.12916 7.53732 1.39333 7.36982 1.55166L4.38149 4.39666C3.99566 4.7825 3.47316 5 2.91649 5ZM19.9998 3.75C19.9998 3.52 19.8132 3.33333 19.5832 3.33333H10.4165C10.1865 3.33333 9.99982 3.52 9.99982 3.75C9.99982 3.98 10.1865 4.16666 10.4165 4.16666H19.5832C19.8132 4.16666 19.9998 3.98 19.9998 3.75ZM4.38232 11.0633L7.37066 8.21833C7.53732 8.06 7.54399 7.79583 7.38566 7.62916C7.22566 7.4625 6.96232 7.45583 6.79649 7.61416L3.80066 10.4667C3.32899 10.9383 2.50482 10.9383 2.03316 10.4667L0.711489 9.14583C0.548989 8.98333 0.284823 8.98333 0.122323 9.14583C-0.0401774 9.30833 -0.0401774 9.5725 0.122323 9.735L1.44399 11.0558C1.83732 11.4492 2.36066 11.6658 2.91732 11.6658C3.47399 11.6658 3.99732 11.4492 4.38316 11.0625L4.38232 11.0633ZM19.9998 10.4167C19.9998 10.1867 19.8132 10 19.5832 10H10.4165C10.1865 10 9.99982 10.1867 9.99982 10.4167C9.99982 10.6467 10.1865 10.8333 10.4165 10.8333H19.5832C19.8132 10.8333 19.9998 10.6467 19.9998 10.4167ZM4.38232 17.73L7.37066 14.885C7.53732 14.7267 7.54399 14.4625 7.38566 14.2958C7.22566 14.1292 6.96232 14.1233 6.79649 14.2808L3.80066 17.1333C3.32899 17.605 2.52232 17.6217 2.01566 17.1167L0.693989 15.9383C0.522323 15.785 0.259823 15.8 0.105656 15.9725C-0.0485108 16.145 -0.0326774 16.4075 0.139823 16.5608L1.44399 17.7233C1.83732 18.1167 2.36066 18.3333 2.91732 18.3333C3.47399 18.3333 3.99732 18.1167 4.38316 17.73H4.38232ZM19.9998 17.0833C19.9998 16.8533 19.8132 16.6667 19.5832 16.6667H10.4165C10.1865 16.6667 9.99982 16.8533 9.99982 17.0833C9.99982 17.3133 10.1865 17.5 10.4165 17.5H19.5832C19.8132 17.5 19.9998 17.3133 19.9998 17.0833Z" fill="black"/>
</g>
<defs>
<clipPath id="clip0_1343_443">
<rect width="20" height="20" fill="white"/>
</clipPath>
</defs>
</svg>
