<svg width="20" height="20" viewBox="0 0 20 20" fill="none" xmlns="http://www.w3.org/2000/svg">
<path d="M10.2546 20H6.72623L8.41539 13.3333H5.80289C5.41374 13.3337 5.02989 13.243 4.68212 13.0684C4.33435 12.8937 4.03232 12.6401 3.80023 12.3277C3.56813 12.0153 3.41244 11.6529 3.34561 11.2696C3.27878 10.8862 3.30268 10.4925 3.41539 10.12L7.03456 0H15.0562L12.6887 5.83333H15.0287C15.4748 5.83392 15.9124 5.95537 16.2949 6.18477C16.6775 6.41418 16.9907 6.74296 17.2013 7.13617C17.412 7.52938 17.5121 7.97232 17.4911 8.41789C17.4701 8.86346 17.3287 9.29501 17.0821 9.66667L10.2546 20ZM11.6237 10.8333L10.5746 14.9825L14.9987 8.28583L8.97539 8.33333L11.3437 2.5H8.79623L5.79123 10.9025L11.6237 10.8333Z" fill="#F4E724"/>
</svg>
