<svg width="150" height="150" viewBox="0 0 150 150" fill="none" xmlns="http://www.w3.org/2000/svg">
<path d="M121.875 6.25H28.125C12.6188 6.25 0 18.8688 0 34.375V115.625C0 131.131 12.6188 143.75 28.125 143.75H121.875C137.381 143.75 150 131.131 150 115.625V34.375C150 18.8688 137.381 6.25 121.875 6.25ZM28.125 12.5H121.875C133.938 12.5 143.75 22.3125 143.75 34.375V50H6.25V34.375C6.25 22.3125 16.0625 12.5 28.125 12.5ZM121.875 137.5H28.125C16.0625 137.5 6.25 127.688 6.25 115.625V56.25H143.75V115.625C143.75 127.688 133.938 137.5 121.875 137.5ZM18.75 31.25C18.75 27.8 21.55 25 25 25C28.45 25 31.25 27.8 31.25 31.25C31.25 34.7 28.45 37.5 25 37.5C21.55 37.5 18.75 34.7 18.75 31.25ZM37.5 31.25C37.5 27.8 40.3 25 43.75 25C47.2 25 50 27.8 50 31.25C50 34.7 47.2 37.5 43.75 37.5C40.3 37.5 37.5 34.7 37.5 31.25ZM56.25 31.25C56.25 27.8 59.05 25 62.5 25C65.95 25 68.75 27.8 68.75 31.25C68.75 34.7 65.95 37.5 62.5 37.5C59.05 37.5 56.25 34.7 56.25 31.25ZM108.463 74.0875L99.7375 82.8125L108.463 91.5375C109.681 92.7562 109.681 94.7375 108.463 95.9562C107.85 96.5687 107.05 96.8687 106.25 96.8687C105.45 96.8687 104.65 96.5625 104.037 95.9562L95.3125 87.2312L86.5875 95.9562C85.975 96.5687 85.175 96.8687 84.375 96.8687C83.575 96.8687 82.775 96.5625 82.1625 95.9562C80.9437 94.7375 80.9437 92.7562 82.1625 91.5375L90.8875 82.8125L82.1625 74.0875C80.9437 72.8688 80.9437 70.8875 82.1625 69.6688C83.3812 68.45 85.3625 68.45 86.5812 69.6688L95.3062 78.3938L104.031 69.6688C105.25 68.45 107.231 68.45 108.45 69.6688C109.669 70.8875 109.669 72.8688 108.45 74.0875H108.463ZM54.6875 87.2375L45.9625 95.9625C45.35 96.575 44.55 96.875 43.75 96.875C42.95 96.875 42.15 96.5687 41.5375 95.9625C40.3187 94.7438 40.3187 92.7625 41.5375 91.5438L50.2625 82.8188L41.5375 74.0938C40.3187 72.875 40.3187 70.8937 41.5375 69.675C42.7562 68.4562 44.7375 68.4562 45.9562 69.675L54.6812 78.4L63.4063 69.675C64.625 68.4562 66.6063 68.4562 67.825 69.675C69.0438 70.8937 69.0438 72.875 67.825 74.0938L59.1 82.8188L67.825 91.5438C69.0438 92.7625 69.0438 94.7438 67.825 95.9625C67.2125 96.575 66.4125 96.875 65.6125 96.875C64.8125 96.875 64.0125 96.5687 63.4 95.9625L54.675 87.2375H54.6875ZM102.813 124.706C102.231 125.7 101.188 126.256 100.112 126.256C99.5812 126.256 99.0375 126.119 98.5438 125.831C82.4625 116.444 67.55 116.444 51.4687 125.831C49.9875 126.712 48.0688 126.2 47.1938 124.706C46.325 123.219 46.825 121.306 48.3187 120.431C66.3375 109.906 83.675 109.906 101.694 120.431C103.188 121.3 103.681 123.212 102.813 124.706Z" fill="#FA0F0F"/>
</svg>
