<svg width="24" height="24" viewBox="0 0 24 24" fill="none" xmlns="http://www.w3.org/2000/svg">
<path d="M2 6.09095H3.849C4.155 7.79595 5.309 8.65895 7.292 8.65895C9.275 8.65895 10.429 7.79595 10.734 6.09095H22C22.552 6.09095 23 5.64295 23 5.09095C23 4.53895 22.552 4.09095 22 4.09095H10.734C10.428 2.38595 9.275 1.52295 7.292 1.52295C5.309 1.52295 4.155 2.38595 3.849 4.09095H2C1.448 4.09095 1 4.53895 1 5.09095C1 5.64295 1.448 6.09095 2 6.09095ZM7.292 3.52195C8.436 3.52195 8.817 3.74895 8.817 5.08995C8.817 6.42195 8.418 6.65795 7.292 6.65795C6.147 6.65795 5.767 6.43095 5.767 5.08995C5.767 3.75795 6.167 3.52195 7.292 3.52195Z" fill="black"/>
<path d="M22 11.0001H20.151C19.845 9.29513 18.691 8.43213 16.708 8.43213C14.725 8.43213 13.571 9.29513 13.266 11.0001H2C1.448 11.0001 1 11.4481 1 12.0001C1 12.5521 1.448 13.0001 2 13.0001H13.266C13.572 14.7051 14.725 15.5681 16.708 15.5681C18.691 15.5681 19.845 14.7051 20.151 13.0001H22C22.552 13.0001 23 12.5521 23 12.0001C23 11.4481 22.552 11.0001 22 11.0001ZM16.708 13.5681C15.564 13.5681 15.183 13.3411 15.183 12.0001C15.183 10.6681 15.582 10.4321 16.708 10.4321C17.853 10.4321 18.233 10.6591 18.233 12.0001C18.233 13.3311 17.833 13.5681 16.708 13.5681Z" fill="black"/>
<path d="M22 17.9088H10.734C10.428 16.2038 9.275 15.3408 7.292 15.3408C5.309 15.3408 4.155 16.2038 3.849 17.9088H2C1.448 17.9088 1 18.3558 1 18.9088C1 19.4618 1.448 19.9088 2 19.9088H3.849C4.155 21.6138 5.308 22.4768 7.292 22.4768C9.276 22.4768 10.429 21.6138 10.734 19.9088H22C22.552 19.9088 23 19.4618 23 18.9088C23 18.3558 22.552 17.9088 22 17.9088ZM7.292 20.4768C6.147 20.4768 5.767 20.2498 5.767 18.9088C5.767 17.5778 6.167 17.3408 7.292 17.3408C8.436 17.3408 8.817 17.5678 8.817 18.9088C8.817 20.2398 8.418 20.4768 7.292 20.4768Z" fill="black"/>
</svg>
