<svg width="20" height="20" viewBox="0 0 20 20" fill="none" xmlns="http://www.w3.org/2000/svg">
<g clip-path="url(#clip0_1121_6311)">
<path d="M19.1694 17.9878H19.3586L18.9961 17.4395C19.2178 17.4395 19.3353 17.2986 19.3369 17.1261C19.3369 17.1195 19.3369 17.112 19.3361 17.1053C19.3361 16.8703 19.1944 16.7578 18.9036 16.7578H18.4336V17.9878H18.6103V17.452H18.8278L19.1694 17.9878ZM18.8153 17.3128H18.6103V16.897H18.8703C19.0044 16.897 19.1578 16.9186 19.1578 17.0945C19.1578 17.2961 19.0036 17.3128 18.8153 17.3128Z" fill="black"/>
<path d="M14.4092 15.8946H11.9033V11.9705C11.9033 11.0346 11.8867 9.83047 10.6 9.83047C9.295 9.83047 9.095 10.8496 9.095 11.903V15.8946H6.59V7.82463H8.99583V8.92713H9.02917C9.52 8.0888 10.4317 7.58797 11.4025 7.6238C13.9425 7.6238 14.41 9.29463 14.41 11.4671L14.4092 15.8946ZM3.7625 6.7213C2.95917 6.7213 2.30833 6.07047 2.30833 5.26713C2.30833 4.4638 2.95917 3.81297 3.7625 3.81297C4.56583 3.81297 5.21667 4.4638 5.21667 5.26713C5.21667 6.07047 4.56583 6.7213 3.7625 6.7213ZM5.015 15.8946H2.50667V7.82463H5.015V15.8946ZM15.6583 1.4863H1.2475C0.566667 1.4788 0.00833333 2.02463 0 2.70547V17.1755C0.00833333 17.8571 0.566667 18.403 1.2475 18.3955H15.6583C16.3408 18.4038 16.9017 17.858 16.9108 17.1755V2.70463C16.9008 2.02213 16.34 1.4763 15.6583 1.48547" fill="black"/>
<path d="M18.837 16.209C18.2004 16.2148 17.6887 16.7365 17.6954 17.3732C17.7012 18.0098 18.2229 18.5215 18.8595 18.5148C19.4962 18.509 20.0079 17.9873 20.0012 17.3507C19.9954 16.7223 19.487 16.2148 18.8595 16.209H18.837ZM18.8637 18.3823C18.3054 18.3915 17.8187 17.9473 17.8095 17.389C17.8004 16.8307 18.2454 16.3707 18.8037 16.3615C19.362 16.3523 19.822 16.7973 19.8312 17.3557C19.8312 17.3615 19.8312 17.3665 19.8312 17.3723C19.8429 17.9182 19.4095 18.3707 18.8637 18.3823H18.8379H18.8637Z" fill="black"/>
</g>
<defs>
<clipPath id="clip0_1121_6311">
<rect width="20" height="20" fill="white"/>
</clipPath>
</defs>
</svg>
