<svg width="24" height="25" viewBox="0 0 24 25" fill="none" xmlns="http://www.w3.org/2000/svg">
<path d="M11.5634 3.44906C11.6066 3.37014 11.67 3.30433 11.747 3.25849C11.8241 3.21266 11.9119 3.18848 12.0014 3.18848C12.0909 3.18848 12.1787 3.21266 12.2558 3.25849C12.3328 3.30433 12.3962 3.37014 12.4394 3.44906L15.3914 9.09067C15.4618 9.2213 15.5601 9.33462 15.6791 9.4225C15.7982 9.51037 15.9351 9.57062 16.08 9.59892C16.2249 9.62721 16.3743 9.62285 16.5173 9.58615C16.6604 9.54945 16.7936 9.48131 16.9074 9.38664L21.1844 5.69805C21.2665 5.63082 21.3677 5.59156 21.4734 5.5859C21.579 5.58025 21.6838 5.6085 21.7725 5.66659C21.8612 5.72468 21.9293 5.8096 21.9671 5.90915C22.0048 6.00869 22.0102 6.11772 21.9824 6.22053L19.1484 16.5353C19.0906 16.7464 18.9659 16.9327 18.7934 17.066C18.6209 17.1994 18.4099 17.2725 18.1924 17.2742H5.8114C5.59374 17.2727 5.38251 17.1997 5.20979 17.0664C5.03707 16.933 4.9123 16.7465 4.8544 16.5353L2.0214 6.22154C1.99365 6.11873 1.99902 6.0097 2.03674 5.91016C2.07446 5.81061 2.14258 5.72568 2.2313 5.66759C2.32002 5.60951 2.42476 5.58126 2.53044 5.58691C2.63612 5.59257 2.7373 5.63183 2.8194 5.69906L7.0954 9.38765C7.2092 9.48232 7.34241 9.55045 7.48546 9.58716C7.62852 9.62386 7.77787 9.62822 7.9228 9.59992C8.06773 9.57163 8.20464 9.51138 8.32369 9.42351C8.44275 9.33563 8.541 9.22231 8.6114 9.09168L11.5634 3.44906Z" stroke="#F4E724" stroke-width="2" stroke-linecap="round" stroke-linejoin="round"/>
<path d="M5 21.3022H19" stroke="#F4E724" stroke-width="2" stroke-linecap="round" stroke-linejoin="round"/>
</svg>
