<svg width="20" height="20" viewBox="0 0 20 20" fill="none" xmlns="http://www.w3.org/2000/svg">
<g clip-path="url(#clip0_1121_6197)">
<path d="M8.21334 17.2858C6.84728 16.9507 5.60298 16.2383 4.62251 15.2298C3.64204 14.2213 2.96492 12.9574 2.66847 11.5824C2.37203 10.2075 2.46819 8.77688 2.94599 7.45397C3.4238 6.13106 4.26398 4.96918 5.3706 4.10098C6.47722 3.23278 7.80568 2.69327 9.20429 2.54404C10.6029 2.39481 12.0153 2.64188 13.2802 3.25705C14.5451 3.87221 15.6115 4.83067 16.3577 6.02298C17.1038 7.2153 17.4997 8.59341 17.5 9.99995C17.5 10.3315 17.6317 10.6494 17.8661 10.8838C18.1005 11.1183 18.4185 11.25 18.75 11.25C19.0815 11.25 19.3995 11.1183 19.6339 10.8838C19.8683 10.6494 20 10.3315 20 9.99995C19.9997 8.12442 19.472 6.28678 18.4771 4.69687C17.4822 3.10697 16.0602 1.82889 14.3736 1.00861C12.687 0.188326 10.8036 -0.141102 8.93871 0.0579468C7.07377 0.256995 5.3024 0.976496 3.82689 2.13428C2.35137 3.29207 1.23119 4.84147 0.594277 6.60554C-0.0426399 8.36961 -0.170621 10.2772 0.22495 12.1106C0.620521 13.9439 1.5237 15.6291 2.83134 16.9736C4.13898 18.3181 5.79837 19.2677 7.62 19.7141C7.71705 19.7382 7.81669 19.7502 7.91667 19.75C8.22216 19.7496 8.51696 19.6374 8.74538 19.4346C8.9738 19.2317 9.12003 18.9523 9.15644 18.649C9.19286 18.3456 9.11693 18.0395 8.94302 17.7883C8.7691 17.5372 8.50924 17.3584 8.2125 17.2858H8.21334Z" fill="#F4E724"/>
<path d="M19.6838 13.2825C19.4494 13.0481 19.1315 12.9165 18.8001 12.9165C18.4686 12.9165 18.1507 13.0481 17.9163 13.2825L13.9288 17.2675L12.1513 15.3842C12.0376 15.2657 11.9017 15.1709 11.7514 15.105C11.601 15.0391 11.4391 15.0035 11.275 15.0001C11.1109 14.9968 10.9477 15.0259 10.7948 15.0856C10.6419 15.1453 10.5022 15.2346 10.3838 15.3483C10.2655 15.4621 10.1707 15.598 10.1049 15.7484C10.039 15.8988 10.0035 16.0607 10.0002 16.2248C9.99699 16.389 10.0261 16.5521 10.0859 16.705C10.1457 16.8579 10.2351 16.9975 10.3488 17.1158L12.4997 19.3833C12.6795 19.5737 12.8955 19.7264 13.135 19.8323C13.3745 19.9382 13.6328 19.9952 13.8947 20H13.9255C14.4443 19.9983 14.9416 19.7923 15.3097 19.4267L19.688 15.05C19.9218 14.815 20.0527 14.4968 20.0519 14.1654C20.0511 13.8339 19.9187 13.5163 19.6838 13.2825Z" fill="#F4E724"/>
<path d="M8.75074 6.25V9.2125L6.75074 10.4625C6.61157 10.5496 6.49092 10.6633 6.3957 10.7971C6.30048 10.9309 6.23255 11.0821 6.19579 11.2422C6.15903 11.4022 6.15416 11.5679 6.18146 11.7298C6.20877 11.8917 6.2677 12.0467 6.35491 12.1858C6.44205 12.325 6.55575 12.4457 6.68953 12.5409C6.8233 12.6361 6.97453 12.704 7.13457 12.7408C7.29461 12.7775 7.46032 12.7824 7.62224 12.7551C7.78416 12.7278 7.93911 12.6689 8.07824 12.5817L10.4691 11.0817C10.709 10.9314 10.9066 10.7224 11.0434 10.4746C11.1801 10.2267 11.2515 9.94808 11.2507 9.665V6.25C11.2507 5.91848 11.119 5.60054 10.8846 5.36612C10.6502 5.1317 10.3323 5 10.0007 5C9.66922 5 9.35128 5.1317 9.11686 5.36612C8.88244 5.60054 8.75074 5.91848 8.75074 6.25Z" fill="#F4E724"/>
</g>
<defs>
<clipPath id="clip0_1121_6197">
<rect width="20" height="20" fill="white"/>
</clipPath>
</defs>
</svg>
