<svg width="184" height="24" viewBox="0 0 184 24" fill="none" xmlns="http://www.w3.org/2000/svg">
<path d="M22.4749 5.54614H13.5309C12.8302 5.54614 12.2622 6.09226 12.2622 6.76594V8.7995C12.2622 9.47318 12.8302 10.0193 13.5309 10.0193H22.4749C23.1756 10.0193 23.7437 9.47318 23.7437 8.7995V6.76594C23.7437 6.09226 23.1756 5.54614 22.4749 5.54614Z" fill="#F4E724"/>
<path d="M37.1441 1.073H28.2001C27.4994 1.073 26.9314 1.61912 26.9314 2.29279V4.32636C26.9314 5.00003 27.4994 5.54616 28.2001 5.54616H37.1441C37.8448 5.54616 38.4129 5.00003 38.4129 4.32636V2.29279C38.4129 1.61912 37.8448 1.073 37.1441 1.073Z" fill="#F4E724"/>
<path d="M22.4749 15.1628H13.5309C12.8302 15.1628 12.2622 15.709 12.2622 16.3826V18.4162C12.2622 19.0899 12.8302 19.636 13.5309 19.636H22.4749C23.1756 19.636 23.7437 19.0899 23.7437 18.4162V16.3826C23.7437 15.709 23.1756 15.1628 22.4749 15.1628Z" fill="#F4E724"/>
<path d="M37.1441 19.6343H28.2001C27.4994 19.6343 26.9314 20.1804 26.9314 20.8541V22.8876C26.9314 23.5613 27.4994 24.1074 28.2001 24.1074H37.1441C37.8448 24.1074 38.4129 23.5613 38.4129 22.8876V20.8541C38.4129 20.1804 37.8448 19.6343 37.1441 19.6343Z" fill="#F4E724"/>
<path d="M46.1063 14.2972H28.3962C28.0009 14.2972 27.6792 13.8583 27.6792 13.3158V11.6779C27.6792 11.1354 28.0009 10.6965 28.3962 10.6965H46.1063C46.5017 10.6965 46.8234 11.1354 46.8234 11.6779V13.3158C46.8234 13.8583 46.5017 14.2972 46.1063 14.2972Z" fill="#F4E724"/>
<path d="M10.2127 10.2595H1.26873C0.56803 10.2595 0 10.8056 0 11.4793V13.5129C0 14.1866 0.56803 14.7327 1.26873 14.7327H10.2127C10.9134 14.7327 11.4815 14.1866 11.4815 13.5129V11.4793C11.4815 10.8056 10.9134 10.2595 10.2127 10.2595Z" fill="#F4E724"/>
<path d="M57.1731 0.561523H62.735C65.5834 0.561523 66.4154 1.40467 66.4154 4.06887C66.4154 6.73307 65.5834 7.57621 62.735 7.57621H59.2739V10.2041H57.1749V0.561523H57.1731ZM62.6416 5.52018C63.9301 5.52018 64.3362 5.2351 64.3362 4.07059C64.3362 2.90609 63.9301 2.62101 62.6416 2.62101H59.2739V5.52191H62.6416V5.52018Z" fill="white"/>
<path d="M68.8074 0.561523H77.3632V2.61928H70.9081V4.30557H77.02V6.28903H70.9081V8.1481H77.498V10.2059H68.8074V0.561523Z" fill="white"/>
<path d="M80.0752 0.561523H86.0001C88.64 0.561523 89.4307 1.40467 89.4307 3.56091C89.4307 5.01049 89.0767 5.80526 88.0793 6.17673V6.22683C89.1917 6.43762 89.4415 6.8471 89.4415 8.53166V10.2059H87.3425V8.90485C87.3425 7.65223 87.1664 7.18228 85.6371 7.18228H82.176V10.2076H80.077V0.561523H80.0752ZM85.7935 5.13489C86.9777 5.13489 87.3425 4.88609 87.3425 3.88227C87.3425 2.87844 86.9885 2.61755 85.7827 2.61755H82.176V5.13316H85.7935V5.13489Z" fill="white"/>
<path d="M92.116 0.561523H95.4118L98.6142 7.75071H98.6249L101.827 0.561523H105.06V10.2059H102.981V2.85425H102.959L99.6852 10.2059H97.4712L94.2167 2.85425H94.1952V10.2059H92.116V0.561523Z" fill="white"/>
<path d="M107.863 0.561523H109.973V10.2059H107.863V0.561523Z" fill="white"/>
<path d="M113.259 9.69816C112.699 9.26449 112.542 8.59412 112.542 7.41752V7.15663H114.663V7.19464C114.663 7.77689 114.736 7.99977 115.017 8.17427C115.297 8.34705 115.953 8.42307 117.398 8.42307C119.062 8.42307 119.549 8.33668 119.81 8.1881C120.09 8.02742 120.164 7.84082 120.164 7.38296C120.164 6.96139 120.07 6.72642 119.82 6.57783C119.571 6.42924 119.051 6.40505 116.431 6.33076C114.789 6.28066 113.926 6.10788 113.407 5.72259C112.835 5.30102 112.616 4.60646 112.616 3.35557C112.616 2.10467 112.929 1.4343 113.5 1.02482C114.124 0.579063 115.205 0.380371 117.304 0.380371C119.197 0.380371 120.527 0.541052 121.224 1.07493C121.806 1.52069 121.921 2.26535 121.921 3.30546V3.47824H119.801V3.46614C119.801 3.02038 119.759 2.7474 119.479 2.58671C119.177 2.41394 118.606 2.35174 117.276 2.35174C115.809 2.35174 115.312 2.41394 115.051 2.56253C114.771 2.72321 114.708 2.972 114.708 3.31928C114.708 3.76504 114.842 3.95164 115.029 4.06222C115.238 4.18662 115.581 4.23499 117.576 4.2851C119.842 4.3352 120.861 4.4717 121.474 4.91746C122.056 5.33903 122.243 6.11997 122.243 7.2983C122.243 8.56302 121.973 9.26967 121.4 9.70334C120.829 10.137 119.84 10.3979 117.335 10.3979C114.83 10.3979 113.915 10.2113 113.259 9.70334V9.69816Z" fill="white"/>
<path d="M124.507 5.38376C124.507 1.35464 125.411 0.375 129.871 0.375C134.332 0.375 135.246 1.35464 135.246 5.38376C135.246 9.41289 134.353 10.3925 129.871 10.3925C125.389 10.3925 124.507 9.41289 124.507 5.38376ZM129.871 8.29676C132.792 8.29676 133.115 8.01168 133.115 5.37167C133.115 2.73166 132.793 2.47077 129.871 2.47077C126.949 2.47077 126.628 2.75585 126.628 5.37167C126.628 7.98749 126.949 8.29676 129.871 8.29676Z" fill="white"/>
<path d="M138.31 9.69816C137.75 9.26449 137.593 8.59412 137.593 7.41752V7.15663H139.714V7.19464C139.714 7.77689 139.787 7.99977 140.068 8.17427C140.348 8.34705 141.004 8.42307 142.449 8.42307C144.113 8.42307 144.6 8.33668 144.861 8.1881C145.141 8.02742 145.215 7.84082 145.215 7.38296C145.215 6.96139 145.121 6.72642 144.871 6.57783C144.622 6.42924 144.102 6.40505 141.482 6.33076C139.84 6.28066 138.977 6.10788 138.458 5.72259C137.886 5.30102 137.667 4.60646 137.667 3.35557C137.667 2.10467 137.98 1.4343 138.551 1.02482C139.175 0.579063 140.257 0.380371 142.355 0.380371C144.248 0.380371 145.578 0.541052 146.275 1.07493C146.857 1.52069 146.972 2.26535 146.972 3.30546V3.47824H144.852V3.46614C144.852 3.02038 144.81 2.7474 144.53 2.58671C144.228 2.41394 143.657 2.35174 142.327 2.35174C140.86 2.35174 140.363 2.41394 140.102 2.56253C139.822 2.72321 139.759 2.972 139.759 3.31928C139.759 3.76504 139.894 3.95164 140.08 4.06222C140.289 4.18662 140.632 4.23499 142.627 4.2851C144.893 4.3352 145.912 4.4717 146.525 4.91746C147.107 5.33903 147.294 6.11997 147.294 7.2983C147.294 8.56302 147.024 9.26967 146.451 9.70334C145.88 10.137 144.891 10.3979 142.386 10.3979C139.881 10.3979 138.966 10.2113 138.31 9.70334V9.69816Z" fill="white"/>
<path d="M60.7089 13.9482H63.4225L67.7785 23.5926H65.3148L64.5672 21.87H59.4312L58.6818 23.5926H56.3528L60.7089 13.9482ZM63.6615 19.7863L61.9992 15.968L60.3351 19.7863H63.6615Z" fill="white"/>
<path d="M69.3267 19.465V13.9482H71.4364V19.1056C71.4364 21.4242 71.6754 21.6834 74.1913 21.6834C76.7072 21.6834 76.9462 21.4225 76.9462 19.1056V13.9482H79.056V19.465C79.056 22.8738 78.2347 23.7792 74.1913 23.7792C70.1479 23.7792 69.3267 22.8738 69.3267 19.465Z" fill="white"/>
<path d="M84.8884 16.044H81.2188V13.95H90.6785V16.044H87.0089L86.9981 23.5926H84.8884V16.044Z" fill="white"/>
<path d="M92.3848 18.7705C92.3848 14.7414 93.2887 13.7617 97.749 13.7617C102.209 13.7617 103.124 14.7414 103.124 18.7705C103.124 22.7996 102.231 23.7792 97.749 23.7792C93.2671 23.7792 92.3848 22.7996 92.3848 18.7705ZM97.749 21.6835C100.669 21.6835 100.993 21.3984 100.993 18.7584C100.993 16.1184 100.671 15.8575 97.749 15.8575C94.827 15.8575 94.5053 16.1426 94.5053 18.7584C94.5053 21.3742 94.827 21.6835 97.749 21.6835Z" fill="white"/>
<path d="M105.711 13.9482H109.007L112.209 21.1374H112.22L115.422 13.9482H118.655V23.5926H116.576V16.241H116.554L113.28 23.5926H111.066L107.811 16.241H107.79V23.5926H105.711V13.9482Z" fill="white"/>
<path d="M124.995 13.9483H127.709L132.065 23.5926H129.601L128.852 21.8701H123.716L122.966 23.5926H120.637L124.994 13.9483H124.995ZM127.948 19.7864L126.286 15.968L124.622 19.7864H127.948ZM127.033 11.2461H128.739L126.992 13.3661H125.349L127.033 11.2461Z" fill="white"/>
<path d="M135.484 16.044H131.814V13.95H141.274V16.044H137.604L137.594 23.5926H135.484V16.044Z" fill="white"/>
<path d="M143.521 13.9482H145.631V23.5926H143.521V13.9482Z" fill="white"/>
<path d="M148.22 18.7705C148.22 14.7172 149.209 13.7617 153.387 13.7617C157.565 13.7617 158.345 14.617 158.345 17.1948V17.4798H156.296V17.3935C156.296 16.1788 155.923 15.8437 153.385 15.8437C150.848 15.8437 150.339 16.1287 150.339 18.7567C150.339 21.3846 150.745 21.6938 153.385 21.6938C156.025 21.6938 156.305 21.3345 156.305 20.0698V19.9212H158.343V20.2926C158.343 22.9085 157.45 23.7758 153.385 23.7758C149.32 23.7758 148.219 22.8221 148.219 18.767L148.22 18.7705Z" fill="white"/>
<path d="M160.695 18.7705C160.695 14.7414 161.599 13.7617 166.059 13.7617C170.52 13.7617 171.434 14.7414 171.434 18.7705C171.434 22.7996 170.541 23.7792 166.059 23.7792C161.577 23.7792 160.695 22.7996 160.695 18.7705ZM166.058 21.6835C168.978 21.6835 169.301 21.3984 169.301 18.7584C169.301 16.1184 168.98 15.8575 166.058 15.8575C163.135 15.8575 162.814 16.1426 162.814 18.7584C162.814 21.3742 163.135 21.6835 166.058 21.6835Z" fill="white"/>
<path d="M174.498 23.0846C173.938 22.651 173.781 21.9806 173.781 20.804V20.5431H175.902V20.5811C175.902 21.1634 175.975 21.3862 176.256 21.5607C176.536 21.7335 177.192 21.8095 178.637 21.8095C180.301 21.8095 180.788 21.7232 181.049 21.5746C181.329 21.4139 181.403 21.2273 181.403 20.7694C181.403 20.3479 181.309 20.1129 181.059 19.9643C180.81 19.8157 180.29 19.7915 177.67 19.7172C176.028 19.6671 175.165 19.4944 174.646 19.1091C174.074 18.6875 173.855 17.9929 173.855 16.742C173.855 15.4911 174.168 14.8208 174.739 14.4113C175.363 13.9655 176.445 13.7668 178.543 13.7668C180.436 13.7668 181.766 13.9275 182.463 14.4614C183.045 14.9072 183.16 15.6518 183.16 16.6919V16.8647H181.04V16.8526C181.04 16.4069 180.998 16.1339 180.718 15.9732C180.416 15.8004 179.845 15.7382 178.515 15.7382C177.048 15.7382 176.551 15.8004 176.29 15.949C176.01 16.1097 175.947 16.3585 175.947 16.7058C175.947 17.1515 176.081 17.3381 176.268 17.4487C176.477 17.5731 176.82 17.6215 178.815 17.6716C181.081 17.7217 182.1 17.8582 182.713 18.3039C183.295 18.7255 183.482 19.5064 183.482 20.6848C183.482 21.9495 183.212 22.6561 182.639 23.0898C182.068 23.5235 181.079 23.7844 178.574 23.7844C176.069 23.7844 175.154 23.5978 174.498 23.0898V23.0846Z" fill="white"/>
</svg>
