<svg width="198" height="31" viewBox="0 0 198 31" fill="none" xmlns="http://www.w3.org/2000/svg">
<g clip-path="url(#clip0_1121_6273)">
<path d="M24.1851 10.5684H14.5606C13.8066 10.5684 13.1953 11.173 13.1953 11.9188V14.1703C13.1953 14.9162 13.8066 15.5208 14.5606 15.5208H24.1851C24.9391 15.5208 25.5504 14.9162 25.5504 14.1703V11.9188C25.5504 11.173 24.9391 10.5684 24.1851 10.5684Z" fill="#F4E724"/>
<path d="M39.9703 5.61621H30.3457C29.5917 5.61621 28.9805 6.22084 28.9805 6.9667V9.21815C28.9805 9.964 29.5917 10.5686 30.3457 10.5686H39.9703C40.7243 10.5686 41.3355 9.964 41.3355 9.21815V6.9667C41.3355 6.22084 40.7243 5.61621 39.9703 5.61621Z" fill="#F4E724"/>
<path d="M24.1851 21.2158H14.5606C13.8066 21.2158 13.1953 21.8205 13.1953 22.5663V24.8178C13.1953 25.5636 13.8066 26.1682 14.5606 26.1682H24.1851C24.9391 26.1682 25.5504 25.5636 25.5504 24.8178V22.5663C25.5504 21.8205 24.9391 21.2158 24.1851 21.2158Z" fill="#F4E724"/>
<path d="M39.9703 26.166H30.3457C29.5917 26.166 28.9805 26.7706 28.9805 27.5165V29.768C28.9805 30.5138 29.5917 31.1184 30.3457 31.1184H39.9703C40.7243 31.1184 41.3355 30.5138 41.3355 29.768V27.5165C41.3355 26.7706 40.7243 26.166 39.9703 26.166Z" fill="#F4E724"/>
<path d="M49.6144 20.2579H30.5567C30.1313 20.2579 29.7852 19.772 29.7852 19.1714V17.358C29.7852 16.7574 30.1313 16.2715 30.5567 16.2715H49.6144C50.0398 16.2715 50.3859 16.7574 50.3859 17.358V19.1714C50.3859 19.772 50.0398 20.2579 49.6144 20.2579Z" fill="#F4E724"/>
<path d="M10.9898 15.7871H1.36526C0.611249 15.7871 0 16.3917 0 17.1376V19.389C0 20.1349 0.611249 20.7395 1.36526 20.7395H10.9898C11.7438 20.7395 12.3551 20.1349 12.3551 19.389V17.1376C12.3551 16.3917 11.7438 15.7871 10.9898 15.7871Z" fill="#F4E724"/>
<path d="M61.5234 5.05078H67.5086C70.5736 5.05078 71.469 5.98426 71.469 8.93391C71.469 11.8836 70.5736 12.817 67.5086 12.817H63.7841V15.7265H61.5254V5.05078H61.5234ZM67.408 10.5407C68.7945 10.5407 69.2316 10.2251 69.2316 8.93582C69.2316 7.64655 68.7945 7.33092 67.408 7.33092H63.7841V10.5426H67.408V10.5407Z" fill="black"/>
<path d="M74.043 5.05078H83.2498V7.32901H76.3036V9.19597H82.8804V11.392H76.3036V13.4502H83.3948V15.7284H74.043V5.05078Z" fill="black"/>
<path d="M86.168 5.05078H92.5437C95.3845 5.05078 96.2353 5.98426 96.2353 8.37153C96.2353 9.97643 95.8544 10.8563 94.7811 11.2676V11.3231C95.9781 11.5565 96.2469 12.0098 96.2469 13.8749V15.7284H93.9883V14.288C93.9883 12.9012 93.7988 12.3809 92.1531 12.3809H88.4286V15.7303H86.1699V5.05078H86.168ZM92.3213 10.1142C93.5957 10.1142 93.9883 9.8387 93.9883 8.72732C93.9883 7.61594 93.6073 7.3271 92.3097 7.3271H88.4286V10.1122H92.3213V10.1142Z" fill="black"/>
<path d="M99.125 5.05078H102.672L106.118 13.0102H106.129L109.575 5.05078H113.054V15.7284H110.817V7.58916H110.794L107.27 15.7284H104.888L101.386 7.58916H101.362V15.7284H99.125V5.05078Z" fill="black"/>
<path d="M116.07 5.05078H118.341V15.7284H116.07V5.05078Z" fill="black"/>
<path d="M121.877 15.1657C121.274 14.6856 121.105 13.9434 121.105 12.6407V12.3519H123.387V12.394C123.387 13.0386 123.467 13.2854 123.768 13.4786C124.07 13.6699 124.776 13.754 126.331 13.754C128.121 13.754 128.645 13.6584 128.926 13.4939C129.227 13.316 129.307 13.1094 129.307 12.6025C129.307 12.1357 129.206 11.8756 128.937 11.7111C128.669 11.5466 128.11 11.5198 125.29 11.4375C123.523 11.3821 122.594 11.1908 122.036 10.7642C121.421 10.2975 121.185 9.52849 121.185 8.14358C121.185 6.75866 121.521 6.01646 122.136 5.56311C122.807 5.06959 123.971 4.84961 126.23 4.84961C128.266 4.84961 129.697 5.02751 130.448 5.61858C131.074 6.11211 131.198 6.93655 131.198 8.0881V8.27939H128.916V8.266C128.916 7.77248 128.872 7.47024 128.57 7.29235C128.245 7.10106 127.63 7.0322 126.199 7.0322C124.621 7.0322 124.085 7.10106 123.805 7.26557C123.503 7.44346 123.436 7.71892 123.436 8.10341C123.436 8.59693 123.581 8.80352 123.782 8.92594C124.006 9.06367 124.376 9.11723 126.522 9.1727C128.961 9.22817 130.057 9.37929 130.716 9.87281C131.343 10.3396 131.544 11.2042 131.544 12.5087C131.544 13.909 131.254 14.6913 130.637 15.1715C130.022 15.6516 128.959 15.9404 126.263 15.9404C123.567 15.9404 122.583 15.7339 121.877 15.1715V15.1657Z" fill="black"/>
<path d="M133.98 10.3892C133.98 5.92835 134.953 4.84375 139.753 4.84375C144.553 4.84375 145.537 5.92835 145.537 10.3892C145.537 14.85 144.576 15.9346 139.753 15.9346C134.93 15.9346 133.98 14.85 133.98 10.3892ZM139.753 13.6143C142.895 13.6143 143.243 13.2986 143.243 10.3758C143.243 7.45291 142.897 7.16406 139.753 7.16406C136.609 7.16406 136.262 7.47969 136.262 10.3758C136.262 13.2719 136.609 13.6143 139.753 13.6143Z" fill="black"/>
<path d="M148.834 15.1657C148.231 14.6856 148.062 13.9434 148.062 12.6407V12.3519H150.344V12.394C150.344 13.0386 150.424 13.2854 150.725 13.4786C151.027 13.6699 151.733 13.754 153.288 13.754C155.078 13.754 155.602 13.6584 155.883 13.4939C156.184 13.316 156.264 13.1094 156.264 12.6025C156.264 12.1357 156.163 11.8756 155.894 11.7111C155.626 11.5466 155.067 11.5198 152.247 11.4375C150.48 11.3821 149.552 11.1908 148.993 10.7642C148.378 10.2975 148.142 9.52849 148.142 8.14358C148.142 6.75866 148.478 6.01646 149.093 5.56311C149.764 5.06959 150.928 4.84961 153.187 4.84961C155.223 4.84961 156.654 5.02751 157.405 5.61858C158.031 6.11211 158.155 6.93655 158.155 8.0881V8.27939H155.873V8.266C155.873 7.77248 155.829 7.47024 155.527 7.29235C155.202 7.10106 154.587 7.0322 153.156 7.0322C151.578 7.0322 151.042 7.10106 150.762 7.26557C150.46 7.44346 150.393 7.71892 150.393 8.10341C150.393 8.59693 150.538 8.80352 150.739 8.92594C150.963 9.06367 151.333 9.11723 153.479 9.1727C155.918 9.22817 157.014 9.37929 157.673 9.87281C158.3 10.3396 158.501 11.2042 158.501 12.5087C158.501 13.909 158.211 14.6913 157.594 15.1715C156.979 15.6516 155.916 15.9404 153.22 15.9404C150.524 15.9404 149.54 15.7339 148.834 15.1715V15.1657Z" fill="black"/>
<path d="M65.3282 19.8711H68.2482L72.9357 30.5487H70.2845L69.48 28.6416H63.9532L63.1468 30.5487H60.6406L65.3282 19.8711ZM68.5054 26.3347L66.7166 22.1072L64.9259 26.3347H68.5054Z" fill="black"/>
<path d="M74.6016 25.9789V19.8711H76.8718V25.581C76.8718 28.1481 77.129 28.435 79.8364 28.435C82.5437 28.435 82.8009 28.1462 82.8009 25.581V19.8711H85.0712V25.9789C85.0712 29.753 84.1874 30.7553 79.8364 30.7553C75.4853 30.7553 74.6016 29.753 74.6016 25.9789Z" fill="black"/>
<path d="M91.3475 22.1914H87.3987V19.873H97.5782V22.1914H93.6294L93.6178 30.5488H91.3475V22.1914Z" fill="black"/>
<path d="M99.4141 25.2095C99.4141 20.7487 100.387 19.6641 105.186 19.6641C109.986 19.6641 110.97 20.7487 110.97 25.2095C110.97 29.6703 110.009 30.7549 105.186 30.7549C100.364 30.7549 99.4141 29.6703 99.4141 25.2095ZM105.186 28.4346C108.329 28.4346 108.677 28.119 108.677 25.1961C108.677 22.2732 108.331 21.9844 105.186 21.9844C102.042 21.9844 101.696 22.3 101.696 25.1961C101.696 28.0922 102.042 28.4346 105.186 28.4346Z" fill="black"/>
<path d="M113.754 19.8711H117.301L120.747 27.8306H120.758L124.204 19.8711H127.683V30.5487H125.446V22.4095H125.422L121.899 30.5487H119.517L116.015 22.4095H115.991V30.5487H113.754V19.8711Z" fill="black"/>
<path d="M134.506 19.8716H137.426L142.114 30.5493H139.462L138.656 28.6421H133.129L132.323 30.5493H129.817L134.504 19.8716H134.506ZM137.683 26.3352L135.895 22.1078L134.104 26.3352H137.683ZM136.699 16.8799H138.534L136.655 19.227H134.887L136.699 16.8799Z" fill="black"/>
<path d="M145.793 22.1914H141.844V19.873H152.023V22.1914H148.074L148.063 30.5488H145.793V22.1914Z" fill="black"/>
<path d="M154.441 19.8711H156.712V30.5487H154.441V19.8711Z" fill="black"/>
<path d="M159.498 25.2095C159.498 20.7219 160.562 19.6641 165.058 19.6641C169.554 19.6641 170.393 20.6109 170.393 23.4649V23.7806H168.189V23.6849C168.189 22.3402 167.786 21.9691 165.056 21.9691C162.325 21.9691 161.778 22.2847 161.778 25.1942C161.778 28.1037 162.215 28.4461 165.056 28.4461C167.897 28.4461 168.198 28.0482 168.198 26.648V26.4834H170.391V26.8947C170.391 29.7908 169.43 30.7511 165.056 30.7511C160.682 30.7511 159.496 29.6952 159.496 25.2057L159.498 25.2095Z" fill="black"/>
<path d="M172.922 25.2095C172.922 20.7487 173.895 19.6641 178.694 19.6641C183.494 19.6641 184.478 20.7487 184.478 25.2095C184.478 29.6703 183.517 30.7549 178.694 30.7549C173.871 30.7549 172.922 29.6703 172.922 25.2095ZM178.692 28.4346C181.835 28.4346 182.183 28.119 182.183 25.1961C182.183 22.2732 181.837 21.9844 178.692 21.9844C175.548 21.9844 175.202 22.3 175.202 25.1961C175.202 28.0922 175.548 28.4346 178.692 28.4346Z" fill="black"/>
<path d="M187.775 29.986C187.172 29.5059 187.004 28.7637 187.004 27.461V27.1722H189.286V27.2143C189.286 27.8589 189.365 28.1057 189.667 28.2989C189.968 28.4902 190.674 28.5743 192.229 28.5743C194.02 28.5743 194.544 28.4787 194.824 28.3142C195.126 28.1363 195.205 27.9297 195.205 27.4228C195.205 26.9561 195.105 26.6959 194.836 26.5314C194.567 26.3669 194.008 26.3401 191.189 26.2579C189.421 26.2024 188.493 26.0111 187.934 25.5845C187.319 25.1178 187.083 24.3488 187.083 22.9639C187.083 21.579 187.42 20.8368 188.035 20.3834C188.706 19.8899 189.87 19.6699 192.128 19.6699C194.165 19.6699 195.596 19.8478 196.346 20.4389C196.973 20.9324 197.096 21.7569 197.096 22.9084V23.0997H194.815V23.0863C194.815 22.5928 194.77 22.2906 194.468 22.1127C194.143 21.9214 193.529 21.8525 192.098 21.8525C190.52 21.8525 189.984 21.9214 189.703 22.0859C189.402 22.2638 189.334 22.5392 189.334 22.9237C189.334 23.4172 189.479 23.6238 189.68 23.7463C189.905 23.884 190.274 23.9375 192.42 23.993C194.859 24.0485 195.955 24.1996 196.615 24.6931C197.241 25.1599 197.443 26.0245 197.443 27.3291C197.443 28.7293 197.152 29.5116 196.536 29.9918C195.921 30.4719 194.857 30.7608 192.161 30.7608C189.466 30.7608 188.481 30.5542 187.775 29.9918V29.986Z" fill="black"/>
</g>
<defs>
<clipPath id="clip0_1121_6273">
<rect width="198" height="31" fill="white"/>
</clipPath>
</defs>
</svg>
