<svg width="184" height="28" viewBox="0 0 184 28" fill="none" xmlns="http://www.w3.org/2000/svg">
<g clip-path="url(#clip0_1334_160)">
<path d="M22.4749 9.54614H13.5309C12.8302 9.54614 12.2622 10.0923 12.2622 10.7659V12.7995C12.2622 13.4732 12.8302 14.0193 13.5309 14.0193H22.4749C23.1756 14.0193 23.7437 13.4732 23.7437 12.7995V10.7659C23.7437 10.0923 23.1756 9.54614 22.4749 9.54614Z" fill="#F4E724"/>
<path d="M37.1439 5.073H28.1999C27.4992 5.073 26.9312 5.61912 26.9312 6.29279V8.32636C26.9312 9.00003 27.4992 9.54616 28.1999 9.54616H37.1439C37.8446 9.54616 38.4126 9.00003 38.4126 8.32636V6.29279C38.4126 5.61912 37.8446 5.073 37.1439 5.073Z" fill="#F4E724"/>
<path d="M22.4749 19.1628H13.5309C12.8302 19.1628 12.2622 19.709 12.2622 20.3826V22.4162C12.2622 23.0899 12.8302 23.636 13.5309 23.636H22.4749C23.1756 23.636 23.7437 23.0899 23.7437 22.4162V20.3826C23.7437 19.709 23.1756 19.1628 22.4749 19.1628Z" fill="#F4E724"/>
<path d="M37.1439 23.6343H28.1999C27.4992 23.6343 26.9312 24.1804 26.9312 24.8541V26.8876C26.9312 27.5613 27.4992 28.1074 28.1999 28.1074H37.1439C37.8446 28.1074 38.4126 27.5613 38.4126 26.8876V24.8541C38.4126 24.1804 37.8446 23.6343 37.1439 23.6343Z" fill="#F4E724"/>
<path d="M46.1063 18.2972H28.3962C28.0009 18.2972 27.6792 17.8583 27.6792 17.3158V15.6779C27.6792 15.1354 28.0009 14.6965 28.3962 14.6965H46.1063C46.5017 14.6965 46.8234 15.1354 46.8234 15.6779V17.3158C46.8234 17.8583 46.5017 18.2972 46.1063 18.2972Z" fill="#F4E724"/>
<path d="M10.2127 14.2595H1.26873C0.56803 14.2595 0 14.8056 0 15.4793V17.5129C0 18.1866 0.56803 18.7327 1.26873 18.7327H10.2127C10.9134 18.7327 11.4815 18.1866 11.4815 17.5129V15.4793C11.4815 14.8056 10.9134 14.2595 10.2127 14.2595Z" fill="#F4E724"/>
<path d="M57.1733 4.56152H62.7353C65.5836 4.56152 66.4157 5.40467 66.4157 8.06887C66.4157 10.7331 65.5836 11.5762 62.7353 11.5762H59.2741V14.2041H57.1751V4.56152H57.1733ZM62.6418 9.52018C63.9303 9.52018 64.3365 9.2351 64.3365 8.07059C64.3365 6.90609 63.9303 6.62101 62.6418 6.62101H59.2741V9.52191H62.6418V9.52018Z" fill="black"/>
<path d="M68.8076 4.56152H77.3635V6.61928H70.9084V8.30557H77.0202V10.289H70.9084V12.1481H77.4982V14.2059H68.8076V4.56152Z" fill="black"/>
<path d="M80.0752 4.56152H86.0001C88.64 4.56152 89.4307 5.40467 89.4307 7.56091C89.4307 9.01049 89.0767 9.80526 88.0793 10.1767V10.2268C89.1917 10.4376 89.4415 10.8471 89.4415 12.5317V14.2059H87.3425V12.9049C87.3425 11.6522 87.1664 11.1823 85.6371 11.1823H82.176V14.2076H80.077V4.56152H80.0752ZM85.7935 9.13489C86.9777 9.13489 87.3425 8.88609 87.3425 7.88227C87.3425 6.87844 86.9885 6.61755 85.7827 6.61755H82.176V9.13316H85.7935V9.13489Z" fill="black"/>
<path d="M92.1162 4.56152H95.412L98.6144 11.7507H98.6252L101.828 4.56152H105.06V14.2059H102.981V6.85425H102.96L99.6855 14.2059H97.4715L94.217 6.85425H94.1954V14.2059H92.1162V4.56152Z" fill="black"/>
<path d="M107.863 4.56152H109.973V14.2059H107.863V4.56152Z" fill="black"/>
<path d="M113.26 13.6982C112.699 13.2645 112.542 12.5941 112.542 11.4175V11.1566H114.663V11.1946C114.663 11.7769 114.737 11.9998 115.017 12.1743C115.297 12.3471 115.953 12.4231 117.398 12.4231C119.062 12.4231 119.549 12.3367 119.81 12.1881C120.09 12.0274 120.164 11.8408 120.164 11.383C120.164 10.9614 120.07 10.7264 119.821 10.5778C119.571 10.4292 119.051 10.4051 116.431 10.3308C114.789 10.2807 113.926 10.1079 113.407 9.72259C112.835 9.30102 112.616 8.60646 112.616 7.35557C112.616 6.10467 112.929 5.4343 113.5 5.02482C114.124 4.57906 115.206 4.38037 117.305 4.38037C119.197 4.38037 120.527 4.54105 121.224 5.07493C121.806 5.52069 121.921 6.26535 121.921 7.30546V7.47824H119.801V7.46614C119.801 7.02038 119.76 6.7474 119.479 6.58671C119.177 6.41394 118.606 6.35174 117.276 6.35174C115.81 6.35174 115.312 6.41394 115.051 6.56253C114.771 6.72321 114.708 6.972 114.708 7.31928C114.708 7.76504 114.843 7.95164 115.03 8.06222C115.238 8.18662 115.581 8.23499 117.576 8.2851C119.842 8.3352 120.861 8.4717 121.474 8.91746C122.056 9.33903 122.243 10.12 122.243 11.2983C122.243 12.563 121.973 13.2697 121.4 13.7033C120.829 14.137 119.84 14.3979 117.335 14.3979C114.83 14.3979 113.915 14.2113 113.26 13.7033V13.6982Z" fill="black"/>
<path d="M124.507 9.38376C124.507 5.35464 125.411 4.375 129.872 4.375C134.332 4.375 135.247 5.35464 135.247 9.38376C135.247 13.4129 134.353 14.3925 129.872 14.3925C125.39 14.3925 124.507 13.4129 124.507 9.38376ZM129.872 12.2968C132.792 12.2968 133.115 12.0117 133.115 9.37167C133.115 6.73166 132.794 6.47077 129.872 6.47077C126.95 6.47077 126.628 6.75585 126.628 9.37167C126.628 11.9875 126.95 12.2968 129.872 12.2968Z" fill="black"/>
<path d="M138.311 13.6982C137.75 13.2645 137.594 12.5941 137.594 11.4175V11.1566H139.714V11.1946C139.714 11.7769 139.788 11.9998 140.068 12.1743C140.349 12.3471 141.005 12.4231 142.449 12.4231C144.114 12.4231 144.601 12.3367 144.861 12.1881C145.141 12.0274 145.215 11.8408 145.215 11.383C145.215 10.9614 145.122 10.7264 144.872 10.5778C144.622 10.4292 144.103 10.4051 141.483 10.3308C139.84 10.2807 138.977 10.1079 138.458 9.72259C137.887 9.30102 137.667 8.60646 137.667 7.35557C137.667 6.10467 137.98 5.4343 138.552 5.02482C139.175 4.57906 140.257 4.38037 142.356 4.38037C144.248 4.38037 145.578 4.54105 146.275 5.07493C146.858 5.52069 146.973 6.26535 146.973 7.30546V7.47824H144.852V7.46614C144.852 7.02038 144.811 6.7474 144.53 6.58671C144.229 6.41394 143.657 6.35174 142.327 6.35174C140.861 6.35174 140.363 6.41394 140.102 6.56253C139.822 6.72321 139.759 6.972 139.759 7.31928C139.759 7.76504 139.894 7.95164 140.081 8.06222C140.289 8.18662 140.633 8.23499 142.627 8.2851C144.893 8.3352 145.912 8.4717 146.525 8.91746C147.107 9.33903 147.294 10.12 147.294 11.2983C147.294 12.563 147.025 13.2697 146.452 13.7033C145.88 14.137 144.892 14.3979 142.387 14.3979C139.881 14.3979 138.967 14.2113 138.311 13.7033V13.6982Z" fill="black"/>
<path d="M60.7091 17.9482H63.4227L67.7788 27.5926H65.315L64.5674 25.87H59.4314L58.682 27.5926H56.353L60.7091 17.9482ZM63.6617 23.7863L61.9994 19.968L60.3353 23.7863H63.6617Z" fill="black"/>
<path d="M69.3267 23.465V17.9482H71.4364V23.1056C71.4364 25.4242 71.6754 25.6834 74.1913 25.6834C76.7072 25.6834 76.9462 25.4225 76.9462 23.1056V17.9482H79.056V23.465C79.056 26.8738 78.2347 27.7792 74.1913 27.7792C70.1479 27.7792 69.3267 26.8738 69.3267 23.465Z" fill="black"/>
<path d="M84.8888 20.044H81.2192V17.95H90.679V20.044H87.0094L86.9986 27.5926H84.8888V20.044Z" fill="black"/>
<path d="M92.3848 22.7705C92.3848 18.7414 93.2887 17.7617 97.749 17.7617C102.209 17.7617 103.124 18.7414 103.124 22.7705C103.124 26.7996 102.231 27.7792 97.749 27.7792C93.2671 27.7792 92.3848 26.7996 92.3848 22.7705ZM97.749 25.6835C100.669 25.6835 100.993 25.3984 100.993 22.7584C100.993 20.1184 100.671 19.8575 97.749 19.8575C94.827 19.8575 94.5053 20.1426 94.5053 22.7584C94.5053 25.3742 94.827 25.6835 97.749 25.6835Z" fill="black"/>
<path d="M105.711 17.9482H109.007L112.209 25.1374H112.22L115.422 17.9482H118.655V27.5926H116.576V20.241H116.554L113.28 27.5926H111.066L107.812 20.241H107.79V27.5926H105.711V17.9482Z" fill="black"/>
<path d="M124.996 17.9483H127.709L132.065 27.5926H129.601L128.852 25.8701H123.716L122.967 27.5926H120.638L124.994 17.9483H124.996ZM127.948 23.7864L126.286 19.968L124.622 23.7864H127.948ZM127.033 15.2461H128.739L126.992 17.3661H125.35L127.033 15.2461Z" fill="black"/>
<path d="M135.484 20.044H131.814V17.95H141.274V20.044H137.605L137.594 27.5926H135.484V20.044Z" fill="black"/>
<path d="M143.521 17.9482H145.631V27.5926H143.521V17.9482Z" fill="black"/>
<path d="M148.221 22.7705C148.221 18.7172 149.209 17.7617 153.387 17.7617C157.565 17.7617 158.345 18.617 158.345 21.1948V21.4798H156.297V21.3935C156.297 20.1788 155.923 19.8437 153.385 19.8437C150.848 19.8437 150.339 20.1287 150.339 22.7567C150.339 25.3846 150.745 25.6938 153.385 25.6938C156.025 25.6938 156.306 25.3345 156.306 24.0698V23.9212H158.343V24.2926C158.343 26.9085 157.45 27.7758 153.385 27.7758C149.32 27.7758 148.219 26.8221 148.219 22.767L148.221 22.7705Z" fill="black"/>
<path d="M160.695 22.7705C160.695 18.7414 161.599 17.7617 166.06 17.7617C170.52 17.7617 171.435 18.7414 171.435 22.7705C171.435 26.7996 170.541 27.7792 166.06 27.7792C161.578 27.7792 160.695 26.7996 160.695 22.7705ZM166.058 25.6835C168.978 25.6835 169.301 25.3984 169.301 22.7584C169.301 20.1184 168.98 19.8575 166.058 19.8575C163.136 19.8575 162.814 20.1426 162.814 22.7584C162.814 25.3742 163.136 25.6835 166.058 25.6835Z" fill="black"/>
<path d="M174.499 27.0846C173.938 26.651 173.782 25.9806 173.782 24.804V24.5431H175.902V24.5811C175.902 25.1634 175.976 25.3862 176.256 25.5607C176.537 25.7335 177.193 25.8095 178.637 25.8095C180.301 25.8095 180.788 25.7232 181.049 25.5746C181.329 25.4139 181.403 25.2273 181.403 24.7694C181.403 24.3479 181.31 24.1129 181.06 23.9643C180.81 23.8157 180.291 23.7915 177.671 23.7172C176.028 23.6671 175.165 23.4944 174.646 23.1091C174.075 22.6875 173.855 21.9929 173.855 20.742C173.855 19.4911 174.168 18.8208 174.74 18.4113C175.363 17.9655 176.445 17.7668 178.544 17.7668C180.436 17.7668 181.766 17.9275 182.463 18.4614C183.046 18.9072 183.161 19.6518 183.161 20.6919V20.8647H181.04V20.8526C181.04 20.4069 180.999 20.1339 180.718 19.9732C180.417 19.8004 179.845 19.7382 178.515 19.7382C177.049 19.7382 176.551 19.8004 176.29 19.949C176.01 20.1097 175.947 20.3585 175.947 20.7058C175.947 21.1515 176.082 21.3381 176.269 21.4487C176.477 21.5731 176.821 21.6215 178.815 21.6716C181.081 21.7217 182.1 21.8582 182.713 22.3039C183.295 22.7255 183.482 23.5064 183.482 24.6848C183.482 25.9495 183.213 26.6561 182.639 27.0898C182.068 27.5235 181.08 27.7844 178.575 27.7844C176.069 27.7844 175.155 27.5978 174.499 27.0898V27.0846Z" fill="black"/>
</g>
<defs>
<clipPath id="clip0_1334_160">
<rect width="184" height="28" fill="white"/>
</clipPath>
</defs>
</svg>
