<?xml version="1.0" encoding="UTF-8"?>
<svg id="Capa_2" data-name="Capa 2" xmlns="http://www.w3.org/2000/svg" viewBox="0 0 710.42 344.51">
  <defs>
    <style>
      .cls-1 {
        fill: #f4e724;
      }

      .cls-2 {
        fill: #1d1d1b;
      }
    </style>
  </defs>
  <g id="Capa_1-2" data-name="Capa 1">
    <g>
      <g>
        <rect class="cls-1" x="295.02" y="25.89" width="63.89" height="25.89" rx="7.06" ry="7.06"/>
        <rect class="cls-1" x="376.66" y="0" width="63.89" height="25.89" rx="7.06" ry="7.06"/>
        <rect class="cls-1" x="295.02" y="81.54" width="63.89" height="25.89" rx="7.06" ry="7.06"/>
        <rect class="cls-1" x="376.66" y="107.43" width="63.89" height="25.89" rx="7.06" ry="7.06"/>
        <path class="cls-1" d="M483.34,76.54h-98.55c-2.2,0-3.99-2.54-3.99-5.68v-9.48c0-3.14,1.79-5.68,3.99-5.68h98.55c2.2,0,3.99,2.54,3.99,5.68v9.48c0,3.14-1.79,5.68-3.99,5.68Z"/>
        <rect class="cls-1" x="226.79" y="53.17" width="63.89" height="25.89" rx="7.06" ry="7.06"/>
      </g>
      <g>
        <path class="cls-2" d="M105.37,193.28h30.95c15.85,0,20.48,4.88,20.48,20.3s-4.63,20.3-20.48,20.3h-19.26v15.21h-11.68v-55.82ZM135.8,221.98c7.17,0,9.43-1.65,9.43-8.39s-2.26-8.39-9.43-8.39h-18.74v16.79h18.74Z"/>
        <path class="cls-2" d="M170.1,193.28h47.61v11.91h-35.92v9.76h34.01v11.48h-34.01v10.76h36.67v11.91h-48.36v-55.82Z"/>
        <path class="cls-2" d="M232.81,193.28h32.97c14.69,0,19.09,4.88,19.09,17.36,0,8.39-1.97,12.99-7.52,15.14v.29c6.19,1.22,7.58,3.59,7.58,13.34v9.69h-11.68v-7.53c0-7.25-.98-9.97-9.49-9.97h-19.26v17.51h-11.68v-55.82ZM264.62,219.75c6.59,0,8.62-1.44,8.62-7.25s-1.97-7.32-8.68-7.32h-20.07v14.57h20.13Z"/>
        <path class="cls-2" d="M299.79,193.28h18.34l17.82,41.61h.06l17.82-41.61h17.99v55.82h-11.57v-42.55h-.12l-18.22,42.55h-12.32l-18.11-42.55h-.12v42.55h-11.57v-55.82Z"/>
        <path class="cls-2" d="M387.43,193.28h11.74v55.82h-11.74v-55.82Z"/>
        <path class="cls-2" d="M417.45,246.15c-3.12-2.51-3.99-6.39-3.99-13.2v-1.51h11.8v.21c0,3.37.41,4.66,1.97,5.67,1.56,1,5.21,1.44,13.25,1.44,9.26,0,11.97-.5,13.42-1.36,1.56-.93,1.97-2.01,1.97-4.66,0-2.44-.52-3.8-1.91-4.66-1.39-.86-4.28-1-18.86-1.43-9.14-.29-13.94-1.29-16.83-3.52-3.18-2.44-4.4-6.46-4.4-13.7s1.74-11.12,4.92-13.49c3.47-2.58,9.49-3.73,21.17-3.73,10.53,0,17.93.93,21.81,4.02,3.24,2.58,3.88,6.89,3.88,12.91v1h-11.8v-.07c0-2.58-.23-4.16-1.79-5.09-1.68-1-4.86-1.36-12.26-1.36-8.16,0-10.93.36-12.38,1.22-1.56.93-1.91,2.37-1.91,4.38,0,2.58.75,3.66,1.79,4.3,1.16.72,3.07,1,14.17,1.29,12.61.29,18.28,1.08,21.69,3.66,3.24,2.44,4.28,6.96,4.28,13.78,0,7.32-1.5,11.41-4.69,13.92s-8.68,4.02-22.62,4.02-19.03-1.08-22.68-4.02Z"/>
        <path class="cls-2" d="M480.04,221.19c0-23.32,5.03-28.99,29.85-28.99s29.91,5.67,29.91,28.99-4.97,28.99-29.91,28.99-29.85-5.67-29.85-28.99ZM509.89,238.05c16.25,0,18.05-1.65,18.05-16.93s-1.79-16.79-18.05-16.79-18.05,1.65-18.05,16.79,1.79,16.93,18.05,16.93Z"/>
        <path class="cls-2" d="M556.87,246.15c-3.12-2.51-3.99-6.39-3.99-13.2v-1.51h11.8v.21c0,3.37.41,4.66,1.97,5.67,1.56,1,5.21,1.44,13.25,1.44,9.26,0,11.97-.5,13.42-1.36,1.56-.93,1.97-2.01,1.97-4.66,0-2.44-.52-3.8-1.91-4.66-1.39-.86-4.28-1-18.86-1.43-9.14-.29-13.94-1.29-16.83-3.52-3.18-2.44-4.4-6.46-4.4-13.7s1.74-11.12,4.92-13.49c3.47-2.58,9.49-3.73,21.17-3.73,10.53,0,17.93.93,21.81,4.02,3.24,2.58,3.88,6.89,3.88,12.91v1h-11.8v-.07c0-2.58-.23-4.16-1.79-5.09-1.68-1-4.86-1.36-12.26-1.36-8.16,0-10.93.36-12.38,1.22-1.56.93-1.91,2.37-1.91,4.38,0,2.58.75,3.66,1.79,4.3,1.16.72,3.07,1,14.17,1.29,12.61.29,18.28,1.08,21.69,3.66,3.24,2.44,4.28,6.96,4.28,13.78,0,7.32-1.5,11.41-4.69,13.92s-8.68,4.02-22.62,4.02-19.03-1.08-22.68-4.02Z"/>
        <path class="cls-2" d="M24.35,270.76h15.1l24.24,55.82h-13.71l-4.16-9.97h-28.58l-4.17,9.97H.12l24.24-55.82ZM40.78,304.55l-9.25-22.1-9.26,22.1h18.51Z"/>
        <path class="cls-2" d="M72.31,302.69v-31.93h11.74v29.85c0,13.42,1.33,14.92,15.33,14.92s15.33-1.51,15.33-14.92v-29.85h11.74v31.93c0,19.73-4.57,24.97-27.07,24.97s-27.07-5.24-27.07-24.97Z"/>
        <path class="cls-2" d="M158.91,282.88h-20.42v-12.12h52.64v12.12h-20.42l-.06,43.69h-11.74v-43.69Z"/>
        <path class="cls-2" d="M200.61,298.67c0-23.32,5.03-28.99,29.85-28.99s29.91,5.67,29.91,28.99-4.97,28.99-29.91,28.99-29.85-5.67-29.85-28.99ZM230.46,315.53c16.25,0,18.05-1.65,18.05-16.93s-1.79-16.79-18.05-16.79-18.05,1.65-18.05,16.79,1.79,16.93,18.05,16.93Z"/>
        <path class="cls-2" d="M274.77,270.76h18.34l17.82,41.61h.06l17.82-41.61h17.99v55.82h-11.57v-42.55h-.12l-18.22,42.55h-12.32l-18.11-42.55h-.12v42.55h-11.57v-55.82Z"/>
        <path class="cls-2" d="M382.08,270.76h15.1l24.24,55.82h-13.71l-4.17-9.97h-28.58l-4.17,9.97h-12.96l24.24-55.82ZM398.51,304.55l-9.25-22.1-9.26,22.1h18.51ZM393.42,255.12h9.49l-9.72,12.27h-9.14l9.37-12.27Z"/>
        <path class="cls-2" d="M440.45,282.88h-20.42v-12.12h52.64v12.12h-20.42l-.06,43.69h-11.74v-43.69Z"/>
        <path class="cls-2" d="M485.17,270.76h11.74v55.82h-11.74v-55.82Z"/>
        <path class="cls-2" d="M511.31,298.67c0-23.46,5.5-28.99,28.75-28.99s27.59,4.95,27.59,19.87v1.65h-11.4v-.5c0-7.03-2.08-8.97-16.2-8.97s-16.95,1.65-16.95,16.86,2.26,17,16.95,17,16.25-2.08,16.25-9.4v-.86h11.34v2.15c0,15.14-4.97,20.16-27.59,20.16s-28.75-5.52-28.75-28.99Z"/>
        <path class="cls-2" d="M580.73,298.67c0-23.32,5.03-28.99,29.85-28.99s29.91,5.67,29.91,28.99-4.97,28.99-29.91,28.99-29.85-5.67-29.85-28.99ZM610.58,315.53c16.25,0,18.05-1.65,18.05-16.93s-1.79-16.79-18.05-16.79-18.05,1.65-18.05,16.79,1.79,16.93,18.05,16.93Z"/>
        <path class="cls-2" d="M657.55,323.64c-3.12-2.51-3.99-6.39-3.99-13.2v-1.51h11.8v.21c0,3.37.41,4.66,1.97,5.67,1.56,1,5.21,1.44,13.25,1.44,9.26,0,11.97-.5,13.42-1.36,1.56-.93,1.97-2.01,1.97-4.66,0-2.44-.52-3.8-1.91-4.66-1.39-.86-4.28-1-18.86-1.43-9.14-.29-13.94-1.29-16.83-3.52-3.18-2.44-4.4-6.46-4.4-13.7s1.74-11.12,4.92-13.49c3.47-2.58,9.49-3.73,21.17-3.73,10.53,0,17.93.93,21.81,4.02,3.24,2.58,3.88,6.89,3.88,12.91v1h-11.8v-.07c0-2.58-.23-4.16-1.79-5.09-1.68-1-4.86-1.36-12.26-1.36-8.16,0-10.93.36-12.38,1.22-1.56.93-1.91,2.37-1.91,4.38,0,2.58.75,3.66,1.79,4.3,1.16.72,3.07,1,14.17,1.29,12.61.29,18.28,1.08,21.69,3.66,3.24,2.44,4.28,6.96,4.28,13.78,0,7.32-1.5,11.41-4.69,13.92s-8.68,4.02-22.62,4.02-19.03-1.08-22.68-4.02Z"/>
      </g>
    </g>
  </g>
</svg>