<svg width="100" height="100" viewBox="0 0 100 100" fill="none" xmlns="http://www.w3.org/2000/svg">
<g clip-path="url(#clip0_2187_3877)">
<path d="M6.01666 27.7874C4.62148 28.186 3.35457 28.9421 2.34129 29.9807C1.32801 31.0193 0.603475 32.3045 0.239384 33.7091C-0.124707 35.1136 -0.115737 36.589 0.265407 37.989C0.646552 39.3891 1.38666 40.6654 2.4125 41.6916L16.6292 55.8916V83.3332H44.1L58.4125 97.6249C59.1807 98.3997 60.0945 99.015 61.1013 99.4355C62.1081 99.8559 63.1881 100.073 64.2792 100.075C64.9963 100.074 65.7103 99.9811 66.4042 99.7999C67.8082 99.4463 69.0942 98.729 70.1329 97.7203C71.1716 96.7116 71.9262 95.4471 72.3208 94.0541L99.9625 0.0874023L6.01666 27.7874ZM8.33333 35.7999L79.2833 14.8832L24.9708 69.1082V52.4416L8.33333 35.7999ZM64.3333 91.7332L47.5542 74.9999H30.8875L85.1917 20.7416L64.3333 91.7332Z" fill="#F4E724"/>
</g>
<defs>
<clipPath id="clip0_2187_3877">
<rect width="100" height="100" fill="white"/>
</clipPath>
</defs>
</svg>
