<svg width="255" height="40" viewBox="0 0 255 40" fill="none" xmlns="http://www.w3.org/2000/svg">
<rect x="114.5" y="1.5" width="139" height="37" rx="18.5" fill="#142B70"/>
<rect x="114.5" y="1.5" width="139" height="37" rx="18.5" stroke="#B2D2EF" stroke-width="3"/>
<path d="M161.715 26L165.907 14.8H168.979L173.155 26H170.771L169.907 23.6H164.867L164.003 26H161.715ZM165.507 21.824H169.267L167.411 16.624H167.395L165.507 21.824ZM174.633 26V18.096H176.761V19.616C177.289 18.496 178.329 17.936 179.641 17.936C181.833 17.936 182.569 19.44 182.569 21.792V26H180.425V21.968C180.425 20.72 180.329 19.536 178.889 19.536C177.545 19.536 176.761 20.576 176.761 22.224V26H174.633ZM187.388 26.16C185.244 26.16 184.524 24.656 184.524 22.304V18.096H186.652V22.112C186.652 23.36 186.748 24.544 188.14 24.544C189.436 24.544 190.22 23.52 190.22 21.856V18.096H192.348V26H190.22V24.464C189.676 25.6 188.668 26.16 187.388 26.16ZM196.815 26.16C195.183 26.16 193.919 25.216 193.919 23.568C193.919 21.952 195.199 20.976 197.343 20.976C198.111 20.976 198.831 21.088 199.471 21.344C199.311 20 198.463 19.456 197.023 19.456C196.255 19.456 195.455 19.648 194.639 20.032V18.512C195.503 18.128 196.479 17.936 197.503 17.936C200.127 17.936 201.631 19.152 201.631 21.824V26H199.503V24.736C198.959 25.664 197.999 26.16 196.815 26.16ZM195.983 23.584C195.983 24.336 196.575 24.784 197.471 24.784C198.719 24.784 199.487 23.984 199.503 22.624C198.911 22.448 198.351 22.368 197.871 22.368C196.511 22.368 195.983 22.88 195.983 23.584ZM203.665 26V14.48H205.793V26H203.665Z" fill="white"/>
<rect width="136" height="40" rx="20" fill="white"/>
<path d="M36.4441 26V14.8H39.6441L42.8761 23.056L46.0921 14.8H49.4201V26H47.1801V17.392L43.7401 26H41.8521L38.4601 17.6V26H36.4441ZM55.8194 26.16C52.7954 26.16 51.1474 24.512 51.1474 21.984C51.1474 19.472 52.8114 17.936 55.4034 17.936C57.5794 17.936 59.1474 19.072 59.1474 21.2C59.1474 21.568 59.0994 21.952 58.9714 22.448H53.2274C53.4514 23.856 54.4114 24.592 56.2674 24.592C57.2114 24.592 57.9954 24.4 58.8594 23.968V25.296C57.8834 25.936 56.8434 26.16 55.8194 26.16ZM53.2274 21.104H57.1954V21.024C57.1954 20 56.5874 19.328 55.4034 19.328C54.2514 19.328 53.4354 19.92 53.2274 21.104ZM60.9068 26V18.096H63.0348V19.616C63.5628 18.496 64.6028 17.936 65.9148 17.936C68.1068 17.936 68.8428 19.44 68.8428 21.792V26H66.6988V21.968C66.6988 20.72 66.6028 19.536 65.1628 19.536C63.8188 19.536 63.0348 20.576 63.0348 22.224V26H60.9068ZM73.4516 26.16C72.2356 26.16 71.0996 25.92 70.4756 25.616V24.112C71.2756 24.432 72.2196 24.64 73.3076 24.64C74.4916 24.64 75.0196 24.416 75.0196 23.776C75.0196 23.184 74.3796 22.944 73.4196 22.688C72.2516 22.384 70.5236 22.08 70.5236 20.224C70.5236 18.464 72.1876 17.936 73.9156 17.936C75.0196 17.936 75.9796 18.128 76.5396 18.336V19.84C75.6756 19.568 74.9076 19.424 73.9156 19.424C73.0356 19.424 72.5236 19.568 72.5236 20.112C72.5236 20.608 72.9556 20.768 74.0116 21.056C75.3396 21.408 77.0356 21.728 77.0356 23.648C77.0356 25.52 75.4356 26.16 73.4516 26.16ZM81.4271 26.16C79.2831 26.16 78.5631 24.656 78.5631 22.304V18.096H80.6911V22.112C80.6911 23.36 80.7871 24.544 82.1791 24.544C83.4751 24.544 84.2591 23.52 84.2591 21.856V18.096H86.3871V26H84.2591V24.464C83.7151 25.6 82.7071 26.16 81.4271 26.16ZM90.8544 26.16C89.2224 26.16 87.9584 25.216 87.9584 23.568C87.9584 21.952 89.2384 20.976 91.3824 20.976C92.1504 20.976 92.8704 21.088 93.5104 21.344C93.3504 20 92.5024 19.456 91.0624 19.456C90.2944 19.456 89.4944 19.648 88.6784 20.032V18.512C89.5424 18.128 90.5184 17.936 91.5424 17.936C94.1664 17.936 95.6704 19.152 95.6704 21.824V26H93.5424V24.736C92.9984 25.664 92.0384 26.16 90.8544 26.16ZM90.0224 23.584C90.0224 24.336 90.6144 24.784 91.5104 24.784C92.7584 24.784 93.5264 23.984 93.5424 22.624C92.9504 22.448 92.3904 22.368 91.9104 22.368C90.5504 22.368 90.0224 22.88 90.0224 23.584ZM97.7037 26V14.48H99.8317V26H97.7037Z" fill="#142B70"/>
</svg>
