<svg width="203" height="40" viewBox="0 0 203 40" fill="none" xmlns="http://www.w3.org/2000/svg">
<rect width="203" height="40" rx="10" fill="#F4E724"/>
<path d="M74.0578 26.16C72.4258 26.16 70.9858 25.792 70.2338 25.424V23.584C71.2258 24.032 72.5698 24.288 73.8338 24.288C75.4978 24.288 76.5058 23.744 76.5058 22.816C76.5058 21.776 75.3378 21.456 74.0898 21.104C72.0418 20.56 70.3778 19.952 70.3778 17.76C70.3778 15.344 72.5858 14.64 74.7778 14.64C76.0258 14.64 77.2258 14.864 78.0098 15.136V16.96C76.9378 16.656 75.9938 16.464 74.9698 16.464C73.4818 16.464 72.6818 16.848 72.6818 17.632C72.6818 18.512 73.5618 18.816 74.9698 19.216C76.8898 19.744 78.8098 20.368 78.8098 22.656C78.8098 25.248 76.4898 26.16 74.0578 26.16ZM84.5716 26.16C81.6116 26.16 80.1396 24.416 80.1396 22.048C80.1396 19.664 81.6116 17.936 84.5716 17.936C87.4996 17.936 89.0036 19.664 89.0036 22.048C89.0036 24.416 87.4996 26.16 84.5716 26.16ZM82.2676 22.048C82.2676 23.472 83.0676 24.528 84.5716 24.528C86.0756 24.528 86.8756 23.472 86.8756 22.048C86.8756 20.608 86.0756 19.568 84.5716 19.568C83.0676 19.568 82.2676 20.608 82.2676 22.048ZM90.6334 26V14.48H92.7614V26H90.6334ZM94.8053 26V18.096H96.9333V26H94.8053ZM94.5813 15.712C94.5813 15.152 94.7413 14.672 95.8773 14.672C97.0133 14.672 97.1733 15.152 97.1733 15.712C97.1733 16.288 97.0133 16.736 95.8773 16.736C94.7413 16.736 94.5813 16.288 94.5813 15.712ZM103.089 26.16C100.353 26.16 98.5771 24.592 98.5771 22.048C98.5771 19.504 100.369 17.936 103.025 17.936C103.905 17.936 104.817 18.064 105.697 18.496V20.176C104.801 19.776 104.081 19.616 103.345 19.616C101.649 19.616 100.705 20.64 100.705 22.032C100.705 23.44 101.649 24.464 103.393 24.464C104.241 24.464 105.009 24.256 105.745 23.856V25.504C104.817 26.048 103.937 26.16 103.089 26.16ZM107.54 26V18.096H109.668V26H107.54ZM107.316 15.712C107.316 15.152 107.476 14.672 108.612 14.672C109.748 14.672 109.908 15.152 109.908 15.712C109.908 16.288 109.748 16.736 108.612 16.736C107.476 16.736 107.316 16.288 107.316 15.712ZM114.992 26.16C112.688 26.16 111.712 24.832 111.712 22.704V15.584H113.856V18.096H116.672V19.664H113.856V22.672C113.856 23.808 114.336 24.432 115.584 24.432C116.176 24.432 116.56 24.32 117.232 24.096V25.728C116.512 26.032 115.744 26.16 114.992 26.16ZM121.019 26.16C119.387 26.16 118.123 25.216 118.123 23.568C118.123 21.952 119.403 20.976 121.547 20.976C122.315 20.976 123.035 21.088 123.675 21.344C123.515 20 122.667 19.456 121.227 19.456C120.459 19.456 119.659 19.648 118.843 20.032V18.512C119.707 18.128 120.683 17.936 121.707 17.936C124.331 17.936 125.835 19.152 125.835 21.824V26H123.707V24.736C123.163 25.664 122.203 26.16 121.019 26.16ZM120.187 23.584C120.187 24.336 120.779 24.784 121.674 24.784C122.923 24.784 123.691 23.984 123.707 22.624C123.115 22.448 122.555 22.368 122.075 22.368C120.715 22.368 120.187 22.88 120.187 23.584ZM127.852 26V18.096H129.98V19.792C130.54 18.512 131.564 17.936 132.956 17.936V19.952C130.492 19.952 129.98 20.768 129.98 22.32V26H127.852Z" fill="black"/>
</svg>
