<svg width="203" height="40" viewBox="0 0 203 40" fill="none" xmlns="http://www.w3.org/2000/svg">
<rect width="203" height="40" rx="10" fill="black"/>
<path d="M29.7594 26.16C26.1434 26.16 23.6634 23.76 23.6634 20.4C23.6634 17.04 26.1594 14.64 29.7594 14.64C30.7514 14.64 31.9194 14.768 33.0554 15.312V17.28C31.9034 16.72 30.9274 16.576 29.9514 16.576C27.5194 16.576 25.9834 18.24 25.9834 20.368C25.9834 22.528 27.5034 24.192 29.9034 24.192C31.0874 24.192 32.0954 23.984 33.1194 23.488V25.408C31.9354 26.032 30.7674 26.16 29.7594 26.16ZM37.4169 26.16C35.7849 26.16 34.5209 25.216 34.5209 23.568C34.5209 21.952 35.8009 20.976 37.9449 20.976C38.7129 20.976 39.4329 21.088 40.0729 21.344C39.9129 20 39.0649 19.456 37.6249 19.456C36.8569 19.456 36.0569 19.648 35.2409 20.032V18.512C36.1049 18.128 37.0809 17.936 38.1049 17.936C40.7289 17.936 42.2329 19.152 42.2329 21.824V26H40.1049V24.736C39.5609 25.664 38.6009 26.16 37.4169 26.16ZM36.5849 23.584C36.5849 24.336 37.1769 24.784 38.0729 24.784C39.3209 24.784 40.0889 23.984 40.1049 22.624C39.5129 22.448 38.9529 22.368 38.4729 22.368C37.1129 22.368 36.5849 22.88 36.5849 23.584ZM44.2506 26V18.096H46.3786V19.488C46.9706 18.432 48.0426 17.936 49.1306 17.936C50.4586 17.936 51.2586 18.592 51.6426 19.728C52.2186 18.512 53.4186 17.936 54.5866 17.936C56.6186 17.936 57.4666 19.344 57.4666 21.696V26H55.3226V21.808C55.3226 20.576 55.1626 19.536 53.8826 19.536C52.5226 19.536 51.9146 20.672 51.9146 22.08V26H49.8026V21.808C49.8026 20.576 49.6426 19.536 48.3626 19.536C46.9706 19.536 46.3786 20.672 46.3786 22.016V26H44.2506ZM64.5554 26.16C63.2914 26.16 62.2354 25.6 61.6754 24.592V26H59.5474V14.48H61.6754V19.504C62.2354 18.496 63.2914 17.936 64.5554 17.936C66.6994 17.936 68.2034 19.44 68.2034 22.048C68.2034 24.624 66.6994 26.16 64.5554 26.16ZM61.6754 22.048C61.6754 23.488 62.5074 24.512 63.8674 24.512C65.2434 24.512 66.0914 23.488 66.0914 22.048C66.0914 20.576 65.2434 19.584 63.8674 19.584C62.5074 19.584 61.6754 20.576 61.6754 22.048ZM69.8443 26V18.096H71.9723V26H69.8443ZM69.6203 15.712C69.6203 15.152 69.7803 14.672 70.9163 14.672C72.0523 14.672 72.2123 15.152 72.2123 15.712C72.2123 16.288 72.0523 16.736 70.9163 16.736C69.7803 16.736 69.6203 16.288 69.6203 15.712ZM76.4482 26.16C74.8162 26.16 73.5522 25.216 73.5522 23.568C73.5522 21.952 74.8322 20.976 76.9762 20.976C77.7442 20.976 78.4642 21.088 79.1042 21.344C78.9442 20 78.0962 19.456 76.6562 19.456C75.8882 19.456 75.0882 19.648 74.2722 20.032V18.512C75.1362 18.128 76.1122 17.936 77.1362 17.936C79.7602 17.936 81.2642 19.152 81.2642 21.824V26H79.1362V24.736C78.5922 25.664 77.6322 26.16 76.4482 26.16ZM75.6162 23.584C75.6162 24.336 76.2082 24.784 77.1042 24.784C78.3522 24.784 79.1202 23.984 79.1362 22.624C78.5442 22.448 77.9842 22.368 77.5042 22.368C76.1442 22.368 75.6162 22.88 75.6162 23.584ZM83.2818 26V18.096H85.4098V19.792C85.9698 18.512 86.9938 17.936 88.3858 17.936V19.952C85.9218 19.952 85.4098 20.768 85.4098 22.32V26H83.2818ZM97.6751 26.16C94.9391 26.16 93.1631 24.592 93.1631 22.048C93.1631 19.504 94.9551 17.936 97.6111 17.936C98.4911 17.936 99.4031 18.064 100.283 18.496V20.176C99.3871 19.776 98.6671 19.616 97.9311 19.616C96.2351 19.616 95.2911 20.64 95.2911 22.032C95.2911 23.44 96.2351 24.464 97.9791 24.464C98.8271 24.464 99.5951 24.256 100.331 23.856V25.504C99.4031 26.048 98.5231 26.16 97.6751 26.16ZM106.079 26.16C103.119 26.16 101.647 24.416 101.647 22.048C101.647 19.664 103.119 17.936 106.079 17.936C109.007 17.936 110.511 19.664 110.511 22.048C110.511 24.416 109.007 26.16 106.079 26.16ZM103.775 22.048C103.775 23.472 104.575 24.528 106.079 24.528C107.583 24.528 108.383 23.472 108.383 22.048C108.383 20.608 107.583 19.568 106.079 19.568C104.575 19.568 103.775 20.608 103.775 22.048ZM112.141 26V18.096H114.269V19.616C114.797 18.496 115.837 17.936 117.149 17.936C119.341 17.936 120.077 19.44 120.077 21.792V26H117.933V21.968C117.933 20.72 117.837 19.536 116.397 19.536C115.053 19.536 114.269 20.576 114.269 22.224V26H112.141ZM125.312 26.16C123.008 26.16 122.032 24.832 122.032 22.704V15.584H124.176V18.096H126.992V19.664H124.176V22.672C124.176 23.808 124.656 24.432 125.904 24.432C126.496 24.432 126.88 24.32 127.552 24.096V25.728C126.832 26.032 126.064 26.16 125.312 26.16ZM128.876 26V18.096H131.004V19.792C131.564 18.512 132.588 17.936 133.98 17.936V19.952C131.516 19.952 131.004 20.768 131.004 22.32V26H128.876ZM137.792 26.16C136.16 26.16 134.896 25.216 134.896 23.568C134.896 21.952 136.176 20.976 138.32 20.976C139.088 20.976 139.808 21.088 140.448 21.344C140.288 20 139.44 19.456 138 19.456C137.232 19.456 136.432 19.648 135.616 20.032V18.512C136.48 18.128 137.456 17.936 138.48 17.936C141.104 17.936 142.608 19.152 142.608 21.824V26H140.48V24.736C139.936 25.664 138.976 26.16 137.792 26.16ZM136.96 23.584C136.96 24.336 137.552 24.784 138.448 24.784C139.696 24.784 140.464 23.984 140.48 22.624C139.888 22.448 139.328 22.368 138.848 22.368C137.488 22.368 136.96 22.88 136.96 23.584ZM147.217 26.16C146.001 26.16 144.865 25.92 144.241 25.616V24.112C145.041 24.432 145.985 24.64 147.073 24.64C148.257 24.64 148.785 24.416 148.785 23.776C148.785 23.184 148.145 22.944 147.185 22.688C146.017 22.384 144.289 22.08 144.289 20.224C144.289 18.464 145.953 17.936 147.681 17.936C148.785 17.936 149.745 18.128 150.305 18.336V19.84C149.441 19.568 148.673 19.424 147.681 19.424C146.801 19.424 146.289 19.568 146.289 20.112C146.289 20.608 146.721 20.768 147.777 21.056C149.105 21.408 150.801 21.728 150.801 23.648C150.801 25.52 149.201 26.16 147.217 26.16ZM156.663 26.16C153.639 26.16 151.991 24.512 151.991 21.984C151.991 19.472 153.655 17.936 156.247 17.936C158.423 17.936 159.991 19.072 159.991 21.2C159.991 21.568 159.943 21.952 159.815 22.448H154.071C154.295 23.856 155.255 24.592 157.111 24.592C158.055 24.592 158.839 24.4 159.703 23.968V25.296C158.727 25.936 157.687 26.16 156.663 26.16ZM154.071 21.104H158.039V21.024C158.039 20 157.431 19.328 156.247 19.328C155.095 19.328 154.279 19.92 154.071 21.104ZM161.751 26V18.096H163.879V19.616C164.407 18.496 165.447 17.936 166.759 17.936C168.951 17.936 169.687 19.44 169.687 21.792V26H167.543V21.968C167.543 20.72 167.447 19.536 166.007 19.536C164.663 19.536 163.879 20.576 163.879 22.224V26H161.751ZM163.207 16.688V15.472C163.671 15.12 164.103 14.928 164.615 14.928C165.431 14.928 166.135 15.632 166.903 15.632C167.383 15.632 167.799 15.376 168.247 14.784V16.096C167.799 16.544 167.367 16.736 166.871 16.736C166.007 16.736 165.335 16.08 164.551 16.08C164.103 16.08 163.671 16.272 163.207 16.688ZM174.151 26.16C172.519 26.16 171.255 25.216 171.255 23.568C171.255 21.952 172.535 20.976 174.679 20.976C175.447 20.976 176.167 21.088 176.807 21.344C176.647 20 175.799 19.456 174.359 19.456C173.591 19.456 172.791 19.648 171.975 20.032V18.512C172.839 18.128 173.815 17.936 174.839 17.936C177.463 17.936 178.967 19.152 178.967 21.824V26H176.839V24.736C176.295 25.664 175.335 26.16 174.151 26.16ZM173.319 23.584C173.319 24.336 173.911 24.784 174.807 24.784C176.055 24.784 176.823 23.984 176.839 22.624C176.247 22.448 175.687 22.368 175.207 22.368C173.847 22.368 173.319 22.88 173.319 23.584Z" fill="white"/>
</svg>
