<svg width="184" height="40" viewBox="0 0 184 40" fill="none" xmlns="http://www.w3.org/2000/svg">
<rect x="0.654541" width="182.4" height="40" rx="10" fill="#142B70"/>
<path d="M62.7201 14.8L58.3681 26H55.9041L51.6321 14.8H54.1121L57.2321 23.568H57.2641L60.4321 14.8H62.7201ZM67.4786 26.16C64.4546 26.16 62.8066 24.512 62.8066 21.984C62.8066 19.472 64.4706 17.936 67.0626 17.936C69.2386 17.936 70.8066 19.072 70.8066 21.2C70.8066 21.568 70.7586 21.952 70.6306 22.448H64.8866C65.1106 23.856 66.0706 24.592 67.9266 24.592C68.8706 24.592 69.6546 24.4 70.5186 23.968V25.296C69.5426 25.936 68.5026 26.16 67.4786 26.16ZM64.8866 21.104H68.8546V21.024C68.8546 20 68.2466 19.328 67.0626 19.328C65.9106 19.328 65.0946 19.92 64.8866 21.104ZM72.566 26V18.096H74.694V19.792C75.254 18.512 76.278 17.936 77.67 17.936V19.952C75.206 19.952 74.694 20.768 74.694 22.32V26H72.566ZM82.8472 29.456V18.096H84.9752V19.504C85.5352 18.496 86.5912 17.936 87.8552 17.936C89.9992 17.936 91.5032 19.44 91.5032 22.032C91.5032 24.624 89.9992 26.16 87.8552 26.16C86.5912 26.16 85.5352 25.6 84.9752 24.592V29.456H82.8472ZM84.9752 22.032C84.9752 23.488 85.8072 24.496 87.1672 24.496C88.5432 24.496 89.3912 23.488 89.3912 22.032C89.3912 20.576 88.5432 19.568 87.1672 19.568C85.8072 19.568 84.9752 20.576 84.9752 22.032ZM93.1441 26V14.48H95.2721V26H93.1441ZM99.7324 26.16C98.1004 26.16 96.8364 25.216 96.8364 23.568C96.8364 21.952 98.1164 20.976 100.26 20.976C101.028 20.976 101.748 21.088 102.388 21.344C102.228 20 101.38 19.456 99.9404 19.456C99.1724 19.456 98.3724 19.648 97.5564 20.032V18.512C98.4204 18.128 99.3964 17.936 100.42 17.936C103.044 17.936 104.548 19.152 104.548 21.824V26H102.42V24.736C101.876 25.664 100.916 26.16 99.7324 26.16ZM98.9004 23.584C98.9004 24.336 99.4924 24.784 100.388 24.784C101.636 24.784 102.404 23.984 102.42 22.624C101.828 22.448 101.268 22.368 100.788 22.368C99.4284 22.368 98.9004 22.88 98.9004 23.584ZM106.566 26V18.096H108.694V19.616C109.222 18.496 110.262 17.936 111.574 17.936C113.766 17.936 114.502 19.44 114.502 21.792V26H112.358V21.968C112.358 20.72 112.262 19.536 110.822 19.536C109.478 19.536 108.694 20.576 108.694 22.224V26H106.566ZM120.807 26.16C117.783 26.16 116.135 24.512 116.135 21.984C116.135 19.472 117.799 17.936 120.391 17.936C122.567 17.936 124.135 19.072 124.135 21.2C124.135 21.568 124.087 21.952 123.959 22.448H118.215C118.439 23.856 119.399 24.592 121.255 24.592C122.199 24.592 122.983 24.4 123.847 23.968V25.296C122.871 25.936 121.831 26.16 120.807 26.16ZM118.215 21.104H122.183V21.024C122.183 20 121.575 19.328 120.391 19.328C119.239 19.328 118.423 19.92 118.215 21.104ZM128.501 26.16C127.285 26.16 126.149 25.92 125.525 25.616V24.112C126.325 24.432 127.269 24.64 128.357 24.64C129.541 24.64 130.069 24.416 130.069 23.776C130.069 23.184 129.429 22.944 128.469 22.688C127.301 22.384 125.573 22.08 125.573 20.224C125.573 18.464 127.237 17.936 128.965 17.936C130.069 17.936 131.029 18.128 131.589 18.336V19.84C130.725 19.568 129.957 19.424 128.965 19.424C128.085 19.424 127.573 19.568 127.573 20.112C127.573 20.608 128.005 20.768 129.061 21.056C130.389 21.408 132.085 21.728 132.085 23.648C132.085 25.52 130.485 26.16 128.501 26.16Z" fill="white"/>
</svg>
