<svg width="142" height="40" viewBox="0 0 142 40" fill="none" xmlns="http://www.w3.org/2000/svg">
<rect x="1.5" y="1.5" width="139" height="37" rx="18.5" fill="#142B70"/>
<rect x="1.5" y="1.5" width="139" height="37" rx="18.5" stroke="#B2D2EF" stroke-width="3"/>
<path d="M48.7151 26L52.9071 14.8H55.9791L60.1551 26H57.7711L56.9071 23.6H51.8671L51.0031 26H48.7151ZM52.5071 21.824H56.2671L54.4111 16.624H54.3951L52.5071 21.824ZM61.6334 26V18.096H63.7614V19.616C64.2894 18.496 65.3294 17.936 66.6414 17.936C68.8334 17.936 69.5694 19.44 69.5694 21.792V26H67.4254V21.968C67.4254 20.72 67.3294 19.536 65.8894 19.536C64.5454 19.536 63.7614 20.576 63.7614 22.224V26H61.6334ZM74.388 26.16C72.244 26.16 71.524 24.656 71.524 22.304V18.096H73.652V22.112C73.652 23.36 73.748 24.544 75.14 24.544C76.436 24.544 77.22 23.52 77.22 21.856V18.096H79.348V26H77.22V24.464C76.676 25.6 75.668 26.16 74.388 26.16ZM83.8154 26.16C82.1834 26.16 80.9194 25.216 80.9194 23.568C80.9194 21.952 82.1994 20.976 84.3434 20.976C85.1114 20.976 85.8314 21.088 86.4714 21.344C86.3114 20 85.4634 19.456 84.0234 19.456C83.2554 19.456 82.4554 19.648 81.6394 20.032V18.512C82.5034 18.128 83.4794 17.936 84.5034 17.936C87.1274 17.936 88.6314 19.152 88.6314 21.824V26H86.5034V24.736C85.9594 25.664 84.9994 26.16 83.8154 26.16ZM82.9834 23.584C82.9834 24.336 83.5754 24.784 84.4714 24.784C85.7194 24.784 86.4874 23.984 86.5034 22.624C85.9114 22.448 85.3514 22.368 84.8714 22.368C83.5114 22.368 82.9834 22.88 82.9834 23.584ZM90.6646 26V14.48H92.7926V26H90.6646Z" fill="white"/>
</svg>
