<svg width="183" height="40" viewBox="0 0 183 40" fill="none" xmlns="http://www.w3.org/2000/svg">
<rect width="182.4" height="40" rx="10" fill="#F4E724"/>
<path d="M31.6235 26.16C28.0075 26.16 25.5275 23.76 25.5275 20.4C25.5275 17.04 28.0235 14.64 31.6235 14.64C32.6155 14.64 33.7835 14.768 34.9195 15.312V17.28C33.7675 16.72 32.7915 16.576 31.8155 16.576C29.3835 16.576 27.8475 18.24 27.8475 20.368C27.8475 22.528 29.3675 24.192 31.7675 24.192C32.9515 24.192 33.9595 23.984 34.9835 23.488V25.408C33.7995 26.032 32.6315 26.16 31.6235 26.16ZM36.6771 26V18.096H38.8051V19.792C39.3651 18.512 40.3891 17.936 41.7811 17.936V19.952C39.3171 19.952 38.8051 20.768 38.8051 22.32V26H36.6771ZM47.3241 26.16C44.3001 26.16 42.6521 24.512 42.6521 21.984C42.6521 19.472 44.3161 17.936 46.9081 17.936C49.0841 17.936 50.6521 19.072 50.6521 21.2C50.6521 21.568 50.6041 21.952 50.4761 22.448H44.7321C44.9561 23.856 45.9161 24.592 47.7721 24.592C48.7161 24.592 49.5001 24.4 50.3641 23.968V25.296C49.3881 25.936 48.3481 26.16 47.3241 26.16ZM44.7321 21.104H48.7001V21.024C48.7001 20 48.0921 19.328 46.9081 19.328C45.7561 19.328 44.9401 19.92 44.7321 21.104ZM54.8435 26.16C53.2115 26.16 51.9475 25.216 51.9475 23.568C51.9475 21.952 53.2275 20.976 55.3715 20.976C56.1395 20.976 56.8595 21.088 57.4995 21.344C57.3395 20 56.4915 19.456 55.0515 19.456C54.2835 19.456 53.4835 19.648 52.6675 20.032V18.512C53.5315 18.128 54.5075 17.936 55.5315 17.936C58.1555 17.936 59.6595 19.152 59.6595 21.824V26H57.5315V24.736C56.9875 25.664 56.0275 26.16 54.8435 26.16ZM54.0115 23.584C54.0115 24.336 54.6035 24.784 55.4995 24.784C56.7475 24.784 57.5155 23.984 57.5315 22.624C56.9395 22.448 56.3795 22.368 55.8995 22.368C54.5395 22.368 54.0115 22.88 54.0115 23.584ZM61.6771 26V18.096H63.8051V19.792C64.3651 18.512 65.3891 17.936 66.7811 17.936V19.952C64.3171 19.952 63.8051 20.768 63.8051 22.32V26H61.6771ZM74.8223 26.16C72.6783 26.16 71.9583 24.656 71.9583 22.304V18.096H74.0863V22.112C74.0863 23.36 74.1823 24.544 75.5743 24.544C76.8703 24.544 77.6543 23.52 77.6543 21.856V18.096H79.7823V26H77.6543V24.464C77.1103 25.6 76.1023 26.16 74.8223 26.16ZM81.8177 26V18.096H83.9457V19.616C84.4737 18.496 85.5137 17.936 86.8257 17.936C89.0177 17.936 89.7537 19.44 89.7537 21.792V26H87.6097V21.968C87.6097 20.72 87.5137 19.536 86.0737 19.536C84.7297 19.536 83.9457 20.576 83.9457 22.224V26H81.8177ZM94.2185 26.16C92.5865 26.16 91.3225 25.216 91.3225 23.568C91.3225 21.952 92.6025 20.976 94.7465 20.976C95.5145 20.976 96.2345 21.088 96.8745 21.344C96.7145 20 95.8665 19.456 94.4265 19.456C93.6585 19.456 92.8585 19.648 92.0425 20.032V18.512C92.9065 18.128 93.8825 17.936 94.9065 17.936C97.5305 17.936 99.0345 19.152 99.0345 21.824V26H96.9065V24.736C96.3625 25.664 95.4025 26.16 94.2185 26.16ZM93.3865 23.584C93.3865 24.336 93.9785 24.784 94.8745 24.784C96.1225 24.784 96.8905 23.984 96.9065 22.624C96.3145 22.448 95.7545 22.368 95.2745 22.368C93.9145 22.368 93.3865 22.88 93.3865 23.584ZM108.883 26.16C106.147 26.16 104.371 24.592 104.371 22.048C104.371 19.504 106.163 17.936 108.819 17.936C109.699 17.936 110.611 18.064 111.491 18.496V20.176C110.595 19.776 109.875 19.616 109.139 19.616C107.443 19.616 106.499 20.64 106.499 22.032C106.499 23.44 107.443 24.464 109.187 24.464C110.035 24.464 110.803 24.256 111.539 23.856V25.504C110.611 26.048 109.731 26.16 108.883 26.16ZM116.135 26.16C113.991 26.16 113.271 24.656 113.271 22.304V18.096H115.399V22.112C115.399 23.36 115.495 24.544 116.887 24.544C118.183 24.544 118.967 23.52 118.967 21.856V18.096H121.095V26H118.967V24.464C118.423 25.6 117.415 26.16 116.135 26.16ZM127.402 26.16C124.378 26.16 122.73 24.512 122.73 21.984C122.73 19.472 124.394 17.936 126.986 17.936C129.162 17.936 130.73 19.072 130.73 21.2C130.73 21.568 130.682 21.952 130.554 22.448H124.81C125.034 23.856 125.994 24.592 127.85 24.592C128.794 24.592 129.578 24.4 130.442 23.968V25.296C129.466 25.936 128.426 26.16 127.402 26.16ZM124.81 21.104H128.778V21.024C128.778 20 128.17 19.328 126.986 19.328C125.834 19.328 125.018 19.92 124.81 21.104ZM132.49 26V18.096H134.618V19.616C135.146 18.496 136.186 17.936 137.498 17.936C139.69 17.936 140.426 19.44 140.426 21.792V26H138.282V21.968C138.282 20.72 138.186 19.536 136.746 19.536C135.402 19.536 134.618 20.576 134.618 22.224V26H132.49ZM145.66 26.16C143.356 26.16 142.38 24.832 142.38 22.704V15.584H144.524V18.096H147.34V19.664H144.524V22.672C144.524 23.808 145.004 24.432 146.252 24.432C146.844 24.432 147.228 24.32 147.9 24.096V25.728C147.18 26.032 146.412 26.16 145.66 26.16ZM151.687 26.16C150.055 26.16 148.791 25.216 148.791 23.568C148.791 21.952 150.071 20.976 152.215 20.976C152.983 20.976 153.703 21.088 154.343 21.344C154.183 20 153.335 19.456 151.895 19.456C151.127 19.456 150.327 19.648 149.511 20.032V18.512C150.375 18.128 151.351 17.936 152.375 17.936C154.999 17.936 156.503 19.152 156.503 21.824V26H154.375V24.736C153.831 25.664 152.871 26.16 151.687 26.16ZM150.855 23.584C150.855 24.336 151.447 24.784 152.343 24.784C153.591 24.784 154.359 23.984 154.375 22.624C153.783 22.448 153.223 22.368 152.743 22.368C151.383 22.368 150.855 22.88 150.855 23.584Z" fill="#1D1D1B"/>
</svg>
