<svg width="185" height="40" viewBox="0 0 185 40" fill="none" xmlns="http://www.w3.org/2000/svg">
<rect width="185" height="40" rx="20" fill="url(#paint0_linear_2187_947)"/>
<path d="M33.28 26V14.8H42.016V16.672H35.52V19.376H41.184V21.184H35.52V24.112H42.016V26H33.28ZM44.0865 26V14.48H46.2145V26H44.0865ZM52.5148 26.16C49.4908 26.16 47.8428 24.512 47.8428 21.984C47.8428 19.472 49.5068 17.936 52.0988 17.936C54.2748 17.936 55.8428 19.072 55.8428 21.2C55.8428 21.568 55.7948 21.952 55.6667 22.448H49.9228C50.1468 23.856 51.1068 24.592 52.9628 24.592C53.9068 24.592 54.6908 24.4 55.5548 23.968V25.296C54.5788 25.936 53.5388 26.16 52.5148 26.16ZM49.9228 21.104H53.8908V21.024C53.8908 20 53.2828 19.328 52.0988 19.328C50.9468 19.328 50.1308 19.92 49.9228 21.104ZM61.0741 29.312C59.8901 29.312 58.9781 29.056 58.2581 28.736V27.168C58.8181 27.472 59.5381 27.744 60.6101 27.744C62.8661 27.744 63.7621 26.672 63.7621 24.288V24.176C63.1541 25.12 62.0981 25.632 60.8501 25.632C58.7221 25.632 57.2021 24.208 57.2021 21.776C57.2021 19.344 58.7221 17.936 60.8501 17.936C62.0981 17.936 63.1541 18.432 63.7621 19.392V18.096H65.8901V24.032C65.8901 27.536 64.3221 29.312 61.0741 29.312ZM59.3141 21.776C59.3141 23.152 60.1781 24.112 61.5381 24.112C62.9141 24.112 63.7621 23.152 63.7621 21.776C63.7621 20.4 62.9141 19.456 61.5381 19.456C60.1781 19.456 59.3141 20.4 59.3141 21.776ZM67.9146 26V18.096H70.0426V26H67.9146ZM67.6906 15.712C67.6906 15.152 67.8506 14.672 68.9866 14.672C70.1226 14.672 70.2826 15.152 70.2826 15.712C70.2826 16.288 70.1226 16.736 68.9866 16.736C67.8506 16.736 67.6906 16.288 67.6906 15.712ZM72.0865 26V18.096H74.2145V19.792C74.7745 18.512 75.7985 17.936 77.1905 17.936V19.952C74.7265 19.952 74.2145 20.768 74.2145 22.32V26H72.0865ZM86.6398 26.16C83.6158 26.16 81.9678 24.512 81.9678 21.984C81.9678 19.472 83.6318 17.936 86.2238 17.936C88.3998 17.936 89.9678 19.072 89.9678 21.2C89.9678 21.568 89.9198 21.952 89.7917 22.448H84.0478C84.2718 23.856 85.2318 24.592 87.0878 24.592C88.0318 24.592 88.8158 24.4 89.6798 23.968V25.296C88.7038 25.936 87.6638 26.16 86.6398 26.16ZM84.0478 21.104H88.0158V21.024C88.0158 20 87.4078 19.328 86.2238 19.328C85.0718 19.328 84.2558 19.92 84.0478 21.104ZM94.3344 26.16C93.1184 26.16 91.9824 25.92 91.3584 25.616V24.112C92.1584 24.432 93.1024 24.64 94.1904 24.64C95.3744 24.64 95.9024 24.416 95.9024 23.776C95.9024 23.184 95.2624 22.944 94.3024 22.688C93.1344 22.384 91.4064 22.08 91.4064 20.224C91.4064 18.464 93.0704 17.936 94.7984 17.936C95.9024 17.936 96.8624 18.128 97.4224 18.336V19.84C96.5584 19.568 95.7904 19.424 94.7984 19.424C93.9184 19.424 93.4064 19.568 93.4064 20.112C93.4064 20.608 93.8384 20.768 94.8944 21.056C96.2224 21.408 97.9184 21.728 97.9184 23.648C97.9184 25.52 96.3184 26.16 94.3344 26.16ZM102.726 26.16C100.422 26.16 99.4459 24.832 99.4459 22.704V15.584H101.59V18.096H104.406V19.664H101.59V22.672C101.59 23.808 102.07 24.432 103.318 24.432C103.91 24.432 104.294 24.32 104.966 24.096V25.728C104.246 26.032 103.478 26.16 102.726 26.16ZM110.562 26.16C107.538 26.16 105.89 24.512 105.89 21.984C105.89 19.472 107.554 17.936 110.146 17.936C112.322 17.936 113.89 19.072 113.89 21.2C113.89 21.568 113.842 21.952 113.714 22.448H107.97C108.194 23.856 109.154 24.592 111.01 24.592C111.954 24.592 112.738 24.4 113.602 23.968V25.296C112.626 25.936 111.586 26.16 110.562 26.16ZM107.97 21.104H111.938V21.024C111.938 20 111.33 19.328 110.146 19.328C108.994 19.328 108.178 19.92 107.97 21.104ZM119.352 29.456V18.096H121.48V19.504C122.04 18.496 123.096 17.936 124.36 17.936C126.504 17.936 128.008 19.44 128.008 22.032C128.008 24.624 126.504 26.16 124.36 26.16C123.096 26.16 122.04 25.6 121.48 24.592V29.456H119.352ZM121.48 22.032C121.48 23.488 122.312 24.496 123.672 24.496C125.048 24.496 125.896 23.488 125.896 22.032C125.896 20.576 125.048 19.568 123.672 19.568C122.312 19.568 121.48 20.576 121.48 22.032ZM129.649 26V14.48H131.777V26H129.649ZM136.237 26.16C134.605 26.16 133.341 25.216 133.341 23.568C133.341 21.952 134.621 20.976 136.765 20.976C137.533 20.976 138.253 21.088 138.893 21.344C138.733 20 137.885 19.456 136.445 19.456C135.677 19.456 134.877 19.648 134.061 20.032V18.512C134.925 18.128 135.901 17.936 136.925 17.936C139.549 17.936 141.053 19.152 141.053 21.824V26H138.925V24.736C138.381 25.664 137.421 26.16 136.237 26.16ZM135.405 23.584C135.405 24.336 135.997 24.784 136.893 24.784C138.141 24.784 138.909 23.984 138.925 22.624C138.333 22.448 137.773 22.368 137.293 22.368C135.933 22.368 135.405 22.88 135.405 23.584ZM143.071 26V18.096H145.199V19.616C145.727 18.496 146.767 17.936 148.079 17.936C150.271 17.936 151.007 19.44 151.007 21.792V26H148.863V21.968C148.863 20.72 148.767 19.536 147.327 19.536C145.983 19.536 145.199 20.576 145.199 22.224V26H143.071Z" fill="white" fill-opacity="0.7"/>
<defs>
<linearGradient id="paint0_linear_2187_947" x1="0" y1="20" x2="185" y2="20" gradientUnits="userSpaceOnUse">
<stop stop-color="#6A87DF"/>
<stop offset="0.990385" stop-color="#142B70"/>
</linearGradient>
</defs>
</svg>
