<svg width="203" height="40" viewBox="0 0 203 40" fill="none" xmlns="http://www.w3.org/2000/svg">
<rect width="203" height="40" rx="10" fill="#F4E724"/>
<path d="M43.2722 26V14.8H52.0082V16.672H45.5122V19.376H51.1762V21.184H45.5122V24.112H52.0082V26H43.2722ZM53.9068 26V18.096H56.0348V19.616C56.5628 18.496 57.6028 17.936 58.9148 17.936C61.1068 17.936 61.8428 19.44 61.8428 21.792V26H59.6988V21.968C59.6988 20.72 59.6028 19.536 58.1628 19.536C56.8188 19.536 56.0348 20.576 56.0348 22.224V26H53.9068ZM66.1067 26L62.8587 18.096H65.2107L67.3067 24.08L69.4027 18.096H71.6587L68.4107 26H66.1067ZM72.9849 26V18.096H75.1129V26H72.9849ZM72.7609 15.712C72.7609 15.152 72.9209 14.672 74.0569 14.672C75.1929 14.672 75.3529 15.152 75.3529 15.712C75.3529 16.288 75.1929 16.736 74.0569 16.736C72.9209 16.736 72.7609 16.288 72.7609 15.712ZM79.5888 26.16C77.9568 26.16 76.6928 25.216 76.6928 23.568C76.6928 21.952 77.9728 20.976 80.1168 20.976C80.8848 20.976 81.6048 21.088 82.2448 21.344C82.0848 20 81.2368 19.456 79.7968 19.456C79.0288 19.456 78.2288 19.648 77.4128 20.032V18.512C78.2768 18.128 79.2528 17.936 80.2768 17.936C82.9008 17.936 84.4048 19.152 84.4048 21.824V26H82.2768V24.736C81.7328 25.664 80.7728 26.16 79.5888 26.16ZM78.7568 23.584C78.7568 24.336 79.3488 24.784 80.2448 24.784C81.4928 24.784 82.2608 23.984 82.2768 22.624C81.6848 22.448 81.1248 22.368 80.6448 22.368C79.2848 22.368 78.7568 22.88 78.7568 23.584ZM86.4224 26V18.096H88.5504V19.792C89.1104 18.512 90.1344 17.936 91.5264 17.936V19.952C89.0624 19.952 88.5504 20.768 88.5504 22.32V26H86.4224ZM96.7037 26V18.096H98.8317V19.488C99.4237 18.432 100.496 17.936 101.584 17.936C102.912 17.936 103.712 18.592 104.096 19.728C104.672 18.512 105.872 17.936 107.04 17.936C109.072 17.936 109.92 19.344 109.92 21.696V26H107.776V21.808C107.776 20.576 107.616 19.536 106.336 19.536C104.976 19.536 104.368 20.672 104.368 22.08V26H102.256V21.808C102.256 20.576 102.096 19.536 100.816 19.536C99.4237 19.536 98.8317 20.672 98.8317 22.016V26H96.7037ZM116.226 26.16C113.202 26.16 111.554 24.512 111.554 21.984C111.554 19.472 113.218 17.936 115.81 17.936C117.986 17.936 119.554 19.072 119.554 21.2C119.554 21.568 119.506 21.952 119.378 22.448H113.634C113.858 23.856 114.818 24.592 116.674 24.592C117.618 24.592 118.402 24.4 119.266 23.968V25.296C118.29 25.936 117.25 26.16 116.226 26.16ZM113.634 21.104H117.602V21.024C117.602 20 116.994 19.328 115.81 19.328C114.658 19.328 113.842 19.92 113.634 21.104ZM121.313 26V18.096H123.441V19.616C123.969 18.496 125.009 17.936 126.321 17.936C128.513 17.936 129.249 19.44 129.249 21.792V26H127.105V21.968C127.105 20.72 127.009 19.536 125.569 19.536C124.225 19.536 123.441 20.576 123.441 22.224V26H121.313ZM133.858 26.16C132.642 26.16 131.506 25.92 130.882 25.616V24.112C131.682 24.432 132.626 24.64 133.714 24.64C134.898 24.64 135.426 24.416 135.426 23.776C135.426 23.184 134.786 22.944 133.826 22.688C132.658 22.384 130.93 22.08 130.93 20.224C130.93 18.464 132.594 17.936 134.322 17.936C135.426 17.936 136.386 18.128 136.946 18.336V19.84C136.082 19.568 135.314 19.424 134.322 19.424C133.442 19.424 132.93 19.568 132.93 20.112C132.93 20.608 133.362 20.768 134.418 21.056C135.746 21.408 137.442 21.728 137.442 23.648C137.442 25.52 135.842 26.16 133.858 26.16ZM141.651 26.16C140.019 26.16 138.755 25.216 138.755 23.568C138.755 21.952 140.035 20.976 142.179 20.976C142.947 20.976 143.667 21.088 144.307 21.344C144.147 20 143.299 19.456 141.859 19.456C141.091 19.456 140.291 19.648 139.475 20.032V18.512C140.339 18.128 141.315 17.936 142.339 17.936C144.963 17.936 146.467 19.152 146.467 21.824V26H144.339V24.736C143.795 25.664 142.835 26.16 141.651 26.16ZM140.819 23.584C140.819 24.336 141.411 24.784 142.307 24.784C143.555 24.784 144.323 23.984 144.339 22.624C143.747 22.448 143.187 22.368 142.707 22.368C141.347 22.368 140.819 22.88 140.819 23.584ZM147.893 29.312C147.285 29.312 146.693 29.184 146.213 28.976V27.504C146.629 27.664 146.997 27.728 147.349 27.728C148.165 27.728 148.501 27.2 148.501 26.256V18.096H150.629V26.176C150.629 28.128 149.653 29.312 147.893 29.312ZM148.277 15.712C148.277 15.152 148.437 14.672 149.573 14.672C150.709 14.672 150.869 15.152 150.869 15.712C150.869 16.288 150.709 16.736 149.573 16.736C148.437 16.736 148.277 16.288 148.277 15.712ZM156.944 26.16C153.92 26.16 152.272 24.512 152.272 21.984C152.272 19.472 153.936 17.936 156.528 17.936C158.704 17.936 160.272 19.072 160.272 21.2C160.272 21.568 160.224 21.952 160.096 22.448H154.352C154.576 23.856 155.536 24.592 157.392 24.592C158.336 24.592 159.12 24.4 159.984 23.968V25.296C159.008 25.936 157.968 26.16 156.944 26.16ZM154.352 21.104H158.32V21.024C158.32 20 157.712 19.328 156.528 19.328C155.376 19.328 154.56 19.92 154.352 21.104Z" fill="black"/>
</svg>
