<svg width="203" height="40" viewBox="0 0 203 40" fill="none" xmlns="http://www.w3.org/2000/svg">
<rect width="203" height="40" rx="10" fill="black"/>
<path d="M52.7938 26V14.8H55.0338V26H52.7938ZM57.2818 26V18.096H59.4098V19.616C59.9378 18.496 60.9778 17.936 62.2898 17.936C64.4818 17.936 65.2178 19.44 65.2178 21.792V26H63.0738V21.968C63.0738 20.72 62.9778 19.536 61.5378 19.536C60.1938 19.536 59.4098 20.576 59.4098 22.224V26H57.2818ZM67.2506 26V18.096H69.3786V26H67.2506ZM67.0266 15.712C67.0266 15.152 67.1866 14.672 68.3226 14.672C69.4586 14.672 69.6186 15.152 69.6186 15.712C69.6186 16.288 69.4586 16.736 68.3226 16.736C67.1866 16.736 67.0266 16.288 67.0266 15.712ZM75.5344 26.16C72.7984 26.16 71.0224 24.592 71.0224 22.048C71.0224 19.504 72.8144 17.936 75.4704 17.936C76.3504 17.936 77.2624 18.064 78.1424 18.496V20.176C77.2464 19.776 76.5264 19.616 75.7904 19.616C74.0944 19.616 73.1504 20.64 73.1504 22.032C73.1504 23.44 74.0944 24.464 75.8384 24.464C76.6864 24.464 77.4544 24.256 78.1904 23.856V25.504C77.2624 26.048 76.3824 26.16 75.5344 26.16ZM79.9849 26V18.096H82.1129V26H79.9849ZM79.7609 15.712C79.7609 15.152 79.9209 14.672 81.0569 14.672C82.1929 14.672 82.3529 15.152 82.3529 15.712C82.3529 16.288 82.1929 16.736 81.0569 16.736C79.9209 16.736 79.7609 16.288 79.7609 15.712ZM86.5888 26.16C84.9568 26.16 83.6928 25.216 83.6928 23.568C83.6928 21.952 84.9728 20.976 87.1168 20.976C87.8848 20.976 88.6048 21.088 89.2448 21.344C89.0848 20 88.2368 19.456 86.7968 19.456C86.0288 19.456 85.2288 19.648 84.4128 20.032V18.512C85.2768 18.128 86.2528 17.936 87.2768 17.936C89.9008 17.936 91.4048 19.152 91.4048 21.824V26H89.2768V24.736C88.7328 25.664 87.7728 26.16 86.5888 26.16ZM85.7568 23.584C85.7568 24.336 86.3488 24.784 87.2448 24.784C88.4928 24.784 89.2608 23.984 89.2768 22.624C88.6848 22.448 88.1248 22.368 87.6448 22.368C86.2848 22.368 85.7568 22.88 85.7568 23.584ZM93.4224 26V18.096H95.5504V19.792C96.1104 18.512 97.1344 17.936 98.5264 17.936V19.952C96.0624 19.952 95.5504 20.768 95.5504 22.32V26H93.4224ZM106.28 26.16C105.064 26.16 103.928 25.92 103.304 25.616V24.112C104.104 24.432 105.048 24.64 106.136 24.64C107.32 24.64 107.848 24.416 107.848 23.776C107.848 23.184 107.208 22.944 106.248 22.688C105.08 22.384 103.352 22.08 103.352 20.224C103.352 18.464 105.016 17.936 106.744 17.936C107.848 17.936 108.808 18.128 109.368 18.336V19.84C108.504 19.568 107.736 19.424 106.744 19.424C105.864 19.424 105.352 19.568 105.352 20.112C105.352 20.608 105.784 20.768 106.84 21.056C108.168 21.408 109.864 21.728 109.864 23.648C109.864 25.52 108.264 26.16 106.28 26.16ZM115.726 26.16C112.702 26.16 111.054 24.512 111.054 21.984C111.054 19.472 112.718 17.936 115.31 17.936C117.486 17.936 119.054 19.072 119.054 21.2C119.054 21.568 119.006 21.952 118.878 22.448H113.134C113.358 23.856 114.318 24.592 116.174 24.592C117.118 24.592 117.902 24.4 118.766 23.968V25.296C117.79 25.936 116.75 26.16 115.726 26.16ZM113.134 21.104H117.102V21.024C117.102 20 116.494 19.328 115.31 19.328C114.158 19.328 113.342 19.92 113.134 21.104ZM123.42 26.16C122.204 26.16 121.068 25.92 120.444 25.616V24.112C121.244 24.432 122.188 24.64 123.276 24.64C124.46 24.64 124.988 24.416 124.988 23.776C124.988 23.184 124.348 22.944 123.388 22.688C122.22 22.384 120.492 22.08 120.492 20.224C120.492 18.464 122.156 17.936 123.884 17.936C124.988 17.936 125.948 18.128 126.508 18.336V19.84C125.644 19.568 124.876 19.424 123.884 19.424C123.004 19.424 122.492 19.568 122.492 20.112C122.492 20.608 122.924 20.768 123.98 21.056C125.308 21.408 127.004 21.728 127.004 23.648C127.004 25.52 125.404 26.16 123.42 26.16ZM128.532 26V18.096H130.66V26H128.532ZM128.308 15.712C128.308 15.152 128.468 14.672 129.604 14.672C130.74 14.672 130.9 15.152 130.9 15.712C130.9 16.288 130.74 16.736 129.604 16.736C128.468 16.736 128.308 16.288 128.308 15.712ZM136.736 26.16C133.776 26.16 132.304 24.416 132.304 22.048C132.304 19.664 133.776 17.936 136.736 17.936C139.664 17.936 141.168 19.664 141.168 22.048C141.168 24.416 139.664 26.16 136.736 26.16ZM134.432 22.048C134.432 23.472 135.232 24.528 136.736 24.528C138.24 24.528 139.04 23.472 139.04 22.048C139.04 20.608 138.24 19.568 136.736 19.568C135.232 19.568 134.432 20.608 134.432 22.048ZM134.624 17.024V16.016L138.848 15.024V16.096L134.624 17.024ZM142.797 26V18.096H144.925V19.616C145.453 18.496 146.493 17.936 147.805 17.936C149.997 17.936 150.733 19.44 150.733 21.792V26H148.589V21.968C148.589 20.72 148.493 19.536 147.053 19.536C145.709 19.536 144.925 20.576 144.925 22.224V26H142.797Z" fill="white"/>
</svg>
