<svg width="22" height="21" viewBox="0 0 22 21" fill="none" xmlns="http://www.w3.org/2000/svg">
<path d="M4 19.3018H18" stroke="#F4E724" stroke-width="2" stroke-linecap="round" stroke-linejoin="round"/>
<path d="M10.5634 1.44906C10.6066 1.37014 10.67 1.30433 10.747 1.25849C10.8241 1.21266 10.9119 1.18848 11.0014 1.18848C11.0909 1.18848 11.1787 1.21266 11.2558 1.25849C11.3328 1.30433 11.3962 1.37014 11.4394 1.44906L14.3914 7.09067C14.4618 7.2213 14.5601 7.33462 14.6791 7.4225C14.7982 7.51037 14.9351 7.57062 15.08 7.59892C15.2249 7.62721 15.3743 7.62285 15.5173 7.58615C15.6604 7.54945 15.7936 7.48131 15.9074 7.38664L20.1844 3.69805C20.2665 3.63082 20.3677 3.59156 20.4734 3.5859C20.579 3.58025 20.6838 3.6085 20.7725 3.66659C20.8612 3.72468 20.9293 3.8096 20.9671 3.90915C21.0048 4.00869 21.0102 4.11772 20.9824 4.22053L18.1484 14.5353C18.0906 14.7464 17.9659 14.9327 17.7934 15.066C17.6209 15.1994 17.4099 15.2725 17.1924 15.2742H4.8114C4.59374 15.2727 4.38251 15.1997 4.20979 15.0664C4.03707 14.933 3.9123 14.7465 3.8544 14.5353L1.0214 4.22154C0.993651 4.11873 0.999022 4.0097 1.03674 3.91016C1.07446 3.81061 1.14258 3.72568 1.2313 3.66759C1.32002 3.60951 1.42476 3.58126 1.53044 3.58691C1.63612 3.59257 1.7373 3.63183 1.8194 3.69906L6.0954 7.38765C6.2092 7.48232 6.34241 7.55045 6.48546 7.58716C6.62852 7.62386 6.77787 7.62822 6.9228 7.59992C7.06773 7.57163 7.20464 7.51138 7.32369 7.42351C7.44275 7.33563 7.541 7.22231 7.6114 7.09168L10.5634 1.44906Z" stroke="#F4E724" stroke-width="2" stroke-linecap="round" stroke-linejoin="round"/>
</svg>
