<svg width="60" height="60" viewBox="0 0 60 60" fill="none" xmlns="http://www.w3.org/2000/svg">
<circle cx="30" cy="30" r="30" fill="#142B70"/>
<path d="M29.7519 47H23.7823L26.6402 35.6667H22.2201C21.5617 35.6674 20.9123 35.5131 20.3239 35.2162C19.7355 34.9193 19.2245 34.4881 18.8318 33.9571C18.4391 33.426 18.1757 32.81 18.0626 32.1582C17.9496 31.5065 17.99 30.8372 18.1807 30.204L24.304 13H37.8758L33.8702 22.9167H37.8293C38.584 22.9177 39.3243 23.1241 39.9716 23.5141C40.6188 23.9041 41.1488 24.463 41.5051 25.1315C41.8615 25.7999 42.0309 26.5529 41.9954 27.3104C41.9598 28.0679 41.7207 28.8015 41.3033 29.4333L29.7519 47ZM32.0684 31.4167L30.2933 38.4702L37.7785 27.0859L27.5877 27.1667L31.5946 17.25H27.2845L22.2004 31.5342L32.0684 31.4167Z" fill="#F4E724"/>
</svg>
