<svg width="108" height="108" viewBox="0 0 108 108" fill="none" xmlns="http://www.w3.org/2000/svg">
<circle cx="54" cy="54" r="54" fill="#F4E724"/>
<path d="M76.4163 56.5209C76.4163 70.3751 66.7184 77.3022 55.1918 81.3199C54.5882 81.5244 53.9325 81.5146 53.3353 81.2922C41.7809 77.3022 32.083 70.3751 32.083 56.5209V37.1251C32.083 36.3902 32.3749 35.6855 32.8946 35.1658C33.4142 34.6462 34.119 34.3543 34.8538 34.3543C40.3955 34.3543 47.3226 31.0293 52.1438 26.8176C52.7309 26.3161 53.4776 26.0405 54.2497 26.0405C55.0218 26.0405 55.7685 26.3161 56.3555 26.8176C61.2045 31.057 68.1038 34.3543 73.6455 34.3543C74.3804 34.3543 75.0852 34.6462 75.6048 35.1658C76.1244 35.6855 76.4163 36.3902 76.4163 37.1251V56.5209Z" stroke="black" stroke-width="2" stroke-linecap="round" stroke-linejoin="round"/>
<path d="M45.9375 53.7499L51.4792 59.2916L62.5625 48.2083" stroke="black" stroke-width="2" stroke-linecap="round" stroke-linejoin="round"/>
</svg>
