<svg width="33" height="40" viewBox="0 0 33 40" fill="none" xmlns="http://www.w3.org/2000/svg">
<path d="M20.9665 0H4.125C1.84965 0 0 1.87 0 4.16667V40H33V12.155L20.9665 0ZM21.45 2.845L30.1834 11.6667H21.45V2.845ZM1.65 38.3333V4.16667C1.65 2.78833 2.76045 1.66667 4.125 1.66667H19.8V13.3333H31.35V38.3333H1.65ZM22.9416 25.865L24.1081 27.0433L18.8232 32.3817C18.1896 33.0217 17.3563 33.3417 16.5231 33.3417C15.6898 33.3417 14.8566 33.0217 14.223 32.3817L8.9397 27.0433L10.1062 25.865L15.3895 31.2033C15.4836 31.2983 15.5875 31.38 15.6981 31.4467V18.3333H17.3481V31.4467C17.457 31.38 17.561 31.3 17.6567 31.2033L22.9416 25.865Z" fill="black"/>
</svg>
