<svg width="33" height="33" viewBox="0 0 33 33" fill="none" xmlns="http://www.w3.org/2000/svg">
<path d="M33 13.75V26.125C33 29.92 29.92 33 26.125 33H6.875C3.08 33 0 29.92 0 26.125V11C0 7.205 3.08 4.125 6.875 4.125H17.875C18.6312 4.125 19.25 4.74375 19.25 5.5C19.25 6.25625 18.6312 6.875 17.875 6.875H6.875C5.29375 6.875 3.9325 7.76875 3.23125 9.06125L13.585 19.415C15.1938 21.0237 17.8062 21.0237 19.415 19.415L24.6675 14.1625C25.2037 13.6262 26.07 13.6262 26.6062 14.1625C27.1425 14.6987 27.1425 15.565 26.6062 16.1012L21.3537 21.3537C20.02 22.6875 18.2462 23.3612 16.4862 23.3612C14.7262 23.3612 12.9662 22.6875 11.6187 21.3537L2.75 12.4712V26.125C2.75 28.3937 4.60625 30.25 6.875 30.25H26.125C28.3937 30.25 30.25 28.3937 30.25 26.125V13.75C30.25 12.9937 30.8687 12.375 31.625 12.375C32.3812 12.375 33 12.9937 33 13.75ZM22 5.5C22 2.46125 24.4612 0 27.5 0C30.5387 0 33 2.46125 33 5.5C33 8.53875 30.5387 11 27.5 11C24.4612 11 22 8.53875 22 5.5ZM24.75 5.5C24.75 7.0125 25.9875 8.25 27.5 8.25C29.0125 8.25 30.25 7.0125 30.25 5.5C30.25 3.9875 29.0125 2.75 27.5 2.75C25.9875 2.75 24.75 3.9875 24.75 5.5Z" fill="black"/>
</svg>
