<svg width="70" height="70" viewBox="0 0 70 70" fill="none" xmlns="http://www.w3.org/2000/svg">
<circle cx="35" cy="35" r="35" fill="#F4E724" fill-opacity="0.2"/>
<g clip-path="url(#clip0_2187_2777)">
<path d="M26.5613 42.3923C24.0038 40.261 22.5 37.0948 22.5 33.7498C22.5 27.5485 27.545 22.5023 33.7462 22.4998C33.7487 22.4998 33.7512 22.501 33.7525 22.501C39.65 22.501 44.4938 27.0585 44.9688 32.8348C45.865 33.0635 46.7137 33.4098 47.4962 33.8635C47.4987 33.8285 47.5163 33.7998 47.5163 33.7648C47.5163 26.176 41.3412 20.001 33.7525 20.001C33.7525 20.001 33.7513 20.001 33.75 20.001V19.9985C26.1687 19.9998 20 26.1685 20 33.7498C20 38.216 22.19 42.4223 25.8575 44.9998L26.6237 45.5373L30.7788 42.2273L29.2212 40.2723L26.5613 42.3923Z" fill="black"/>
<path d="M36.25 33.75C36.25 32.8275 35.7438 32.03 35 31.5963V25H32.5V31.5963C31.7562 32.0288 31.25 32.8262 31.25 33.75C31.25 35.1313 32.3687 36.25 33.75 36.25C35.1313 36.25 36.25 35.1313 36.25 33.75Z" fill="black"/>
<path d="M42.5 35C38.3575 35 35 38.3575 35 42.5C35 46.6425 38.3575 50 42.5 50C46.6425 50 50 46.6425 50 42.5C50 38.3575 46.6425 35 42.5 35ZM45.9138 44.365L42.9325 48.6788L40.8588 47.2825L43.3125 43.7525H40.7687C40.1325 43.7525 39.5262 43.4475 39.1475 42.9375C38.7687 42.4263 38.57 41.7263 38.8363 41.1488C39.4363 39.8488 41.9338 36.3312 41.9338 36.3312L44.0138 37.7175L41.7075 41.2525H44.2438C44.9838 41.2525 45.66 41.6575 46.01 42.31C46.36 42.9625 46.3225 43.7475 45.9138 44.365Z" fill="black"/>
</g>
<defs>
<clipPath id="clip0_2187_2777">
<rect width="30" height="30" fill="white" transform="translate(20 20)"/>
</clipPath>
</defs>
</svg>
