<svg width="100" height="100" viewBox="0 0 100 100" fill="none" xmlns="http://www.w3.org/2000/svg">
<path d="M81.25 4.16675H18.75C8.4125 4.16675 0 12.5792 0 22.9167V77.0834C0 87.4209 8.4125 95.8334 18.75 95.8334H81.25C91.5875 95.8334 100 87.4209 100 77.0834V22.9167C100 12.5792 91.5875 4.16675 81.25 4.16675ZM18.75 8.33341H81.25C89.2917 8.33341 95.8333 14.8751 95.8333 22.9167V33.3334H4.16667V22.9167C4.16667 14.8751 10.7083 8.33341 18.75 8.33341ZM81.25 91.6667H18.75C10.7083 91.6667 4.16667 85.1251 4.16667 77.0834V37.5001H95.8333V77.0834C95.8333 85.1251 89.2917 91.6667 81.25 91.6667ZM12.5 20.8334C12.5 18.5334 14.3667 16.6667 16.6667 16.6667C18.9667 16.6667 20.8333 18.5334 20.8333 20.8334C20.8333 23.1334 18.9667 25.0001 16.6667 25.0001C14.3667 25.0001 12.5 23.1334 12.5 20.8334ZM25 20.8334C25 18.5334 26.8667 16.6667 29.1667 16.6667C31.4667 16.6667 33.3333 18.5334 33.3333 20.8334C33.3333 23.1334 31.4667 25.0001 29.1667 25.0001C26.8667 25.0001 25 23.1334 25 20.8334ZM37.5 20.8334C37.5 18.5334 39.3667 16.6667 41.6667 16.6667C43.9667 16.6667 45.8333 18.5334 45.8333 20.8334C45.8333 23.1334 43.9667 25.0001 41.6667 25.0001C39.3667 25.0001 37.5 23.1334 37.5 20.8334ZM72.3083 49.3917L66.4917 55.2084L72.3083 61.0251C73.1208 61.8376 73.1208 63.1584 72.3083 63.9709C71.9 64.3792 71.3667 64.5792 70.8333 64.5792C70.3 64.5792 69.7667 64.3751 69.3583 63.9709L63.5417 58.1542L57.725 63.9709C57.3167 64.3792 56.7833 64.5792 56.25 64.5792C55.7167 64.5792 55.1833 64.3751 54.775 63.9709C53.9625 63.1584 53.9625 61.8376 54.775 61.0251L60.5917 55.2084L54.775 49.3917C53.9625 48.5792 53.9625 47.2584 54.775 46.4459C55.5875 45.6334 56.9083 45.6334 57.7208 46.4459L63.5375 52.2626L69.3542 46.4459C70.1667 45.6334 71.4875 45.6334 72.3 46.4459C73.1125 47.2584 73.1125 48.5792 72.3 49.3917H72.3083ZM36.4583 58.1584L30.6417 63.9751C30.2333 64.3834 29.7 64.5834 29.1667 64.5834C28.6333 64.5834 28.1 64.3792 27.6917 63.9751C26.8792 63.1626 26.8792 61.8417 27.6917 61.0292L33.5083 55.2126L27.6917 49.3959C26.8792 48.5834 26.8792 47.2626 27.6917 46.4501C28.5042 45.6376 29.825 45.6376 30.6375 46.4501L36.4542 52.2667L42.2708 46.4501C43.0833 45.6376 44.4042 45.6376 45.2167 46.4501C46.0292 47.2626 46.0292 48.5834 45.2167 49.3959L39.4 55.2126L45.2167 61.0292C46.0292 61.8417 46.0292 63.1626 45.2167 63.9751C44.8083 64.3834 44.275 64.5834 43.7417 64.5834C43.2083 64.5834 42.675 64.3792 42.2667 63.9751L36.45 58.1584H36.4583ZM68.5417 83.1376C68.1542 83.8001 67.4583 84.1709 66.7417 84.1709C66.3875 84.1709 66.025 84.0792 65.6958 83.8876C54.975 77.6292 45.0333 77.6292 34.3125 83.8876C33.325 84.4751 32.0458 84.1334 31.4625 83.1376C30.8833 82.1459 31.2167 80.8709 32.2125 80.2876C44.225 73.2709 55.7833 73.2709 67.7958 80.2876C68.7917 80.8667 69.1208 82.1417 68.5417 83.1376Z" fill="#FA0F0F"/>
</svg>
