<svg width="40" height="40" viewBox="0 0 40 40" fill="none" xmlns="http://www.w3.org/2000/svg">
<path d="M4.16667 29.9247C1.87 29.9247 0 31.7908 0 34.0826C0 36.3744 1.87 38.2404 4.16667 38.2404C6.46333 38.2404 8.33333 36.3744 8.33333 34.0826C8.33333 31.7908 6.46333 29.9247 4.16667 29.9247ZM4.16667 36.5773C2.78833 36.5773 1.66667 35.458 1.66667 34.0826C1.66667 32.7072 2.78833 31.5879 4.16667 31.5879C5.545 31.5879 6.66667 32.7072 6.66667 34.0826C6.66667 35.458 5.545 36.5773 4.16667 36.5773ZM35.8333 9.96715C38.13 9.96715 40 8.10112 40 5.80932C40 3.51753 38.13 1.65149 35.8333 1.65149C33.5367 1.65149 31.6667 3.51753 31.6667 5.80932C31.6667 8.10112 33.5367 9.96715 35.8333 9.96715ZM35.8333 3.31462C37.2117 3.31462 38.3333 4.43391 38.3333 5.80932C38.3333 7.18473 37.2117 8.30402 35.8333 8.30402C34.455 8.30402 33.3333 7.18473 33.3333 5.80932C33.3333 4.43391 34.455 3.31462 35.8333 3.31462ZM30 19.9459H7.5C3.365 19.9459 0 16.5881 0 12.4619C0 8.33562 3.365 4.97776 7.5 4.97776H25.9983L22.1883 1.17583L23.3667 0L27.7733 4.39732C28.5833 5.2056 28.5833 6.52281 27.7733 7.33109L23.3667 11.7284L22.1883 10.5526L26.1067 6.64255H7.5C4.28333 6.64255 1.66667 9.25367 1.66667 12.4635C1.66667 15.6734 4.28333 18.2845 7.5 18.2845H30C33.6767 18.2845 36.6667 21.2681 36.6667 24.937V26.6001H35V24.937C35 22.1862 32.7567 19.9476 30 19.9476V19.9459ZM35.8333 29.9247C33.5367 29.9247 31.6667 31.7908 31.6667 34.0826C31.6667 36.3744 33.5367 38.2404 35.8333 38.2404C38.13 38.2404 40 36.3744 40 34.0826C40 31.7908 38.13 29.9247 35.8333 29.9247ZM35.8333 36.5773C34.455 36.5773 33.3333 35.458 33.3333 34.0826C33.3333 32.7072 34.455 31.5879 35.8333 31.5879C37.2117 31.5879 38.3333 32.7072 38.3333 34.0826C38.3333 35.458 37.2117 36.5773 35.8333 36.5773ZM27.7733 32.6689C28.5833 33.4772 28.5833 34.7944 27.7733 35.6027L23.3667 40L22.1883 38.8242L26.1067 34.9141H11.6667V33.251H25.9983L22.1883 29.4491L23.3667 28.2733L27.7733 32.6689Z" fill="black"/>
</svg>
