<svg width="150" height="152" viewBox="0 0 150 152" fill="none" xmlns="http://www.w3.org/2000/svg">
<path d="M112.178 86.6659C112.33 87.0443 112.594 87.3672 112.935 87.5912C113.275 87.8153 113.676 87.9298 114.084 87.9193C114.491 87.9089 114.886 87.774 115.215 87.5328C115.543 87.2916 115.79 86.9557 115.923 86.57L141.899 10.6385C142.027 10.2844 142.052 9.90119 141.97 9.53372C141.888 9.16625 141.703 8.82971 141.437 8.56349C141.17 8.29726 140.834 8.11236 140.466 8.03042C140.099 7.94849 139.716 7.97289 139.362 8.10079L63.4301 34.0774C63.0444 34.2096 62.7084 34.4567 62.4672 34.7854C62.226 35.1141 62.0912 35.5088 62.0807 35.9163C62.0703 36.3239 62.1848 36.7249 62.4088 37.0656C62.6329 37.4062 62.9558 37.6702 63.3342 37.822L95.0256 50.5305C96.0274 50.9316 96.9377 51.5315 97.7014 52.2938C98.4652 53.0562 99.0667 53.9654 99.4696 54.9665L112.178 86.6659Z" stroke="#142B70" stroke-width="2" stroke-linecap="round" stroke-linejoin="round"/>
<path d="M141.424 8.58032L97.7031 52.2969" stroke="#142B70" stroke-width="2" stroke-linecap="round" stroke-linejoin="round"/>
<path d="M58.0917 142.195C58.2435 142.573 58.5075 142.896 58.8481 143.12C59.1887 143.344 59.5897 143.459 59.9973 143.448C60.4049 143.438 60.7995 143.303 61.1283 143.062C61.457 142.82 61.704 142.484 61.8363 142.099L87.8129 66.1673C87.9408 65.8132 87.9652 65.43 87.8832 65.0625C87.8013 64.6951 87.6164 64.3585 87.3502 64.0923C87.0839 63.8261 86.7474 63.6412 86.3799 63.5592C86.0125 63.4773 85.6293 63.5017 85.2751 63.6296L9.34366 89.6062C8.95799 89.7384 8.62201 89.9855 8.38081 90.3142C8.13962 90.6429 8.00475 91.0376 7.99431 91.4451C7.98387 91.8527 8.09836 92.2537 8.32241 92.5944C8.54646 92.935 8.86935 93.199 9.24774 93.3508L40.9392 106.059C41.941 106.46 42.8512 107.06 43.615 107.823C44.3788 108.585 44.9802 109.494 45.3831 110.495L58.0917 142.195Z" stroke="#142B70" stroke-width="2" stroke-linecap="round" stroke-linejoin="round"/>
<path d="M87.3373 64.1091L43.6167 107.826" stroke="#142B70" stroke-width="2" stroke-linecap="round" stroke-linejoin="round"/>
</svg>
