<svg width="60" height="60" viewBox="0 0 60 60" fill="none" xmlns="http://www.w3.org/2000/svg">
<circle cx="30" cy="30" r="30" fill="#142B70"/>
<g clip-path="url(#clip0_2187_912)">
<path d="M39.1264 46H36.3764C35.6174 46 35.0014 45.384 35.0014 44.625C35.0014 43.866 35.6174 43.25 36.3764 43.25H39.1264C39.8854 43.25 40.5014 43.866 40.5014 44.625C40.5014 45.384 39.8854 46 39.1264 46ZM30.8764 46H28.1264C27.3674 46 26.7514 45.384 26.7514 44.625C26.7514 43.866 27.3674 43.25 28.1264 43.25H30.8764C31.6354 43.25 32.2514 43.866 32.2514 44.625C32.2514 45.384 31.6354 46 30.8764 46ZM43.8605 43.7904C43.6048 43.7904 43.3476 43.7203 43.1166 43.5704C42.4786 43.1593 42.2944 42.3081 42.7069 41.6701C43.063 41.1188 43.2514 40.4753 43.2514 39.8125C43.2514 39.0535 43.8674 38.4375 44.6264 38.4375C45.3868 38.4375 46.0014 39.0535 46.0014 39.8125C46.0014 41.006 45.6604 42.1624 45.0183 43.1593C44.7556 43.5663 44.3129 43.789 43.8619 43.789L43.8605 43.7904ZM41.8131 36.8095C41.622 36.8095 41.4268 36.7696 41.2411 36.6844C40.7929 36.4795 40.3116 36.375 39.8111 36.375H39.125C38.366 36.375 37.75 35.759 37.75 35C37.75 34.241 38.366 33.625 39.125 33.625H39.8125C40.7104 33.625 41.5753 33.8134 42.3851 34.1846C43.0754 34.4995 43.3793 35.3163 43.063 36.0065C42.832 36.5111 42.3329 36.8095 41.8118 36.8095H41.8131ZM33.6264 36.375C32.3971 36.375 31.1899 35.957 30.226 35.198C29.6293 34.7278 29.5261 33.8629 29.9964 33.2675C30.4666 32.6708 31.3329 32.5676 31.9269 33.0379C32.415 33.4215 33.0021 33.625 33.625 33.625C34.384 33.625 35 34.241 35 35C35 35.759 34.3854 36.375 33.625 36.375H33.6264ZM29.8726 30.5368C29.6815 30.5368 29.4876 30.4969 29.302 30.4116C28.6118 30.0968 28.3065 29.28 28.6228 28.5898C28.9143 27.9518 29.3213 27.3811 29.8314 26.8944C30.3786 26.3719 31.2518 26.3911 31.7756 26.9411C32.2995 27.4898 32.2789 28.3601 31.7289 28.8854C31.4731 29.1288 31.271 29.4148 31.1253 29.7338C30.8943 30.2398 30.3951 30.5381 29.874 30.5381L29.8726 30.5368ZM43.9884 15.013C42.689 13.715 40.962 13 39.1264 13C37.2908 13 35.5638 13.715 34.2644 15.013C31.5845 17.6943 31.5845 22.0558 34.2754 24.7466L36.7518 27.168C37.4063 27.8088 38.267 28.1291 39.1264 28.1291C39.9858 28.1291 40.8465 27.8088 41.501 27.168L43.9884 24.7356C46.6683 22.0544 46.6683 17.6929 43.9884 15.013ZM39.1264 21.9375C37.9879 21.9375 37.0639 21.0135 37.0639 19.875C37.0639 18.7365 37.9879 17.8125 39.1264 17.8125C40.2649 17.8125 41.1889 18.7365 41.1889 19.875C41.1889 21.0135 40.2649 21.9375 39.1264 21.9375ZM24.737 32.888C23.439 31.59 21.712 30.875 19.8764 30.875C18.0408 30.875 16.3138 31.59 15.0144 32.888C12.3345 35.5693 12.3345 39.9308 15.0254 42.6216L17.5018 45.043C18.1563 45.6838 19.017 46.0041 19.8764 46.0041C20.7358 46.0041 21.5965 45.6838 22.251 45.043L24.737 42.6106C27.4183 39.9294 27.4183 35.5679 24.737 32.888ZM19.8764 39.8125C18.7379 39.8125 17.8139 38.8885 17.8139 37.75C17.8139 36.6115 18.7379 35.6875 19.8764 35.6875C21.0149 35.6875 21.9389 36.6115 21.9389 37.75C21.9389 38.8885 21.0149 39.8125 19.8764 39.8125Z" fill="#F4E724"/>
</g>
<defs>
<clipPath id="clip0_2187_912">
<rect width="33" height="33" fill="white" transform="translate(13 13)"/>
</clipPath>
</defs>
</svg>
