<svg width="33" height="39" viewBox="0 0 33 39" fill="none" xmlns="http://www.w3.org/2000/svg">
<path d="M20.4831 0H4.95C3.63718 0 2.37813 0.513615 1.44982 1.42785C0.521517 2.34209 0 3.58207 0 4.875V39H33V12.3272L20.4831 0ZM21.45 5.54775L27.3669 11.375H21.45V5.54775ZM3.3 35.75V4.875C3.3 4.44402 3.47384 4.0307 3.78327 3.72595C4.09271 3.4212 4.51239 3.25 4.95 3.25H18.15V14.625H29.7V35.75H3.3ZM21.9335 21.3232L24.2666 23.621L18.3497 29.4466C17.89 29.8994 17.3443 30.2586 16.7437 30.5036C16.143 30.7486 15.4993 30.8748 14.8492 30.8748C14.1991 30.8748 13.5553 30.7486 12.9547 30.5036C12.3541 30.2586 11.8084 29.8994 11.3487 29.4466L8.73345 26.871L11.0665 24.5732L13.6835 27.1489C13.9976 27.4447 14.4154 27.6098 14.85 27.6098C15.2846 27.6098 15.7024 27.4447 16.0165 27.1489L21.9335 21.3232Z" fill="black"/>
</svg>
