<svg width="60" height="60" viewBox="0 0 60 60" fill="none" xmlns="http://www.w3.org/2000/svg">
<circle cx="30" cy="30" r="30" fill="#142B70"/>
<g clip-path="url(#clip0_2187_918)">
<path d="M45.9375 42.875H22.5625C21.6508 42.875 20.7765 42.5128 20.1318 41.8682C19.4872 41.2235 19.125 40.3492 19.125 39.4375V16.0625C19.125 15.5155 18.9077 14.9909 18.5209 14.6041C18.1341 14.2173 17.6095 14 17.0625 14C16.5155 14 15.9909 14.2173 15.6041 14.6041C15.2173 14.9909 15 15.5155 15 16.0625V39.4375C15.0022 41.4425 15.7996 43.3648 17.2174 44.7826C18.6352 46.2004 20.5575 46.9978 22.5625 47H45.9375C46.4845 47 47.0091 46.7827 47.3959 46.3959C47.7827 46.0091 48 45.4845 48 44.9375C48 44.3905 47.7827 43.8659 47.3959 43.4791C47.0091 43.0923 46.4845 42.875 45.9375 42.875Z" fill="#F4E724"/>
<path d="M45.9398 19.4668H41.6966C41.4247 19.4669 41.1589 19.5475 40.9328 19.6986C40.7067 19.8497 40.5306 20.0644 40.4265 20.3156C40.3225 20.5669 40.2952 20.8433 40.3483 21.11C40.4013 21.3767 40.5322 21.6216 40.7244 21.8139L41.7323 22.8204L36.8002 27.7498C36.7363 27.8138 36.6605 27.8646 36.5769 27.8993C36.4934 27.9339 36.4039 27.9518 36.3134 27.9518C36.223 27.9518 36.1335 27.9339 36.0499 27.8993C35.9664 27.8646 35.8906 27.8138 35.8267 27.7498L35.5929 27.516C34.6763 26.6404 33.4575 26.1518 32.1898 26.1518C30.9222 26.1518 29.7033 26.6404 28.7867 27.516L23.1492 33.1535C22.9522 33.3438 22.7951 33.5714 22.687 33.823C22.5789 34.0747 22.522 34.3453 22.5196 34.6192C22.5172 34.893 22.5694 35.1646 22.6731 35.4181C22.7768 35.6716 22.93 35.9018 23.1236 36.0955C23.3173 36.2891 23.5476 36.4423 23.801 36.546C24.0545 36.6497 24.3261 36.7019 24.6 36.6995C24.8738 36.6971 25.1445 36.6402 25.3961 36.5321C25.6477 36.424 25.8753 36.2669 26.0656 36.0699L31.7031 30.4324C31.7669 30.3684 31.8428 30.3176 31.9263 30.2829C32.0098 30.2483 32.0994 30.2304 32.1898 30.2304C32.2802 30.2304 32.3698 30.2483 32.4533 30.2829C32.5368 30.3176 32.6127 30.3684 32.6766 30.4324L32.9103 30.6662C33.8272 31.5412 35.046 32.0294 36.3134 32.0294C37.5809 32.0294 38.7996 31.5412 39.7166 30.6662L44.6473 25.7368L45.6538 26.7447C45.846 26.9374 46.0911 27.0687 46.3581 27.122C46.625 27.1753 46.9017 27.1482 47.1532 27.0441C47.4047 26.94 47.6196 26.7636 47.7708 26.5372C47.922 26.3109 48.0025 26.0447 48.0023 25.7725V21.5293C48.0023 20.9823 47.785 20.4577 47.3982 20.0709C47.0114 19.6841 46.4868 19.4668 45.9398 19.4668Z" fill="#F4E724"/>
</g>
<defs>
<clipPath id="clip0_2187_918">
<rect width="33" height="33" fill="white" transform="translate(15 14)"/>
</clipPath>
</defs>
</svg>
