<svg width="60" height="60" viewBox="0 0 60 60" fill="none" xmlns="http://www.w3.org/2000/svg">
<circle cx="30" cy="30" r="30" fill="#F4E724"/>
<path d="M43.7388 31.6087V22.1739C43.7388 21.459 43.4547 20.7733 42.9492 20.2678C42.4437 19.7623 41.758 19.4783 41.0431 19.4783H19.4779C18.7629 19.4783 18.0773 19.7623 17.5718 20.2678C17.0662 20.7733 16.7822 21.459 16.7822 22.1739V38.3478C16.7822 39.8304 17.9953 41.0435 19.4779 41.0435H30.2605" stroke="black" stroke-width="2" stroke-linecap="round" stroke-linejoin="round"/>
<path d="M43.7388 23.5217L31.6487 31.2043C31.2326 31.465 30.7515 31.6033 30.2605 31.6033C29.7695 31.6033 29.2883 31.465 28.8722 31.2043L16.7822 23.5217" stroke="black" stroke-width="2" stroke-linecap="round" stroke-linejoin="round"/>
<path d="M35.6523 39.6957L38.348 42.3913L43.7393 37" stroke="black" stroke-width="2" stroke-linecap="round" stroke-linejoin="round"/>
</svg>
