<svg width="70" height="70" viewBox="0 0 70 70" fill="none" xmlns="http://www.w3.org/2000/svg">
<circle cx="35" cy="35" r="35" fill="#F4E724" fill-opacity="0.2"/>
<g clip-path="url(#clip0_2187_2785)">
<path d="M41.8732 21.1465C40.4657 21.1684 39.0888 21.5613 37.8817 22.2856C36.6746 23.0098 35.6799 24.0398 34.9982 25.2715C34.3165 24.0398 33.3219 23.0098 32.1148 22.2856C30.9077 21.5613 29.5308 21.1684 28.1232 21.1465C25.8794 21.244 23.7654 22.2256 22.243 23.8768C20.7206 25.528 19.9136 27.7146 19.9982 29.959C19.9982 38.4277 33.6932 48.209 34.2757 48.624L34.9982 49.1352L35.7207 48.624C36.3032 48.2115 49.9982 38.4277 49.9982 29.959C50.0829 27.7146 49.2759 25.528 47.7535 23.8768C46.2311 22.2256 44.1171 21.244 41.8732 21.1465ZM34.9982 46.0577C30.932 43.0202 22.4982 35.5577 22.4982 29.959C22.4128 28.3774 22.9562 26.8261 24.0099 25.6436C25.0637 24.4611 26.5423 23.7432 28.1232 23.6465C29.7042 23.7432 31.1828 24.4611 32.2365 25.6436C33.2903 26.8261 33.8337 28.3774 33.7482 29.959H36.2482C36.1628 28.3774 36.7062 26.8261 37.7599 25.6436C38.8137 24.4611 40.2923 23.7432 41.8732 23.6465C43.4542 23.7432 44.9328 24.4611 45.9865 25.6436C47.0403 26.8261 47.5837 28.3774 47.4982 29.959C47.4982 35.5602 39.0645 43.0202 34.9982 46.0577Z" fill="black"/>
</g>
<defs>
<clipPath id="clip0_2187_2785">
<rect width="30" height="30" fill="white" transform="translate(20 20)"/>
</clipPath>
</defs>
</svg>
