<svg width="33" height="24" viewBox="0 0 33 24" fill="none" xmlns="http://www.w3.org/2000/svg">
<path d="M16.494 9.26022C18.007 9.26022 19.245 10.4908 19.245 11.9949C19.245 13.4989 18.007 14.7295 16.494 14.7295C14.9809 14.7295 13.743 13.4989 13.743 11.9949C13.743 10.4908 14.9809 9.26022 16.494 9.26022ZM28.172 23.6035C34.6093 17.2044 34.6093 6.79903 28.172 0.399943C27.6355 -0.133314 26.769 -0.133314 26.2325 0.399943C25.6961 0.9332 25.6961 1.79462 26.2325 2.32787C31.597 7.66045 31.597 16.3293 26.2325 21.6619C25.6961 22.1951 25.6961 23.0565 26.2325 23.5898C26.5076 23.8633 26.8515 23.9863 27.2091 23.9863C27.5668 23.9863 27.9106 23.8496 28.1857 23.5898L28.172 23.6035ZM23.3027 18.7631C25.1184 16.9583 26.1225 14.5518 26.1225 11.9949C26.1225 9.43797 25.1184 7.03148 23.3027 5.22661C22.7663 4.69335 21.8997 4.69335 21.3633 5.22661C20.8268 5.75986 20.8268 6.62128 21.3633 7.15454C22.6562 8.43982 23.3715 10.1627 23.3715 11.9949C23.3715 13.8271 22.6562 15.5362 21.3633 16.8352C20.8268 17.3685 20.8268 18.2299 21.3633 18.7631C21.6384 19.0366 21.9822 19.1597 22.3399 19.1597C22.6975 19.1597 23.0414 19.0229 23.3165 18.7631H23.3027ZM6.76919 23.6035C7.30563 23.0702 7.30563 22.2088 6.76919 21.6755C1.40473 16.343 1.40473 7.67412 6.76919 2.34155C7.30563 1.80829 7.30563 0.946874 6.76919 0.413616C6.23274 -0.119641 5.36618 -0.119641 4.82973 0.413616C-1.60762 6.78536 -1.60762 17.2044 4.81598 23.6035C5.09108 23.8769 5.43495 24 5.79258 24C6.15021 24 6.49409 23.8633 6.76919 23.6035ZM11.6385 18.7631C12.1749 18.2299 12.1749 17.3685 11.6385 16.8352C8.95624 14.1689 8.95624 9.8345 11.6385 7.16821C12.1749 6.63495 12.1749 5.77354 11.6385 5.24028C11.102 4.70702 10.2355 4.70702 9.69901 5.24028C5.94389 8.97308 5.94389 15.044 9.69901 18.7768C9.97411 19.0503 10.318 19.1733 10.6756 19.1733C11.0332 19.1733 11.3771 19.0366 11.6522 18.7768L11.6385 18.7631Z" fill="black"/>
</svg>
