<svg width="40" height="40" viewBox="0 0 40 40" fill="none" xmlns="http://www.w3.org/2000/svg">
<g clip-path="url(#clip0_2187_1040)">
<path d="M31.6667 6.66667V0.833333C31.6667 0.373333 32.04 0 32.5 0C32.96 0 33.3333 0.373333 33.3333 0.833333V6.66667H39.1667C39.6267 6.66667 40 7.04 40 7.5C40 7.96 39.6267 8.33333 39.1667 8.33333H33.3333V14.1667C33.3333 14.6267 32.96 15 32.5 15C32.04 15 31.6667 14.6267 31.6667 14.1667V8.33333H25.8333C25.3733 8.33333 25 7.96 25 7.5C25 7.04 25.3733 6.66667 25.8333 6.66667H31.6667ZM26.6667 16.6667C26.6667 20.3433 23.6767 23.3333 20 23.3333C16.3233 23.3333 13.3333 20.3433 13.3333 16.6667C13.3333 12.99 16.3233 10 20 10C23.6767 10 26.6667 12.99 26.6667 16.6667ZM25 16.6667C25 13.91 22.7567 11.6667 20 11.6667C17.2433 11.6667 15 13.91 15 16.6667C15 19.4233 17.2433 21.6667 20 21.6667C22.7567 21.6667 25 19.4233 25 16.6667ZM39.1317 14.1517C39.7083 16.0417 40 18.0083 40 20C40 31.0283 31.0283 40 20 40C8.97167 40 0 31.0283 0 20C0 8.97167 8.97167 0 20 0C22.0783 0 24.1283 0.316667 26.0867 0.943333C26.525 1.08333 26.7667 1.55167 26.6267 1.99C26.485 2.42833 26.015 2.67167 25.5783 2.53C23.7833 1.95667 21.905 1.665 19.9983 1.665C9.89167 1.66667 1.66667 9.89167 1.66667 20C1.66667 26.4567 5.03 32.1333 10.09 35.4C10.715 30.4833 14.9167 26.6667 20 26.6667C25.0833 26.6667 29.285 30.4833 29.91 35.4C34.9683 32.1333 38.3333 26.4567 38.3333 20C38.3333 18.1733 38.0667 16.37 37.5367 14.6383C37.4033 14.1983 37.65 13.7317 38.0917 13.5983C38.5317 13.46 38.9967 13.7133 39.1317 14.1517ZM20 38.3333C22.9883 38.3333 25.8033 37.6 28.2983 36.3267C28.115 31.8933 24.4783 28.3333 20 28.3333C15.5217 28.3333 11.8833 31.8917 11.7017 36.3267C14.1967 37.6 17.0117 38.3333 20 38.3333Z" fill="black"/>
</g>
<defs>
<clipPath id="clip0_2187_1040">
<rect width="40" height="40" fill="white"/>
</clipPath>
</defs>
</svg>
