<svg width="33" height="33" viewBox="0 0 33 33" fill="none" xmlns="http://www.w3.org/2000/svg">
<path d="M1.5 7.19411H4.2735C4.7325 9.87931 6.4635 11.2384 9.438 11.2384C12.4125 11.2384 14.1435 9.87931 14.601 7.19411H31.5C32.328 7.19411 33 6.48856 33 5.61922C33 4.74988 32.328 4.04433 31.5 4.04433H14.601C14.142 1.35913 12.4125 0 9.438 0C6.4635 0 4.7325 1.35913 4.2735 4.04433H1.5C0.672 4.04433 0 4.74988 0 5.61922C0 6.48856 0.672 7.19411 1.5 7.19411ZM9.438 3.14821C11.154 3.14821 11.7255 3.50571 11.7255 5.61764C11.7255 7.7154 11.127 8.08708 9.438 8.08708C7.7205 8.08708 7.1505 7.72958 7.1505 5.61764C7.1505 3.51989 7.7505 3.14821 9.438 3.14821Z" fill="black"/>
<path d="M31.5 14.9257H28.7265C28.2675 12.2405 26.5365 10.8813 23.562 10.8813C20.5875 10.8813 18.8565 12.2405 18.399 14.9257H1.5C0.672 14.9257 0 15.6312 0 16.5006C0 17.3699 0.672 18.0755 1.5 18.0755H18.399C18.858 20.7607 20.5875 22.1198 23.562 22.1198C26.5365 22.1198 28.2675 20.7607 28.7265 18.0755H31.5C32.328 18.0755 33 17.3699 33 16.5006C33 15.6312 32.328 14.9257 31.5 14.9257ZM23.562 18.97C21.846 18.97 21.2745 18.6125 21.2745 16.5006C21.2745 14.4028 21.873 14.0311 23.562 14.0311C25.2795 14.0311 25.8495 14.3886 25.8495 16.5006C25.8495 18.5967 25.2495 18.97 23.562 18.97Z" fill="black"/>
<path d="M31.5 25.8056H14.601C14.142 23.1204 12.4125 21.7612 9.438 21.7612C6.4635 21.7612 4.7325 23.1204 4.2735 25.8056H1.5C0.672 25.8056 0 26.5095 0 27.3805C0 28.2514 0.672 28.9553 1.5 28.9553H4.2735C4.7325 31.6405 6.462 32.9997 9.438 32.9997C12.414 32.9997 14.1435 31.6405 14.601 28.9553H31.5C32.328 28.9553 33 28.2514 33 27.3805C33 26.5095 32.328 25.8056 31.5 25.8056ZM9.438 29.8499C7.7205 29.8499 7.1505 29.4924 7.1505 27.3805C7.1505 25.2843 7.7505 24.911 9.438 24.911C11.154 24.911 11.7255 25.2685 11.7255 27.3805C11.7255 29.4766 11.127 29.8499 9.438 29.8499Z" fill="black"/>
</svg>
