<svg width="145" height="20" viewBox="0 0 145 20" fill="none" xmlns="http://www.w3.org/2000/svg">
<path d="M17.7582 4.2041H10.6901C10.1364 4.2041 9.6875 4.64813 9.6875 5.19588V6.84931C9.6875 7.39705 10.1364 7.84108 10.6901 7.84108H17.7582C18.312 7.84108 18.7609 7.39705 18.7609 6.84931V5.19588C18.7609 4.64813 18.312 4.2041 17.7582 4.2041Z" fill="#F4E724"/>
<path d="M29.3539 0.567383H22.2858C21.7321 0.567383 21.2832 1.01142 21.2832 1.55916V3.21259C21.2832 3.76033 21.7321 4.20436 22.2858 4.20436H29.3539C29.9077 4.20436 30.3566 3.76033 30.3566 3.21259V1.55916C30.3566 1.01142 29.9077 0.567383 29.3539 0.567383Z" fill="#F4E724"/>
<path d="M17.7582 12.0234H10.6901C10.1364 12.0234 9.6875 12.4675 9.6875 13.0152V14.6686C9.6875 15.2164 10.1364 15.6604 10.6901 15.6604H17.7582C18.312 15.6604 18.7609 15.2164 18.7609 14.6686V13.0152C18.7609 12.4675 18.312 12.0234 17.7582 12.0234Z" fill="#F4E724"/>
<path d="M29.3539 15.6582H22.2858C21.7321 15.6582 21.2832 16.1022 21.2832 16.65V18.3034C21.2832 18.8512 21.7321 19.2952 22.2858 19.2952H29.3539C29.9077 19.2952 30.3566 18.8512 30.3566 18.3034V16.65C30.3566 16.1022 29.9077 15.6582 29.3539 15.6582Z" fill="#F4E724"/>
<path d="M36.4353 11.3192H22.4397C22.1273 11.3192 21.873 10.9624 21.873 10.5213V9.18952C21.873 8.74842 22.1273 8.3916 22.4397 8.3916H36.4353C36.7477 8.3916 37.0019 8.74842 37.0019 9.18952V10.5213C37.0019 10.9624 36.7477 11.3192 36.4353 11.3192Z" fill="#F4E724"/>
<path d="M8.07073 8.03613H1.00263C0.448892 8.03613 0 8.48017 0 9.02791V10.6813C0 11.2291 0.448892 11.6731 1.00263 11.6731H8.07073C8.62446 11.6731 9.07335 11.2291 9.07335 10.6813V9.02791C9.07335 8.48017 8.62446 8.03613 8.07073 8.03613Z" fill="#F4E724"/>
<path d="M45.1814 0.152344H49.5768C51.8277 0.152344 52.4852 0.837877 52.4852 3.00405C52.4852 5.17022 51.8277 5.85576 49.5768 5.85576H46.8416V7.99243H45.1828V0.152344H45.1814ZM49.5029 4.18407C50.5212 4.18407 50.8421 3.95228 50.8421 3.00546C50.8421 2.05863 50.5212 1.82684 49.5029 1.82684H46.8416V4.18547H49.5029V4.18407Z" fill="white"/>
<path d="M54.375 0.152344H61.1363V1.82544H56.0352V3.19651H60.8651V4.8092H56.0352V6.32074H61.2429V7.99384H54.375V0.152344Z" fill="white"/>
<path d="M63.2793 0.152344H67.9615C70.0477 0.152344 70.6726 0.837877 70.6726 2.59105C70.6726 3.76966 70.3928 4.41586 69.6047 4.71789V4.75862C70.4837 4.93001 70.6811 5.26294 70.6811 6.6326V7.99384H69.0224V6.93604C69.0224 5.91757 68.8832 5.53547 67.6747 5.53547H64.9395V7.99524H63.2807V0.152344H63.2793ZM67.7982 3.8708C68.7341 3.8708 69.0224 3.66851 69.0224 2.85233C69.0224 2.03616 68.7426 1.82403 67.7897 1.82403H64.9395V3.8694H67.7982V3.8708Z" fill="white"/>
<path d="M72.793 0.152344H75.3975L77.9282 5.99764H77.9368L80.4675 0.152344H83.0223V7.99384H81.3792V2.01649H81.3622L78.7747 7.99384H77.025L74.4531 2.01649H74.4361V7.99384H72.793V0.152344Z" fill="white"/>
<path d="M85.2402 0.152344H86.9075V7.99384H85.2402V0.152344Z" fill="white"/>
<path d="M89.5041 7.58087C89.0611 7.22827 88.9375 6.68322 88.9375 5.72656V5.51444H90.6133V5.54534C90.6133 6.01875 90.6715 6.19997 90.8931 6.34185C91.1146 6.48233 91.633 6.54414 92.7748 6.54414C94.0898 6.54414 94.4747 6.4739 94.6806 6.35309C94.9021 6.22245 94.9604 6.07073 94.9604 5.69846C94.9604 5.3557 94.8865 5.16465 94.6891 5.04384C94.4917 4.92302 94.0813 4.90336 92.0107 4.84295C90.7127 4.80221 90.031 4.66174 89.6206 4.34847C89.169 4.0057 88.9957 3.44098 88.9957 2.42392C88.9957 1.40686 89.2428 0.8618 89.6944 0.528867C90.1872 0.166433 91.0422 0.00488281 92.7009 0.00488281C94.1963 0.00488281 95.2472 0.135528 95.7983 0.569605C96.2584 0.932039 96.3493 1.5375 96.3493 2.38318V2.52366H94.6735V2.51382C94.6735 2.15139 94.6408 1.92943 94.4193 1.79879C94.1807 1.65831 93.7291 1.60774 92.6782 1.60774C91.5193 1.60774 91.126 1.65831 90.92 1.77912C90.6985 1.90977 90.6488 2.11206 90.6488 2.39442C90.6488 2.75685 90.7553 2.90857 90.903 2.99847C91.0677 3.09962 91.339 3.13895 92.9153 3.17969C94.7062 3.22043 95.5114 3.33141 95.9957 3.69384C96.4558 4.03661 96.6035 4.67157 96.6035 5.62963C96.6035 6.65793 96.3905 7.23249 95.9374 7.58509C95.4858 7.93769 94.7047 8.14981 92.725 8.14981C90.7454 8.14981 90.0225 7.99809 89.5041 7.58509V7.58087Z" fill="white"/>
<path d="M98.3945 4.07246C98.3945 0.796512 99.1089 0 102.634 0C106.158 0 106.881 0.796512 106.881 4.07246C106.881 7.34841 106.176 8.14493 102.634 8.14493C99.0918 8.14493 98.3945 7.34841 98.3945 4.07246ZM102.634 6.44092C104.941 6.44092 105.197 6.20914 105.197 4.06263C105.197 1.91612 104.943 1.704 102.634 1.704C100.325 1.704 100.07 1.93579 100.07 4.06263C100.07 6.18947 100.325 6.44092 102.634 6.44092Z" fill="white"/>
<path d="M109.303 7.58087C108.86 7.22827 108.736 6.68322 108.736 5.72656V5.51444H110.412V5.54534C110.412 6.01875 110.47 6.19997 110.692 6.34185C110.913 6.48233 111.432 6.54414 112.574 6.54414C113.889 6.54414 114.274 6.4739 114.479 6.35309C114.701 6.22245 114.759 6.07073 114.759 5.69846C114.759 5.3557 114.685 5.16465 114.488 5.04384C114.291 4.92302 113.88 4.90336 111.81 4.84295C110.512 4.80221 109.83 4.66174 109.419 4.34847C108.968 4.0057 108.795 3.44098 108.795 2.42392C108.795 1.40686 109.042 0.8618 109.493 0.528867C109.986 0.166433 110.841 0.00488281 112.5 0.00488281C113.995 0.00488281 115.046 0.135528 115.597 0.569605C116.057 0.932039 116.148 1.5375 116.148 2.38318V2.52366H114.472V2.51382C114.472 2.15139 114.44 1.92943 114.218 1.79879C113.98 1.65831 113.528 1.60774 112.477 1.60774C111.318 1.60774 110.925 1.65831 110.719 1.77912C110.497 1.90977 110.448 2.11206 110.448 2.39442C110.448 2.75685 110.554 2.90857 110.702 2.99847C110.867 3.09962 111.138 3.13895 112.714 3.17969C114.505 3.22043 115.31 3.33141 115.794 3.69384C116.255 4.03661 116.402 4.67157 116.402 5.62963C116.402 6.65793 116.189 7.23249 115.736 7.58509C115.285 7.93769 114.504 8.14981 112.524 8.14981C110.544 8.14981 109.821 7.99809 109.303 7.58509V7.58087Z" fill="white"/>
<path d="M47.9757 11.0361H50.1201L53.5625 18.8776H51.6155L51.0247 17.4771H46.9659L46.3737 18.8776H44.5332L47.9757 11.0361ZM50.309 15.7829L48.9953 12.6783L47.6803 15.7829H50.309Z" fill="white"/>
<path d="M54.7871 15.5216V11.0361H56.4544V15.2294C56.4544 17.1146 56.6432 17.3253 58.6315 17.3253C60.6197 17.3253 60.8086 17.1132 60.8086 15.2294V11.0361H62.4758V15.5216C62.4758 18.2932 61.8268 19.0293 58.6315 19.0293C55.4361 19.0293 54.7871 18.2932 54.7871 15.5216Z" fill="white"/>
<path d="M67.0835 12.7397H64.1836V11.0371H71.6593V12.7397H68.7593L68.7508 18.8772H67.0835V12.7397Z" fill="white"/>
<path d="M73.0078 14.9572C73.0078 11.6813 73.7221 10.8848 77.247 10.8848C80.7718 10.8848 81.4946 11.6813 81.4946 14.9572C81.4946 18.2332 80.7888 19.0297 77.247 19.0297C73.7051 19.0297 73.0078 18.2332 73.0078 14.9572ZM77.247 17.3257C79.5547 17.3257 79.8103 17.0939 79.8103 14.9474C79.8103 12.8009 79.5561 12.5888 77.247 12.5888C74.9378 12.5888 74.6836 12.8206 74.6836 14.9474C74.6836 17.0742 74.9378 17.3257 77.247 17.3257Z" fill="white"/>
<path d="M83.5391 11.0361H86.1436L88.6743 16.8814H88.6829L91.2136 11.0361H93.7684V18.8776H92.1253V12.9003H92.1083L89.5207 18.8776H87.7711L85.1992 12.9003H85.1822V18.8776H83.5391V11.0361Z" fill="white"/>
<path d="M98.7779 11.0359H100.922L104.365 18.8774H102.418L101.826 17.4769H97.7667L97.1745 18.8774H95.334L98.7764 11.0359H98.7779ZM101.111 15.7827L99.7975 12.6781L98.4825 15.7827H101.111ZM100.388 8.83887H101.736L100.356 10.5625H99.0576L100.388 8.83887Z" fill="white"/>
<path d="M107.07 12.7397H104.17V11.0371H111.645V12.7397H108.746L108.737 18.8772H107.07V12.7397Z" fill="white"/>
<path d="M113.418 11.0361H115.085V18.8776H113.418V11.0361Z" fill="white"/>
<path d="M117.132 14.9572C117.132 11.6616 117.913 10.8848 121.215 10.8848C124.517 10.8848 125.133 11.5801 125.133 13.6761V13.9079H123.514V13.8376C123.514 12.8501 123.219 12.5775 121.214 12.5775C119.209 12.5775 118.807 12.8093 118.807 14.946C118.807 17.0827 119.128 17.3341 121.214 17.3341C123.3 17.3341 123.522 17.0419 123.522 16.0136V15.8928H125.132V16.1948C125.132 18.3217 124.426 19.0269 121.214 19.0269C118.001 19.0269 117.131 18.2514 117.131 14.9544L117.132 14.9572Z" fill="white"/>
<path d="M126.99 14.9572C126.99 11.6813 127.705 10.8848 131.229 10.8848C134.754 10.8848 135.477 11.6813 135.477 14.9572C135.477 18.2332 134.771 19.0297 131.229 19.0297C127.688 19.0297 126.99 18.2332 126.99 14.9572ZM131.228 17.3257C133.536 17.3257 133.791 17.0939 133.791 14.9474C133.791 12.8009 133.537 12.5888 131.228 12.5888C128.919 12.5888 128.665 12.8206 128.665 14.9474C128.665 17.0742 128.919 17.3257 131.228 17.3257Z" fill="white"/>
<path d="M137.901 18.4647C137.458 18.1121 137.334 17.567 137.334 16.6103V16.3982H139.01V16.4291C139.01 16.9025 139.068 17.0838 139.29 17.2256C139.511 17.3661 140.029 17.4279 141.171 17.4279C142.486 17.4279 142.871 17.3577 143.077 17.2369C143.299 17.1062 143.357 16.9545 143.357 16.5823C143.357 16.2395 143.283 16.0484 143.086 15.9276C142.888 15.8068 142.478 15.7871 140.407 15.7267C139.109 15.686 138.428 15.5455 138.017 15.2323C137.565 14.8895 137.392 14.3248 137.392 13.3077C137.392 12.2906 137.639 11.7456 138.091 11.4127C138.584 11.0502 139.439 10.8887 141.097 10.8887C142.593 10.8887 143.644 11.0193 144.195 11.4534C144.655 11.8158 144.746 12.4213 144.746 13.267V13.4074H143.07V13.3976C143.07 13.0352 143.037 12.8132 142.816 12.6826C142.577 12.5421 142.126 12.4915 141.075 12.4915C139.916 12.4915 139.522 12.5421 139.317 12.6629C139.095 12.7936 139.045 12.9958 139.045 13.2782C139.045 13.6406 139.152 13.7924 139.299 13.8823C139.464 13.9834 139.735 14.0227 141.312 14.0635C143.103 14.1042 143.908 14.2152 144.392 14.5776C144.852 14.9204 145 15.5554 145 16.5134C145 17.5417 144.787 18.1163 144.334 18.4689C143.882 18.8215 143.101 19.0336 141.122 19.0336C139.142 19.0336 138.419 18.8819 137.901 18.4689V18.4647Z" fill="white"/>
</svg>
