<svg width="184" height="24" viewBox="0 0 184 24" fill="none" xmlns="http://www.w3.org/2000/svg">
<path d="M22.475 5.17114H13.531C12.8303 5.17114 12.2623 5.71726 12.2623 6.39094V8.4245C12.2623 9.09818 12.8303 9.6443 13.531 9.6443H22.475C23.1757 9.6443 23.7438 9.09818 23.7438 8.4245V6.39094C23.7438 5.71726 23.1757 5.17114 22.475 5.17114Z" fill="black"/>
<path d="M37.1441 0.697998H28.2001C27.4994 0.697998 26.9313 1.24412 26.9313 1.91779V3.95136C26.9313 4.62503 27.4994 5.17116 28.2001 5.17116H37.1441C37.8448 5.17116 38.4128 4.62503 38.4128 3.95136V1.91779C38.4128 1.24412 37.8448 0.697998 37.1441 0.697998Z" fill="black"/>
<path d="M22.475 14.7878H13.531C12.8303 14.7878 12.2623 15.334 12.2623 16.0076V18.0412C12.2623 18.7149 12.8303 19.261 13.531 19.261H22.475C23.1757 19.261 23.7438 18.7149 23.7438 18.0412V16.0076C23.7438 15.334 23.1757 14.7878 22.475 14.7878Z" fill="black"/>
<path d="M37.1441 19.2593H28.2001C27.4994 19.2593 26.9313 19.8054 26.9313 20.4791V22.5126C26.9313 23.1863 27.4994 23.7324 28.2001 23.7324H37.1441C37.8448 23.7324 38.4128 23.1863 38.4128 22.5126V20.4791C38.4128 19.8054 37.8448 19.2593 37.1441 19.2593Z" fill="black"/>
<path d="M46.1063 13.9222H28.3962C28.0008 13.9222 27.6791 13.4833 27.6791 12.9408V11.3029C27.6791 10.7604 28.0008 10.3215 28.3962 10.3215H46.1063C46.5016 10.3215 46.8233 10.7604 46.8233 11.3029V12.9408C46.8233 13.4833 46.5016 13.9222 46.1063 13.9222Z" fill="black"/>
<path d="M10.2127 9.88452H1.26873C0.56803 9.88452 0 10.4306 0 11.1043V13.1379C0 13.8116 0.56803 14.3577 1.26873 14.3577H10.2127C10.9134 14.3577 11.4815 13.8116 11.4815 13.1379V11.1043C11.4815 10.4306 10.9134 9.88452 10.2127 9.88452Z" fill="black"/>
<path d="M57.1733 0.186523H62.7352C65.5836 0.186523 66.4156 1.02967 66.4156 3.69387C66.4156 6.35807 65.5836 7.20121 62.7352 7.20121H59.2741V9.82913H57.1751V0.186523H57.1733ZM62.6418 5.14518C63.9303 5.14518 64.3364 4.8601 64.3364 3.69559C64.3364 2.53109 63.9303 2.24601 62.6418 2.24601H59.2741V5.14691H62.6418V5.14518Z" fill="black"/>
<path d="M68.8076 0.186523H77.3634V2.24428H70.9084V3.93057H77.0202V5.91403H70.9084V7.7731H77.4982V9.83085H68.8076V0.186523Z" fill="black"/>
<path d="M80.0753 0.186523H86.0002C88.6401 0.186523 89.4308 1.02967 89.4308 3.18591C89.4308 4.63549 89.0768 5.43026 88.0794 5.80173V5.85183C89.1918 6.06262 89.4416 6.4721 89.4416 8.15666V9.83085H87.3426V8.52985C87.3426 7.27723 87.1665 6.80728 85.6372 6.80728H82.1761V9.83258H80.0771V0.186523H80.0753ZM85.7936 4.75989C86.9778 4.75989 87.3426 4.51109 87.3426 3.50727C87.3426 2.50344 86.9886 2.24255 85.7828 2.24255H82.1761V4.75816H85.7936V4.75989Z" fill="black"/>
<path d="M92.1162 0.186523H95.412L98.6144 7.37571H98.6251L101.828 0.186523H105.06V9.83085H102.981V2.47925H102.96L99.6854 9.83085H97.4714L94.2169 2.47925H94.1954V9.83085H92.1162V0.186523Z" fill="black"/>
<path d="M107.863 0.186523H109.973V9.83085H107.863V0.186523Z" fill="black"/>
<path d="M113.259 9.32316C112.699 8.88949 112.542 8.21912 112.542 7.04252V6.78163H114.663V6.81964C114.663 7.40189 114.737 7.62477 115.017 7.79927C115.297 7.97205 115.953 8.04807 117.398 8.04807C119.062 8.04807 119.549 7.96168 119.81 7.8131C120.09 7.65242 120.164 7.46582 120.164 7.00796C120.164 6.58639 120.07 6.35142 119.821 6.20283C119.571 6.05424 119.051 6.03005 116.431 5.95576C114.789 5.90566 113.926 5.73288 113.407 5.34759C112.835 4.92602 112.616 4.23146 112.616 2.98057C112.616 1.72967 112.929 1.0593 113.5 0.649824C114.124 0.204063 115.206 0.00537109 117.305 0.00537109C119.197 0.00537109 120.527 0.166052 121.224 0.699929C121.806 1.14569 121.921 1.89035 121.921 2.93046V3.10324H119.801V3.09114C119.801 2.64538 119.759 2.3724 119.479 2.21171C119.177 2.03894 118.606 1.97674 117.276 1.97674C115.81 1.97674 115.312 2.03894 115.051 2.18753C114.771 2.34821 114.708 2.597 114.708 2.94428C114.708 3.39004 114.843 3.57664 115.03 3.68722C115.238 3.81162 115.581 3.85999 117.576 3.9101C119.842 3.9602 120.861 4.0967 121.474 4.54246C122.056 4.96403 122.243 5.74497 122.243 6.9233C122.243 8.18802 121.973 8.89467 121.4 9.32834C120.829 9.76201 119.84 10.0229 117.335 10.0229C114.83 10.0229 113.915 9.8363 113.259 9.32834V9.32316Z" fill="black"/>
<path d="M124.507 5.00876C124.507 0.979638 125.411 0 129.871 0C134.332 0 135.246 0.979638 135.246 5.00876C135.246 9.03789 134.353 10.0175 129.871 10.0175C125.389 10.0175 124.507 9.03789 124.507 5.00876ZM129.871 7.92176C132.792 7.92176 133.115 7.63668 133.115 4.99667C133.115 2.35666 132.793 2.09577 129.871 2.09577C126.949 2.09577 126.628 2.38085 126.628 4.99667C126.628 7.61249 126.949 7.92176 129.871 7.92176Z" fill="black"/>
<path d="M138.31 9.32316C137.75 8.88949 137.593 8.21912 137.593 7.04252V6.78163H139.714V6.81964C139.714 7.40189 139.788 7.62477 140.068 7.79927C140.348 7.97205 141.004 8.04807 142.449 8.04807C144.113 8.04807 144.6 7.96168 144.861 7.8131C145.141 7.65242 145.215 7.46582 145.215 7.00796C145.215 6.58639 145.121 6.35142 144.872 6.20283C144.622 6.05424 144.102 6.03005 141.482 5.95576C139.84 5.90566 138.977 5.73288 138.458 5.34759C137.886 4.92602 137.667 4.23146 137.667 2.98057C137.667 1.72967 137.98 1.0593 138.551 0.649824C139.175 0.204063 140.257 0.00537109 142.356 0.00537109C144.248 0.00537109 145.578 0.166052 146.275 0.699929C146.857 1.14569 146.972 1.89035 146.972 2.93046V3.10324H144.852V3.09114C144.852 2.64538 144.81 2.3724 144.53 2.21171C144.228 2.03894 143.657 1.97674 142.327 1.97674C140.861 1.97674 140.363 2.03894 140.102 2.18753C139.822 2.34821 139.759 2.597 139.759 2.94428C139.759 3.39004 139.894 3.57664 140.081 3.68722C140.289 3.81162 140.632 3.85999 142.627 3.9101C144.893 3.9602 145.912 4.0967 146.525 4.54246C147.107 4.96403 147.294 5.74497 147.294 6.9233C147.294 8.18802 147.024 8.89467 146.451 9.32834C145.88 9.76201 144.891 10.0229 142.386 10.0229C139.881 10.0229 138.966 9.8363 138.31 9.32834V9.32316Z" fill="black"/>
<path d="M60.709 13.5732H63.4226L67.7787 23.2176H65.3149L64.5673 21.495H59.4313L58.6819 23.2176H56.3529L60.709 13.5732ZM63.6616 19.4113L61.9993 15.593L60.3352 19.4113H63.6616Z" fill="black"/>
<path d="M69.3267 19.09V13.5732H71.4365V18.7306C71.4365 21.0492 71.6755 21.3084 74.1914 21.3084C76.7073 21.3084 76.9463 21.0475 76.9463 18.7306V13.5732H79.056V19.09C79.056 22.4988 78.2348 23.4042 74.1914 23.4042C70.148 23.4042 69.3267 22.4988 69.3267 19.09Z" fill="black"/>
<path d="M84.8886 15.669H81.2189V13.575H90.6787V15.669H87.0091L86.9983 23.2176H84.8886V15.669Z" fill="black"/>
<path d="M92.3848 18.3955C92.3848 14.3664 93.2887 13.3867 97.749 13.3867C102.209 13.3867 103.124 14.3664 103.124 18.3955C103.124 22.4246 102.231 23.4042 97.749 23.4042C93.2671 23.4042 92.3848 22.4246 92.3848 18.3955ZM97.749 21.3085C100.669 21.3085 100.993 21.0234 100.993 18.3834C100.993 15.7434 100.671 15.4825 97.749 15.4825C94.827 15.4825 94.5053 15.7676 94.5053 18.3834C94.5053 20.9992 94.827 21.3085 97.749 21.3085Z" fill="black"/>
<path d="M105.711 13.5732H109.007L112.209 20.7624H112.22L115.422 13.5732H118.655V23.2176H116.576V15.866H116.554L113.28 23.2176H111.066L107.811 15.866H107.79V23.2176H105.711V13.5732Z" fill="black"/>
<path d="M124.996 13.5733H127.709L132.065 23.2176H129.601L128.852 21.4951H123.716L122.967 23.2176H120.638L124.994 13.5733H124.996ZM127.948 19.4114L126.286 15.593L124.622 19.4114H127.948ZM127.033 10.8711H128.739L126.992 12.9911H125.35L127.033 10.8711Z" fill="black"/>
<path d="M135.484 15.669H131.814V13.575H141.274V15.669H137.605L137.594 23.2176H135.484V15.669Z" fill="black"/>
<path d="M143.521 13.5732H145.631V23.2176H143.521V13.5732Z" fill="black"/>
<path d="M148.22 18.3955C148.22 14.3422 149.209 13.3867 153.387 13.3867C157.565 13.3867 158.345 14.242 158.345 16.8198V17.1048H156.296V17.0185C156.296 15.8038 155.923 15.4687 153.385 15.4687C150.848 15.4687 150.339 15.7537 150.339 18.3817C150.339 21.0096 150.745 21.3188 153.385 21.3188C156.025 21.3188 156.305 20.9595 156.305 19.6948V19.5462H158.343V19.9176C158.343 22.5335 157.45 23.4008 153.385 23.4008C149.32 23.4008 148.219 22.4471 148.219 18.392L148.22 18.3955Z" fill="black"/>
<path d="M160.695 18.3955C160.695 14.3664 161.599 13.3867 166.059 13.3867C170.52 13.3867 171.434 14.3664 171.434 18.3955C171.434 22.4246 170.541 23.4042 166.059 23.4042C161.577 23.4042 160.695 22.4246 160.695 18.3955ZM166.058 21.3085C168.978 21.3085 169.301 21.0234 169.301 18.3834C169.301 15.7434 168.98 15.4825 166.058 15.4825C163.135 15.4825 162.814 15.7676 162.814 18.3834C162.814 20.9992 163.135 21.3085 166.058 21.3085Z" fill="black"/>
<path d="M174.498 22.7096C173.938 22.276 173.781 21.6056 173.781 20.429V20.1681H175.902V20.2061C175.902 20.7884 175.976 21.0112 176.256 21.1857C176.536 21.3585 177.192 21.4345 178.637 21.4345C180.301 21.4345 180.788 21.3482 181.049 21.1996C181.329 21.0389 181.403 20.8523 181.403 20.3944C181.403 19.9729 181.309 19.7379 181.06 19.5893C180.81 19.4407 180.29 19.4165 177.67 19.3422C176.028 19.2921 175.165 19.1194 174.646 18.7341C174.074 18.3125 173.855 17.6179 173.855 16.367C173.855 15.1161 174.168 14.4458 174.739 14.0363C175.363 13.5905 176.445 13.3918 178.544 13.3918C180.436 13.3918 181.766 13.5525 182.463 14.0864C183.045 14.5322 183.16 15.2768 183.16 16.3169V16.4897H181.04V16.4776C181.04 16.0319 180.998 15.7589 180.718 15.5982C180.416 15.4254 179.845 15.3632 178.515 15.3632C177.048 15.3632 176.551 15.4254 176.29 15.574C176.01 15.7347 175.947 15.9835 175.947 16.3308C175.947 16.7765 176.082 16.9631 176.269 17.0737C176.477 17.1981 176.82 17.2465 178.815 17.2966C181.081 17.3467 182.1 17.4832 182.713 17.9289C183.295 18.3505 183.482 19.1314 183.482 20.3098C183.482 21.5745 183.212 22.2811 182.639 22.7148C182.068 23.1485 181.079 23.4094 178.574 23.4094C176.069 23.4094 175.154 23.2228 174.498 22.7148V22.7096Z" fill="black"/>
</svg>
