<svg width="40" height="40" viewBox="0 0 40 40" fill="none" xmlns="http://www.w3.org/2000/svg">
<g clip-path="url(#clip0_2187_1028)">
<path d="M32.5 6.66667H29.915C29.495 2.92667 26.35 0 22.5 0H17.5C13.65 0 10.505 2.92667 10.085 6.66667H7.5C3.365 6.66667 0 10.0317 0 14.1667V32.5C0 36.635 3.365 40 7.5 40H32.5C36.635 40 40 36.635 40 32.5V14.1667C40 10.0317 36.635 6.66667 32.5 6.66667ZM17.5 1.66667H22.5C25.43 1.66667 27.84 3.84667 28.2483 6.66667H11.7517C12.16 3.84667 14.57 1.66667 17.5 1.66667ZM7.5 8.33333H32.5C35.7167 8.33333 38.3333 10.95 38.3333 14.1667V20H1.66667V14.1667C1.66667 10.95 4.28333 8.33333 7.5 8.33333ZM32.5 38.3333H7.5C4.28333 38.3333 1.66667 35.7167 1.66667 32.5V21.6667H19.1667V24.1667C19.1667 24.6267 19.54 25 20 25C20.46 25 20.8333 24.6267 20.8333 24.1667V21.6667H38.3333V32.5C38.3333 35.7167 35.7167 38.3333 32.5 38.3333Z" fill="black"/>
</g>
<defs>
<clipPath id="clip0_2187_1028">
<rect width="40" height="40" fill="white"/>
</clipPath>
</defs>
</svg>
