<svg width="40" height="40" viewBox="0 0 40 40" fill="none" xmlns="http://www.w3.org/2000/svg">
<g clip-path="url(#clip0_2187_1051)">
<path d="M29.3742 26.4585C29.5375 26.6218 29.7509 26.7018 29.9642 26.7018C30.1775 26.7018 30.3909 26.6202 30.5542 26.4585C30.8792 26.1335 30.8792 25.6052 30.5542 25.2802L25.9342 20.6602C25.5542 20.2802 25.0492 20.0952 24.5292 20.0218C24.4192 19.9685 24.2992 19.9302 24.1675 19.9302C24.0359 19.9302 23.9159 19.9668 23.8059 20.0218C23.2859 20.0952 22.7809 20.2802 22.4009 20.6602L17.7809 25.2802C17.4559 25.6052 17.4559 26.1335 17.7809 26.4585C18.1059 26.7835 18.6342 26.7835 18.9592 26.4585L23.3342 22.0818V39.1668C23.3342 39.6268 23.7075 40.0002 24.1675 40.0002C24.6275 40.0002 25.0009 39.6268 25.0009 39.1668V22.0818L29.3742 26.4585Z" fill="black"/>
<path d="M30.8509 12.3466C30.1209 12.105 29.5625 11.545 29.3192 10.8083C27.2609 4.58663 21.0409 0.813297 14.5125 1.83663C9.23086 2.66663 4.88086 6.71496 3.6892 11.9116C3.10253 14.4666 3.25253 17.0866 4.1192 19.49C4.4492 20.405 4.12753 21.4416 3.29753 22.1333C1.0092 24.0416 -0.210802 26.9583 0.0325314 29.9366C0.417531 34.645 4.59253 38.3333 9.53753 38.3333H19.1675C19.6275 38.3333 20.0009 37.96 20.0009 37.5C20.0009 37.04 19.6275 36.6666 19.1675 36.6666H9.53753C5.4542 36.6666 2.0092 33.65 1.6942 29.8C1.49086 27.3266 2.4642 24.9966 4.36586 23.4116C5.7392 22.265 6.2592 20.505 5.68586 18.9233C4.92753 16.8216 4.7992 14.5266 5.31253 12.2833C6.3542 7.74496 10.1542 4.2083 14.7709 3.48496C20.4792 2.5833 25.9342 5.8883 27.7375 11.335C28.1475 12.5766 29.0925 13.5216 30.3292 13.9316C35.1175 15.5116 38.3359 19.9616 38.3359 25.0033C38.3359 30.53 34.4109 35.3383 29.0025 36.435C28.5509 36.5266 28.2609 36.9666 28.3509 37.4183C28.4425 37.87 28.8792 38.165 29.3342 38.07C35.5142 36.815 40.0009 31.32 40.0009 25.0033C40.0009 19.2416 36.3225 14.1566 30.8509 12.35V12.3466Z" fill="black"/>
</g>
<defs>
<clipPath id="clip0_2187_1051">
<rect width="40" height="40" fill="white"/>
</clipPath>
</defs>
</svg>
