<svg width="40" height="40" viewBox="0 0 40 40" fill="none" xmlns="http://www.w3.org/2000/svg">
<g clip-path="url(#clip0_2187_1064)">
<path d="M5.83298 10C4.71964 10 3.67298 9.56666 2.88631 8.78L0.277978 6.455C-0.0670216 6.14833 -0.0970215 5.62166 0.209645 5.27833C0.516312 4.93333 1.04298 4.905 1.38631 5.21L4.02964 7.56666C5.04298 8.575 6.65631 8.54333 7.59964 7.6L13.5913 1.895C13.923 1.58 14.4496 1.59 14.7696 1.925C15.0863 2.25833 15.0746 2.78666 14.7396 3.10333L8.76298 8.79333C7.99131 9.565 6.94631 10 5.83298 10ZM39.9996 7.5C39.9996 7.04 39.6263 6.66666 39.1663 6.66666H20.833C20.373 6.66666 19.9996 7.04 19.9996 7.5C19.9996 7.96 20.373 8.33333 20.833 8.33333H39.1663C39.6263 8.33333 39.9996 7.96 39.9996 7.5ZM8.76464 22.1267L14.7413 16.4367C15.0746 16.12 15.088 15.5917 14.7713 15.2583C14.4513 14.925 13.9246 14.9117 13.593 15.2283L7.60131 20.9333C6.65798 21.8767 5.00965 21.8767 4.06631 20.9333L1.42298 18.2917C1.09798 17.9667 0.569645 17.9667 0.244645 18.2917C-0.0803549 18.6167 -0.0803549 19.145 0.244645 19.47L2.88798 22.1117C3.67465 22.8983 4.72131 23.3317 5.83464 23.3317C6.94798 23.3317 7.99465 22.8983 8.76631 22.125L8.76464 22.1267ZM39.9996 20.8333C39.9996 20.3733 39.6263 20 39.1663 20H20.833C20.373 20 19.9996 20.3733 19.9996 20.8333C19.9996 21.2933 20.373 21.6667 20.833 21.6667H39.1663C39.6263 21.6667 39.9996 21.2933 39.9996 20.8333ZM8.76464 35.46L14.7413 29.77C15.0746 29.4533 15.088 28.925 14.7713 28.5917C14.4513 28.2583 13.9246 28.2467 13.593 28.5617L7.60131 34.2667C6.65798 35.21 5.04464 35.2433 4.03131 34.2333L1.38798 31.8767C1.04465 31.57 0.519645 31.6 0.211312 31.945C-0.0970215 32.29 -0.0653549 32.815 0.279645 33.1217L2.88798 35.4467C3.67465 36.2333 4.72131 36.6667 5.83464 36.6667C6.94798 36.6667 7.99465 36.2333 8.76631 35.46H8.76464ZM39.9996 34.1667C39.9996 33.7067 39.6263 33.3333 39.1663 33.3333H20.833C20.373 33.3333 19.9996 33.7067 19.9996 34.1667C19.9996 34.6267 20.373 35 20.833 35H39.1663C39.6263 35 39.9996 34.6267 39.9996 34.1667Z" fill="black"/>
</g>
<defs>
<clipPath id="clip0_2187_1064">
<rect width="40" height="40" fill="white"/>
</clipPath>
</defs>
</svg>
